SplineFontDB: 3.0
FontName: VT323
FullName: VT323
FamilyName: VT323
Weight: Medium
Copyright: Created by Peter Hull, with FontForge 2.0 (http://fontforge.sf.net)
UComments: "2011-1-3: Created." 
Version: 001.001
ItalicAngle: 0
UnderlinePosition: -204
UnderlineWidth: 102
Ascent: 1638
Descent: 410
LayerCount: 2
Layer: 0 0 "Back"  1
Layer: 1 0 "Fore"  0
XUID: [1021 167 62782154 7702267]
FSType: 0
OS2Version: 0
OS2_WeightWidthSlopeOnly: 0
OS2_UseTypoMetrics: 1
CreationTime: 1294071703
ModificationTime: 1296738289
PfmFamily: 17
TTFWeight: 500
TTFWidth: 5
LineGap: 0
VLineGap: 0
OS2TypoAscent: 1638
OS2TypoAOffset: 0
OS2TypoDescent: -409
OS2TypoDOffset: 0
OS2TypoLinegap: 0
OS2WinAscent: 1638
OS2WinAOffset: 0
OS2WinDescent: 409
OS2WinDOffset: 0
HheadAscent: 1638
HheadAOffset: 0
HheadDescent: -409
HheadDOffset: 0
OS2Vendor: 'PfEd'
MarkAttachClasses: 1
DEI: 91125
LangName: 1033 "" "" "" "" "" "" "" "" "" "" "" "" "" "" "http://scripts.sil.org/OFL" 
Encoding: UnicodeBmp
Compacted: 1
UnicodeInterp: none
NameList: Adobe Glyph List
DisplaySize: -36
AntiAlias: 1
FitToEm: 1
WinInfo: 0 26 14
BeginChars: 65536 209

StartChar: uni2581
Encoding: 9601 9601 0
Width: 851
VWidth: 0
Flags: W
HStem: 273 171<0 853>
LayerCount: 2
Back
Fore
SplineSet
0 358 m 1
 0 444 l 1
 427 444 l 1
 853 444 l 1
 853 358 l 1
 853 273 l 1
 427 273 l 1
 0 273 l 1
 0 358 l 1
EndSplineSet
EndChar

StartChar: ampersand
Encoding: 38 38 1
Width: 851
VWidth: 0
Flags: W
HStem: -68 170<285.981 455 513 516.988 740.963 804.443> 444 341<455 512 683 798.326> 614 171<341.985 455> 786 170<226 284 569.963 634.186> 956 170<341.982 512 570 577.186>
VStem: 106 180<104.125 443.998> 226 116<786 955.506> 282 288<956.141 1120> 447 132<102.156 270.646> 680 120<453 779>
LayerCount: 2
Back
Fore
SplineSet
680 779 m 2xd840
 683 785 l 1
 739 785 l 2
 770 785 797 784 798 783 c 0
 805 771 809 683 804 650 c 0
 803 645 801 636 800 630 c 0
 798 616 798 613 800 602 c 0
 809 561 807 456 797 446 c 0
 796 445 769 444 738 444 c 2
 682 445 l 1
 679 453 l 2
 670 487 671 579 680 606 c 0
 681 610 681 619 680 624 c 0
 671 660 670 754 680 779 c 2xd840
282 1120 m 2xb940
 284 1126 l 1
 427 1126 l 2
 505 1126 569 1125 570 1124 c 0
 578 1111 582 1025 576 988 c 0
 572 965 571 960 570 958 c 0x9940
 569 957 581 956 597 956 c 0
 613 956 626 954 627 953 c 0
 635 940 639 855 633 818 c 0
 629 794 628 789 626 787 c 0
 625 786 598 786 567 786 c 2
 511 786 l 1
 509 794 l 2
 500 828 500 921 509 948 c 2
 512 956 l 1
 426 956 l 2
 379 956 341 954 342 953 c 0
 346 946 351 904 351 872 c 0
 351 839 346 794 342 787 c 0
 341 786 380 785 427 785 c 2xba40
 512 785 l 1xda40
 514 779 l 2
 524 753 523 633 513 617 c 0
 512 616 524 614 540 614 c 0xba40
 556 614 569 613 570 612 c 0
 578 599 582 513 576 476 c 0
 572 453 571 448 570 446 c 0
 569 445 595 444 626 444 c 2
 683 444 l 1
 685 437 l 2
 695 411 694 291 684 275 c 0
 683 274 695 273 711 273 c 0
 727 273 740 272 741 271 c 0
 749 258 753 172 747 135 c 0
 743 112 742 107 741 105 c 0
 740 104 752 102 768 102 c 0
 784 102 797 101 798 100 c 0
 805 88 809 0 804 -33 c 0
 803 -38 802 -47 801 -53 c 0
 800 -59 798 -65 797 -66 c 0
 796 -67 757 -68 710 -68 c 2
 625 -67 l 1
 623 -59 l 2
 614 -25 614 67 623 94 c 0
 624 98 624 107 623 112 c 0
 614 148 614 237 623 265 c 2
 625 273 l 1
 597 273 l 2
 581 273 569 272 570 271 c 0xd940
 574 264 579 221 579 189 c 0xd8c0
 579 156 574 112 570 105 c 0xd940
 569 104 556 102 540 102 c 0
 524 102 512 101 513 100 c 0
 524 82 524 -55 513 -66 c 0
 512 -67 446 -68 368 -68 c 2
 226 -67 l 1xda40
 224 -59 l 2
 215 -25 216 68 225 95 c 2
 227 102 l 1
 170 103 l 1
 113 104 l 1
 111 112 l 2
 102 146 102 238 111 265 c 0
 112 269 112 277 111 282 c 0
 104 308 102 365 106 405 c 0
 110 445 109 444 142 444 c 2
 170 444 l 1xdc40
 168 453 l 2
 159 489 158 583 168 608 c 2
 171 614 l 1
 227 614 l 1
 284 614 l 1
 281 624 l 2
 272 660 273 749 282 777 c 2xb940
 284 785 l 1
 255 786 l 1
 226 786 l 1xba40
 224 794 l 2
 217 819 216 878 220 917 c 0
 224 957 223 956 256 956 c 2
 284 956 l 1
 281 965 l 2
 272 1001 272 1095 282 1120 c 2xb940
452 607 m 2
 455 614 l 1
 398 614 l 2
 367 614 341 613 342 612 c 0
 346 605 351 562 351 530 c 0
 351 497 346 453 342 446 c 0xbac0
 341 445 329 444 313 444 c 0
 297 444 285 442 286 441 c 0
 295 426 296 325 288 286 c 0
 286 275 286 271 288 260 c 0
 297 220 296 120 286 105 c 0
 285 104 322 102 369 102 c 2
 455 102 l 1
 452 112 l 2
 445 138 443 194 447 234 c 0
 451 274 450 273 483 273 c 2
 511 273 l 1
 509 282 l 2
 500 318 500 408 509 436 c 2
 512 443 l 1
 483 444 l 1xdcc0
 454 445 l 1
 452 453 l 2
 443 487 443 579 452 607 c 2
EndSplineSet
EndChar

StartChar: parenleft
Encoding: 40 40 2
Width: 851
VWidth: 0
Flags: W
HStem: -238 170<512 634.186> -68 170<455.963 520.153> 956 170<455.963 512> 1128 169<512 634.186>
VStem: 333 123<785.141 955.998> 395 119<965 1120> 511 122<-236.904 -75 1129.1 1291>
LayerCount: 2
Back
Fore
SplineSet
509 -75 m 2xf2
 512 -68 l 1
 569 -68 l 2
 600 -68 626 -70 627 -71 c 0
 635 -84 639 -169 633 -206 c 0
 629 -230 628 -235 626 -237 c 0
 625 -238 598 -238 567 -238 c 2
 511 -238 l 1
 509 -230 l 2
 500 -196 500 -99 509 -75 c 2xf2
396 1120 m 2
 398 1126 l 1
 455 1126 l 1
 512 1126 l 1
 514 1120 l 2xf4
 524 1094 523 974 513 958 c 0
 512 957 499 956 483 956 c 0
 467 956 455 954 456 953 c 0
 465 938 467 837 459 798 c 0
 457 787 457 783 459 772 c 0
 466 737 466 661 459 627 c 0
 457 616 457 613 459 602 c 0
 466 567 466 491 459 457 c 0
 457 446 457 442 459 431 c 0
 467 392 466 291 457 276 c 0
 456 275 456 269 458 264 c 0
 467 231 466 121 456 105 c 0xf8
 455 104 467 102 483 102 c 0
 499 102 512 101 513 100 c 0
 518 92 523 40 522 6 c 0
 521 -32 517 -62 513 -66 c 0
 512 -67 485 -68 454 -68 c 2
 397 -67 l 1
 395 -59 l 2
 386 -25 386 67 395 94 c 2xf4
 398 102 l 1
 369 103 l 1
 340 104 l 1
 338 112 l 2
 329 146 329 238 338 265 c 2
 341 273 l 1
 312 274 l 1
 283 274 l 1
 281 282 l 2
 272 316 273 409 282 436 c 0
 283 440 283 448 282 453 c 0
 273 489 273 578 282 606 c 0
 283 610 283 619 282 624 c 0
 275 650 273 706 277 746 c 0
 281 786 280 785 313 785 c 2
 341 785 l 1
 338 794 l 2
 331 820 329 877 333 917 c 0xf8
 337 957 336 956 369 956 c 2
 398 956 l 1
 395 965 l 2xf4
 386 1001 386 1095 396 1120 c 2
509 1291 m 2
 512 1297 l 1
 569 1297 l 2
 600 1297 626 1296 627 1295 c 0
 635 1282 639 1196 633 1159 c 0
 629 1135 628 1131 626 1129 c 0
 625 1128 598 1127 567 1127 c 2
 511 1128 l 1xf2
 509 1136 l 2
 500 1170 500 1267 509 1291 c 2
EndSplineSet
EndChar

StartChar: ordfeminine
Encoding: 170 170 3
Width: 851
VWidth: 0
Flags: W
HStem: 104 169<228 690.443> 444 170<341.991 568> 616 169<226 284 342 452.056> 785 171<341.991 568> 1128 169<284 569 627 634.186>
VStem: 220 131<616.125 782.646> 225 462<105.051 267> 282 345<1128.12 1291>
LayerCount: 2
Back
Fore
SplineSet
225 267 m 2xfa
 228 273 l 1
 455 273 l 2
 580 273 683 272 684 271 c 0
 691 259 695 171 690 138 c 0
 689 133 688 124 687 118 c 0
 686 112 684 106 683 105 c 0
 682 104 579 103 454 103 c 2
 226 104 l 1
 224 112 l 2
 215 146 216 243 225 267 c 2xfa
282 1291 m 2xf9
 284 1297 l 1
 455 1297 l 2
 549 1297 626 1296 627 1295 c 0
 635 1282 639 1196 633 1159 c 0
 629 1136 628 1131 627 1129 c 0xf9
 626 1128 638 1126 654 1126 c 0
 670 1126 683 1125 684 1124 c 0
 685 1123 686 1117 687 1112 c 0
 695 1069 694 1012 686 969 c 0
 684 958 685 953 687 943 c 0
 694 908 694 832 687 798 c 0
 685 787 685 783 687 772 c 0
 694 737 694 661 687 627 c 0
 685 616 685 613 687 602 c 0xfa
 696 561 693 456 683 446 c 0
 682 445 591 444 482 444 c 2
 283 445 l 1
 281 453 l 2
 272 487 273 579 282 606 c 2xf9
 284 614 l 1
 255 615 l 1
 226 616 l 1
 224 624 l 2
 217 649 216 707 220 746 c 0xfc
 224 786 223 785 256 785 c 2
 284 785 l 1
 281 794 l 2
 272 830 272 924 282 949 c 2
 284 956 l 1
 426 956 l 1
 568 956 l 1
 566 965 l 2
 557 1001 557 1091 566 1119 c 2
 569 1126 l 1
 426 1127 l 1
 283 1128 l 1
 281 1136 l 2
 272 1170 273 1267 282 1291 c 2xf9
566 777 m 2
 569 785 l 1
 455 785 l 2
 392 785 341 784 342 783 c 0
 346 776 351 733 351 701 c 0xfc
 351 668 346 624 342 617 c 0
 341 616 392 614 455 614 c 2
 568 614 l 1
 566 624 l 2
 557 660 557 749 566 777 c 2
EndSplineSet
EndChar

StartChar: igrave
Encoding: 236 236 4
Width: 851
VWidth: 0
Flags: W
HStem: -67 169<228 398 569.982 748.186> 616 169<284 398> 956 170<455.972 576.443> 1128 169<284 397.292>
VStem: 282 178<1129.05 1291> 283 290<616 779>
LayerCount: 2
Back
Fore
SplineSet
282 779 m 2xf8
 284 785 l 1
 427 785 l 2
 505 785 569 784 570 783 c 0
 571 782 572 776 573 771 c 0
 581 728 581 670 573 627 c 0
 571 616 571 612 573 602 c 0
 580 567 580 491 573 457 c 0
 571 446 571 442 573 431 c 0
 580 396 580 320 573 286 c 0
 571 275 571 271 573 260 c 0
 582 220 580 120 570 105 c 0
 569 104 607 102 654 102 c 0
 701 102 740 101 741 100 c 0
 749 87 753 1 747 -36 c 0
 743 -60 742 -64 740 -66 c 0
 739 -67 623 -68 482 -68 c 2
 226 -67 l 1
 224 -59 l 2
 215 -25 216 72 225 96 c 2
 228 102 l 1
 313 102 l 1
 398 102 l 1
 395 112 l 2
 386 148 386 237 395 265 c 0
 396 269 396 277 395 282 c 0
 386 318 386 408 395 436 c 0
 396 440 396 448 395 453 c 0
 386 489 386 579 395 607 c 2
 398 614 l 1
 341 615 l 1
 283 616 l 1xf4
 281 624 l 2
 272 658 273 755 282 779 c 2xf8
282 1291 m 2xf8
 284 1297 l 1
 370 1297 l 2
 417 1297 455 1296 456 1295 c 0
 463 1283 467 1195 462 1162 c 0
 461 1158 461 1148 460 1142 c 0xf8
 459 1136 457 1130 456 1129 c 0
 455 1128 480 1126 512 1126 c 0
 543 1126 569 1125 570 1124 c 0
 577 1112 581 1024 576 991 c 0
 575 986 574 977 573 971 c 0
 572 965 570 959 569 958 c 0
 568 957 529 956 482 956 c 2
 397 957 l 1
 395 965 l 2
 386 999 386 1092 395 1119 c 2
 398 1126 l 1
 341 1127 l 1
 283 1128 l 1xf4
 281 1136 l 2
 272 1170 273 1267 282 1291 c 2xf8
EndSplineSet
EndChar

StartChar: ograve
Encoding: 242 242 5
Width: 851
VWidth: 0
Flags: W
HStem: -68 170<341.991 568> 274 170<113 170 740.963 804.453> 614 171<341.991 569 627 634.186> 956 170<455.972 576.443> 1128 169<284 397.292>
VStem: 106 188<274.125 440.646> 282 345<-66 101.955 614.156 779> 282 178<1129.05 1291> 568 173<102.135 272.998>
LayerCount: 2
Back
Fore
SplineSet
282 779 m 2xfa
 284 785 l 1
 455 785 l 2
 549 785 626 784 627 783 c 0
 635 770 639 684 633 647 c 0
 629 624 628 619 627 617 c 0xfa
 626 616 651 614 682 614 c 0
 713 614 740 613 741 612 c 0
 749 599 753 513 747 476 c 0
 743 453 742 448 741 446 c 0
 740 445 752 444 768 444 c 0
 784 444 797 442 798 441 c 0
 806 428 809 343 803 306 c 0
 799 283 799 277 798 275 c 0
 797 274 784 273 768 273 c 0
 752 273 740 272 741 271 c 0
 745 264 749 221 749 189 c 0
 749 156 745 112 741 105 c 0xf880
 740 104 713 102 682 102 c 0
 651 102 626 101 627 100 c 0
 638 82 637 -55 626 -66 c 0
 625 -67 548 -68 454 -68 c 2
 283 -67 l 1
 281 -59 l 2
 272 -25 273 68 282 95 c 2xfa
 284 102 l 1
 227 103 l 1
 170 104 l 1
 167 112 l 2
 158 146 159 238 168 265 c 2
 170 273 l 1
 142 274 l 1
 113 274 l 1
 111 282 l 2
 104 307 102 366 106 405 c 0xfc
 110 445 109 444 142 444 c 2
 170 444 l 1
 168 453 l 2
 159 489 158 583 168 608 c 2
 171 614 l 1
 227 614 l 1
 284 614 l 1
 281 624 l 2
 272 660 272 754 282 779 c 2xfa
566 607 m 2
 569 614 l 1
 455 614 l 2
 392 614 341 613 342 612 c 0
 346 605 351 562 351 530 c 0
 351 497 346 453 342 446 c 0
 341 445 329 444 313 444 c 0
 297 444 285 442 286 441 c 0
 290 434 294 392 294 360 c 0
 294 327 290 282 286 275 c 0
 285 274 297 273 313 273 c 0
 329 273 341 272 342 271 c 0
 350 258 354 172 348 135 c 0
 344 112 343 107 342 105 c 0
 341 104 392 102 455 102 c 2
 568 102 l 1
 566 112 l 2
 559 138 557 194 561 234 c 0
 565 274 564 273 597 273 c 2
 625 273 l 1
 623 282 l 2
 614 318 614 408 623 436 c 2
 625 443 l 1
 597 444 l 1
 568 445 l 1xfc80
 566 453 l 2
 557 487 557 579 566 607 c 2
282 1291 m 2xf9
 284 1297 l 1
 370 1297 l 2
 417 1297 455 1296 456 1295 c 0
 463 1283 467 1195 462 1162 c 0
 461 1158 461 1148 460 1142 c 0
 459 1136 457 1130 456 1129 c 0
 455 1128 480 1126 512 1126 c 0
 543 1126 569 1125 570 1124 c 0
 577 1112 581 1024 576 991 c 0
 575 986 574 977 573 971 c 0
 572 965 570 959 569 958 c 0
 568 957 529 956 482 956 c 2
 397 957 l 1
 395 965 l 2
 386 999 386 1092 395 1119 c 2
 398 1126 l 1
 341 1127 l 1
 283 1128 l 1
 281 1136 l 2
 272 1170 273 1267 282 1291 c 2xf9
EndSplineSet
EndChar

StartChar: lessequal
Encoding: 8804 8804 6
Width: 851
VWidth: 0
Flags: W
HStem: -67 169<171 747.443> 274 170<399 747.443> 446 166<399 453.551> 956 170<626.972 748.186>
VStem: 168 576<-65.9495 96 275.051 441> 509 232<989.77 1120>
LayerCount: 2
Back
Fore
SplineSet
168 96 m 2xf8
 171 102 l 1
 455 102 l 2
 611 102 740 101 741 100 c 0xf4
 748 88 752 0 747 -33 c 0
 746 -38 745 -47 744 -53 c 0
 743 -59 741 -65 740 -66 c 0
 739 -67 610 -68 454 -68 c 2
 170 -67 l 1
 167 -59 l 2
 158 -25 159 72 168 96 c 2xf8
509 1120 m 2
 512 1126 l 1
 626 1126 l 2
 689 1126 740 1125 741 1124 c 0
 749 1111 753 1025 747 988 c 0
 743 965 742 960 741 958 c 0
 740 957 713 956 682 956 c 0
 651 956 626 954 627 953 c 0
 631 946 635 904 635 872 c 0
 635 839 631 794 627 787 c 0
 626 786 600 785 569 785 c 0
 538 785 512 784 513 783 c 0
 517 776 522 733 522 701 c 0
 522 668 517 624 513 617 c 0
 512 616 486 614 455 614 c 0
 424 614 398 613 399 612 c 0
 403 605 408 562 408 530 c 0
 408 497 403 453 399 446 c 0
 398 445 475 444 569 444 c 0
 663 444 740 442 741 441 c 0xf4
 748 429 752 341 747 308 c 0
 746 303 745 295 744 289 c 0
 743 283 741 276 740 275 c 0
 739 274 610 274 454 274 c 2
 170 274 l 1
 167 282 l 2
 158 316 159 409 168 436 c 0
 169 440 169 448 168 453 c 0
 159 489 158 583 168 608 c 2xf8
 171 614 l 1
 227 614 l 1
 284 614 l 1
 281 624 l 2
 272 660 272 754 282 779 c 2
 284 785 l 1
 341 785 l 1
 398 785 l 1
 395 794 l 2
 386 830 386 924 396 949 c 2
 398 956 l 1
 455 956 l 1
 511 956 l 1
 509 965 l 2
 500 1001 499 1095 509 1120 c 2
EndSplineSet
EndChar

StartChar: SF020000
Encoding: 9492 9492 7
Width: 851
VWidth: 0
Flags: W
HStem: 615 170<513 853>
VStem: 395 121<787 1632>
LayerCount: 2
Back
Fore
SplineSet
396 1632 m 2
 398 1638 l 1
 455 1638 l 2
 486 1638 512 1637 513 1636 c 0
 514 1635 515 1629 516 1624 c 0
 524 1581 524 1524 516 1481 c 0
 514 1470 514 1465 516 1455 c 0
 523 1420 523 1344 516 1310 c 0
 514 1299 514 1295 516 1284 c 0
 523 1249 523 1173 516 1139 c 0
 514 1128 514 1125 516 1114 c 0
 523 1079 523 1003 516 969 c 0
 514 958 514 954 516 943 c 0
 525 903 523 802 513 787 c 0
 512 786 589 785 683 785 c 2
 853 785 l 1
 853 700 l 1
 853 614 l 1
 625 615 l 1
 397 616 l 1
 395 624 l 2
 386 658 386 750 395 777 c 0
 396 781 396 789 395 794 c 0
 386 830 386 920 395 948 c 0
 396 952 396 960 395 965 c 0
 386 1001 386 1090 395 1118 c 0
 396 1122 396 1131 395 1136 c 0
 386 1172 386 1261 395 1289 c 0
 396 1293 396 1301 395 1306 c 0
 386 1342 386 1432 395 1460 c 0
 396 1464 396 1472 395 1477 c 0
 386 1513 386 1607 396 1632 c 2
EndSplineSet
EndChar

StartChar: percent
Encoding: 37 37 8
Width: 851
VWidth: 0
Flags: W
HStem: -67 169<226 284 626.963 680.399> 102 171<511 568 740.963 804.443> 786 170<113 170 343.116 398.944> 956 170<228.963 283.292 626.963 691.186>
VStem: 106 131<786.125 952.646> 168 174<624 784.999 958.051 1120> 226 116<-67 101.996> 277 131<102.156 270.646 788.051 948> 333 132<273.141 440.646> 390 132<444.141 611.646> 447 132<614.156 782.646> 504 123<104.125 270.646 785 955.998> 566 175<-67 94 276.051 437> 566 118<989.77 1120>
LayerCount: 2
Back
Fore
SplineSet
566 437 m 2xf008
 569 444 l 1
 654 444 l 2
 701 444 740 442 741 441 c 0
 748 429 752 341 747 308 c 0
 746 304 745 295 744 289 c 0
 743 283 742 277 741 276 c 0
 740 275 752 273 768 273 c 0
 784 273 797 272 798 271 c 0
 805 259 809 171 804 138 c 0
 803 134 802 124 801 118 c 0
 800 112 799 106 798 105 c 0
 797 104 784 102 768 102 c 0
 752 102 740 101 741 100 c 0
 752 82 751 -55 740 -66 c 0
 739 -67 700 -68 653 -68 c 2
 568 -67 l 1
 566 -59 l 2
 557 -25 557 67 566 94 c 2xf008
 569 102 l 1
 540 103 l 1
 511 104 l 1
 509 112 l 2
 502 137 500 195 504 234 c 0xf010
 508 274 507 273 540 273 c 2
 568 273 l 1
 566 282 l 2
 557 318 556 412 566 437 c 2xf008
680 265 m 2
 682 273 l 1
 654 273 l 2
 638 273 626 272 627 271 c 0
 631 264 635 221 635 189 c 0
 635 156 631 112 627 105 c 0xf010
 626 104 638 102 654 102 c 2
 682 102 l 1
 680 112 l 2
 671 148 671 237 680 265 c 2
566 1120 m 2xf004
 569 1126 l 1
 626 1126 l 2
 657 1126 683 1125 684 1124 c 0
 692 1111 696 1025 690 988 c 0
 686 965 685 960 684 958 c 0xf004
 683 957 670 956 654 956 c 0
 638 956 626 954 627 953 c 0
 631 946 635 904 635 872 c 0
 635 839 631 794 627 787 c 0xf010
 626 786 613 785 597 785 c 0
 581 785 569 784 570 783 c 0
 574 776 579 733 579 701 c 0xf020
 579 668 574 624 570 617 c 0
 569 616 556 614 540 614 c 0
 524 614 512 613 513 612 c 0
 517 605 522 562 522 530 c 0xf040
 522 497 517 453 513 446 c 0
 512 445 499 444 483 444 c 0
 467 444 455 442 456 441 c 0
 460 434 465 392 465 360 c 0xf080
 465 327 460 282 456 275 c 0
 455 274 442 273 426 273 c 0
 410 273 398 272 399 271 c 0
 403 264 408 221 408 189 c 0xf1
 408 156 403 112 399 105 c 0
 398 104 385 102 369 102 c 0
 353 102 341 101 342 100 c 0
 353 82 353 -55 342 -66 c 0
 341 -67 314 -68 283 -68 c 2
 226 -67 l 1xf2
 224 -59 l 2
 217 -34 216 25 220 64 c 0
 224 104 223 102 256 102 c 2
 284 102 l 1
 281 112 l 2
 274 138 273 194 277 234 c 0xf1
 281 274 280 273 313 273 c 2
 341 273 l 1
 338 282 l 2
 331 308 329 365 333 405 c 0xf080
 337 445 336 444 369 444 c 2
 398 444 l 1
 395 453 l 2
 388 479 386 536 390 576 c 0xf040
 394 616 393 614 426 614 c 2
 455 614 l 1
 452 624 l 2
 445 650 443 706 447 746 c 0xf020
 451 786 450 785 483 785 c 2
 511 785 l 1
 509 794 l 2
 502 820 500 877 504 917 c 0xf010
 508 957 507 956 540 956 c 2
 568 956 l 1
 566 965 l 2
 557 1001 556 1095 566 1120 c 2xf004
168 1120 m 2xf4
 171 1126 l 1
 256 1126 l 2
 303 1126 341 1125 342 1124 c 0xf2
 349 1112 354 1024 349 991 c 0
 348 987 347 978 346 972 c 0
 345 966 344 959 343 958 c 0
 342 957 353 956 369 956 c 0
 385 956 398 954 399 953 c 0
 406 941 411 853 406 820 c 0
 405 816 404 807 403 801 c 0
 402 795 401 789 400 788 c 0
 399 787 385 785 369 785 c 0
 353 785 341 784 342 783 c 0xf4
 353 765 353 628 342 617 c 0xf2
 341 616 302 615 255 615 c 2
 170 616 l 1
 167 624 l 2
 158 658 159 750 168 777 c 2xf4
 170 785 l 1
 142 786 l 1
 113 786 l 1
 111 794 l 2
 104 819 102 878 106 917 c 0xf8
 110 957 109 956 142 956 c 2
 170 956 l 1
 168 965 l 2
 159 1001 158 1095 168 1120 c 2xf4
281 948 m 2
 284 956 l 1
 256 956 l 2
 240 956 228 954 229 953 c 0
 233 946 237 904 237 872 c 0xf8
 237 839 233 794 229 787 c 0
 228 786 240 785 256 785 c 2
 284 785 l 1
 281 794 l 2
 272 830 272 920 281 948 c 2
EndSplineSet
EndChar

StartChar: uni00B5
Encoding: 181 181 9
Width: 851
VWidth: 0
Flags: W
HStem: -68 170<341.982 512 683.972 804.443> 444 341<341.963 400.353 683.963 741.462>
VStem: 113 115<-237.996 101.996> 163 179<102.625 443.998> 225 177<444.001 779> 281 233<-66 96> 504 180<104.125 443.998> 566 177<444.001 779>
LayerCount: 2
Back
Fore
SplineSet
566 779 m 2xc1
 569 785 l 1
 654 785 l 2
 701 785 740 784 741 783 c 0
 742 782 743 776 744 771 c 0
 752 728 751 670 743 627 c 0
 741 616 741 612 743 602 c 0xc1
 752 562 751 461 741 446 c 0
 740 445 727 444 711 444 c 0
 695 444 683 442 684 441 c 0
 693 426 695 325 687 286 c 0
 685 275 685 271 687 260 c 0
 696 220 694 120 684 105 c 0xc2
 683 104 708 102 739 102 c 0
 770 102 797 101 798 100 c 0
 805 88 809 0 804 -33 c 0
 803 -38 802 -47 801 -53 c 0
 800 -59 798 -65 797 -66 c 0
 796 -67 743 -68 681 -68 c 2
 568 -67 l 1
 566 -59 l 2
 557 -25 557 67 566 94 c 2xc1
 569 102 l 1
 540 103 l 1
 511 104 l 1
 509 112 l 2
 500 146 500 238 509 265 c 0
 510 269 510 277 509 282 c 0
 502 308 500 365 504 405 c 0xc2
 508 445 507 444 540 444 c 2
 568 444 l 1
 566 453 l 2
 557 489 557 578 566 606 c 0
 567 610 567 619 566 624 c 0
 557 660 556 754 566 779 c 2xc1
225 779 m 2xc8
 228 785 l 1xe0
 313 785 l 2
 360 785 398 784 399 783 c 0
 400 782 402 776 403 771 c 0
 411 728 410 670 402 627 c 0
 400 616 400 612 402 602 c 0xc8
 411 562 409 461 399 446 c 0
 398 445 385 444 369 444 c 0
 353 444 341 442 342 441 c 0
 351 426 353 325 345 286 c 0
 343 275 343 271 345 260 c 0
 354 220 352 120 342 105 c 0xd0
 341 104 380 102 427 102 c 2
 512 102 l 1
 514 96 l 2
 524 69 524 -55 513 -66 c 0
 512 -67 459 -68 397 -68 c 2
 283 -67 l 1
 281 -59 l 2
 272 -25 272 67 281 94 c 2
 284 102 l 1
 256 102 l 2
 240 102 228 101 229 100 c 0
 238 85 239 -16 231 -55 c 0
 229 -66 229 -70 231 -81 c 0
 240 -122 238 -227 228 -237 c 0
 227 -238 200 -238 169 -238 c 2
 113 -238 l 1xe4
 111 -230 l 2
 102 -196 102 -103 111 -76 c 0
 112 -72 112 -64 111 -59 c 0
 104 -33 102 24 106 64 c 0
 110 104 109 102 142 102 c 2
 170 102 l 1
 168 112 l 2
 159 148 159 237 168 265 c 0
 169 269 169 277 168 282 c 0
 161 308 159 365 163 405 c 0xd0
 167 445 166 444 199 444 c 2
 227 444 l 1
 225 453 l 2
 216 489 216 578 225 606 c 0
 226 610 226 619 225 624 c 0
 216 660 215 754 225 779 c 2xc8
EndSplineSet
EndChar

StartChar: s
Encoding: 115 115 10
Width: 851
VWidth: 0
Flags: W
HStem: -68 170<228 625> 102 171<683.972 804.315> 274 170<342 625 684 691.186> 444 170<171 284 342 534.859> 614 171<342.019 748.186>
VStem: 282 459<617 779>
LayerCount: 2
Back
Fore
SplineSet
282 779 m 2
 284 785 l 1
 512 785 l 2
 637 785 740 784 741 783 c 0
 749 770 753 684 747 647 c 0
 743 624 742 619 741 617 c 0
 740 616 650 614 540 614 c 0
 430 614 341 613 342 612 c 0
 346 605 351 562 351 530 c 0
 351 497 346 453 342 446 c 0
 341 445 418 444 512 444 c 0
 606 444 683 442 684 441 c 0
 692 428 696 343 690 306 c 0
 686 283 685 277 684 275 c 0
 683 274 708 273 739 273 c 0
 770 273 797 272 798 271 c 0
 806 258 809 172 803 135 c 0
 799 112 799 107 798 105 c 0
 797 104 770 102 739 102 c 0
 708 102 683 101 684 100 c 0
 695 82 694 -55 683 -66 c 0
 682 -67 579 -68 454 -68 c 2
 226 -67 l 1
 224 -59 l 2
 215 -25 216 72 225 96 c 2
 228 102 l 1
 426 102 l 1
 625 102 l 1
 623 112 l 2
 614 148 614 237 623 265 c 2
 625 273 l 1
 454 274 l 1
 283 274 l 1
 281 282 l 2
 272 316 273 409 282 436 c 2
 284 444 l 1
 227 444 l 1
 170 445 l 1
 167 453 l 2
 158 487 159 584 168 608 c 2
 171 614 l 1
 227 614 l 1
 284 614 l 1
 281 624 l 2
 272 660 272 754 282 779 c 2
EndSplineSet
EndChar

StartChar: aacute
Encoding: 225 225 11
Width: 851
VWidth: 0
Flags: W
HStem: -68 170<341.991 569 740.963 804.511> 104 169<170 227 342 452.056> 273 171<341.991 568> 616 169<284 569 627 634.186> 957 169<398 509.399> 1126 171<569.972 690.443>
VStem: 163 188<104.125 270.646> 282 345<616.125 779> 509 175<1129.05 1291>
LayerCount: 2
Back
Fore
SplineSet
282 779 m 2xfd
 284 785 l 1
 455 785 l 2
 549 785 626 784 627 783 c 0
 635 770 639 684 633 647 c 0
 629 624 628 619 627 617 c 0xfd
 626 616 651 614 682 614 c 0
 713 614 740 613 741 612 c 0
 748 600 752 512 747 479 c 0
 746 474 745 465 744 459 c 0
 742 445 741 442 743 431 c 0
 751 396 750 320 743 286 c 0
 741 275 741 271 743 260 c 0
 752 220 751 120 741 105 c 0
 740 104 752 102 768 102 c 0
 784 102 797 101 798 100 c 0
 803 92 807 40 806 6 c 0
 805 -32 801 -62 797 -66 c 0
 796 -67 757 -68 710 -68 c 2
 625 -67 l 1
 623 -59 l 2
 614 -25 614 67 623 94 c 2
 625 102 l 1
 597 103 l 1
 568 104 l 1
 566 112 l 2
 557 146 557 237 566 265 c 2
 569 273 l 1
 455 273 l 2
 392 273 341 272 342 271 c 0
 346 264 351 221 351 189 c 0
 351 156 346 112 342 105 c 0
 341 104 392 102 455 102 c 2
 569 102 l 1
 571 96 l 2
 581 69 580 -55 569 -66 c 0
 568 -67 491 -68 397 -68 c 2
 226 -67 l 1
 224 -59 l 2
 215 -25 216 67 225 94 c 2
 227 102 l 1
 198 103 l 1
 170 104 l 1
 167 112 l 2
 160 137 159 195 163 234 c 0xfe
 167 274 166 273 199 273 c 2
 227 273 l 1
 225 282 l 2
 216 318 215 412 225 437 c 2
 228 444 l 1
 398 444 l 1
 568 444 l 1
 566 453 l 2
 557 489 557 579 566 607 c 2
 569 614 l 1
 426 615 l 1
 283 616 l 1
 281 624 l 2
 272 658 273 755 282 779 c 2xfd
509 1291 m 2xfc80
 512 1297 l 1
 597 1297 l 2
 644 1297 683 1296 684 1295 c 0
 691 1283 695 1195 690 1162 c 0
 689 1158 688 1148 687 1142 c 0
 686 1136 685 1130 684 1129 c 0
 683 1128 656 1126 625 1126 c 0
 594 1126 569 1125 570 1124 c 0
 581 1106 580 969 569 958 c 0
 568 957 529 956 482 956 c 2
 397 957 l 1
 395 965 l 2
 386 999 387 1096 396 1120 c 2
 398 1126 l 1
 455 1126 l 1
 511 1126 l 1
 509 1136 l 2
 500 1172 499 1266 509 1291 c 2xfc80
EndSplineSet
EndChar

StartChar: exclam
Encoding: 33 33 12
Width: 851
VWidth: 0
Flags: W
HStem: -67 169<398 576.443> 1106 20G<396 506.5>
VStem: 395 178<-65.9495 96 275 1120>
LayerCount: 2
Back
Fore
SplineSet
396 96 m 2
 398 102 l 1
 483 102 l 2
 530 102 569 101 570 100 c 0
 577 88 581 0 576 -33 c 0
 575 -38 574 -47 573 -53 c 0
 572 -59 570 -65 569 -66 c 0
 568 -67 529 -68 482 -68 c 2
 397 -67 l 1
 395 -59 l 2
 386 -25 387 72 396 96 c 2
396 1120 m 2
 398 1126 l 1
 483 1126 l 2
 530 1126 569 1125 570 1124 c 0
 571 1123 572 1117 573 1112 c 0
 581 1069 581 1012 573 969 c 0
 571 958 571 953 573 943 c 0
 580 908 580 832 573 798 c 0
 571 787 571 783 573 772 c 0
 580 737 580 661 573 627 c 0
 571 616 571 613 573 602 c 0
 581 563 579 462 570 447 c 0
 569 446 570 440 572 435 c 0
 582 401 579 286 569 275 c 0
 568 274 529 274 482 274 c 2
 397 274 l 1
 395 282 l 2
 386 316 386 409 395 436 c 0
 396 440 396 448 395 453 c 0
 386 489 386 578 395 606 c 0
 396 610 396 619 395 624 c 0
 386 660 386 749 395 777 c 0
 396 781 396 789 395 794 c 0
 386 830 386 920 395 948 c 0
 396 952 396 960 395 965 c 0
 386 1001 386 1095 396 1120 c 2
EndSplineSet
EndChar

StartChar: uni2594
Encoding: 9620 9620 13
Width: 851
VWidth: 0
Flags: W
HStem: 1468 170<0 853>
LayerCount: 2
Back
Fore
SplineSet
0 1553 m 1
 0 1638 l 1
 427 1638 l 1
 853 1638 l 1
 853 1553 l 1
 853 1468 l 1
 427 1468 l 1
 0 1468 l 1
 0 1553 l 1
EndSplineSet
EndChar

StartChar: zero
Encoding: 48 48 14
Width: 851
VWidth: 0
Flags: W
HStem: -67 169<341 569> 957 169<341 576.443>
VStem: 163 180<274.125 784.998> 225 120<104 273 785.097 949> 339 230<-66 96 958.051 1120> 566 120<104 264 819.769 949>
LayerCount: 2
Back
Fore
SplineSet
339 96 m 2xc8
 341 102 l 1
 455 102 l 1
 569 102 l 1
 571 96 l 2
 581 69 580 -55 569 -66 c 0
 568 -67 516 -68 454 -68 c 2
 340 -67 l 1
 338 -59 l 2
 329 -25 330 72 339 96 c 2xc8
566 949 m 2xc4
 569 956 l 1xc8
 626 956 l 2
 657 956 683 954 684 953 c 0
 692 940 696 855 690 818 c 0
 686 795 685 789 684 787 c 0
 683 786 695 785 711 785 c 0
 727 785 740 784 741 783 c 0
 748 771 752 683 747 650 c 0
 746 645 745 636 744 630 c 0
 742 616 741 613 743 602 c 0
 751 567 750 491 743 457 c 0
 741 446 741 442 743 431 c 0
 752 391 751 290 741 275 c 0
 740 274 726 273 711 273 c 2
 683 273 l 1
 686 264 l 2
 696 230 693 116 683 105 c 0
 682 104 655 103 624 103 c 2
 568 104 l 1
 566 112 l 2
 557 146 557 238 566 265 c 0
 567 269 567 277 566 282 c 0
 557 318 557 408 566 436 c 0
 567 440 567 448 566 453 c 0
 557 489 557 578 566 606 c 0
 567 610 567 619 566 624 c 0
 557 660 557 749 566 777 c 0
 567 781 567 789 566 794 c 0
 557 830 556 924 566 949 c 2xc4
225 949 m 2xd0
 228 956 l 1
 284 956 l 1
 341 956 l 1
 344 949 l 2
 353 927 353 835 345 798 c 0xd0
 344 793 343 787 343 785 c 0xe0
 343 783 344 777 345 772 c 0
 352 737 352 661 345 627 c 0
 343 616 343 613 345 602 c 0
 352 567 352 491 345 457 c 0
 343 446 343 442 345 431 c 0xd0
 353 392 352 291 343 276 c 0xe0
 342 275 342 269 344 264 c 0
 354 230 353 116 342 105 c 0
 341 104 314 103 283 103 c 2
 226 104 l 1
 224 112 l 2
 215 146 216 238 225 265 c 2xd0
 227 273 l 1
 198 274 l 1
 170 274 l 1
 167 282 l 2
 158 316 159 409 168 436 c 0
 169 440 169 448 168 453 c 0
 159 489 159 578 168 606 c 0
 169 610 169 619 168 624 c 0
 161 650 159 706 163 746 c 0xe0
 167 786 166 785 199 785 c 2
 227 785 l 1
 225 794 l 2
 216 830 215 924 225 949 c 2xd0
339 1120 m 2xc8
 341 1126 l 1
 455 1126 l 2
 518 1126 569 1125 570 1124 c 0
 577 1112 581 1024 576 991 c 0
 575 986 574 977 573 971 c 0
 572 965 570 959 569 958 c 0
 568 957 516 956 454 956 c 2
 340 957 l 1
 338 965 l 2
 329 999 330 1096 339 1120 c 2xc8
EndSplineSet
EndChar

StartChar: G
Encoding: 71 71 15
Width: 851
VWidth: 0
Flags: W
HStem: -68 170<342.001 625> 444 170<512 625> 786 170<683.972 805.186> 956 170<342.001 625 684 691.186>
VStem: 106 180<274.125 784.998> 282 402<-66 101.955 956.141 1120> 511 290<445 608> 623 177<102.191 444 787.096 794>
LayerCount: 2
Back
Fore
SplineSet
282 1120 m 2xf4
 284 1126 l 1
 483 1126 l 2
 593 1126 683 1125 684 1124 c 0
 692 1111 696 1025 690 988 c 0
 686 965 685 960 684 958 c 0xf4
 683 957 708 956 739 956 c 0
 770 956 797 954 798 953 c 0
 806 940 810 855 804 818 c 0
 800 794 799 789 797 787 c 0
 796 786 757 786 710 786 c 2
 625 786 l 1
 623 794 l 2
 614 828 614 921 623 948 c 2
 625 956 l 1
 483 956 l 2
 405 956 341 954 342 953 c 0
 346 946 351 904 351 872 c 0
 351 839 346 794 342 787 c 0
 341 786 329 785 313 785 c 0
 297 785 285 784 286 783 c 0
 295 768 296 666 288 627 c 0
 286 616 286 613 288 602 c 0
 295 567 295 491 288 457 c 0
 286 446 286 442 288 431 c 0
 297 391 296 290 286 275 c 0
 285 274 297 273 313 273 c 0
 329 273 341 272 342 271 c 0
 350 258 354 174 348 135 c 0
 345 115 344 108 342 105 c 0
 341 104 405 102 483 102 c 2
 625 102 l 1
 623 112 l 2
 614 148 614 237 623 265 c 0
 624 269 624 277 623 282 c 0
 614 318 614 408 623 436 c 2xf9
 625 444 l 1
 568 444 l 1
 511 445 l 1
 509 453 l 2
 500 487 500 584 509 608 c 2
 512 614 l 1
 654 614 l 2
 732 614 797 613 798 612 c 0
 799 611 800 605 801 600 c 0xf2
 809 557 808 500 800 457 c 0
 798 446 798 441 800 431 c 0
 807 396 807 320 800 286 c 0
 798 275 798 271 800 260 c 0xf1
 809 220 808 120 798 105 c 0
 797 104 770 102 739 102 c 0
 708 102 683 101 684 100 c 0
 695 82 694 -55 683 -66 c 0
 682 -67 591 -68 482 -68 c 2
 283 -67 l 1
 281 -59 l 2
 272 -25 273 68 282 95 c 2xf4
 284 102 l 1
 227 103 l 1
 170 104 l 1
 167 112 l 2
 158 146 159 238 168 265 c 2
 170 273 l 1
 142 274 l 1
 113 274 l 1
 111 282 l 2
 102 316 102 409 111 436 c 0
 112 440 112 448 111 453 c 0
 102 489 102 578 111 606 c 0
 112 610 112 619 111 624 c 0
 104 650 102 706 106 746 c 0xf8
 110 786 109 785 142 785 c 2
 170 785 l 1
 168 794 l 2
 159 830 158 924 168 949 c 2
 171 956 l 1
 227 956 l 1
 284 956 l 1
 281 965 l 2
 272 1001 272 1095 282 1120 c 2xf4
EndSplineSet
EndChar

StartChar: o
Encoding: 111 111 16
Width: 851
VWidth: 0
Flags: W
HStem: -68 170<341.991 568> 274 170<113 170 740.963 804.453> 614 171<341.991 569 627 634.186>
VStem: 106 188<274.125 440.646> 282 345<-66 101.955 614.156 779> 568 173<102.135 272.998>
LayerCount: 2
Back
Fore
SplineSet
282 779 m 2xe8
 284 785 l 1
 455 785 l 2
 549 785 626 784 627 783 c 0
 635 770 639 684 633 647 c 0
 629 624 628 619 627 617 c 0xe8
 626 616 651 614 682 614 c 0
 713 614 740 613 741 612 c 0
 749 599 753 513 747 476 c 0
 743 453 742 448 741 446 c 0
 740 445 752 444 768 444 c 0
 784 444 797 442 798 441 c 0
 806 428 809 343 803 306 c 0
 799 283 799 277 798 275 c 0
 797 274 784 273 768 273 c 0
 752 273 740 272 741 271 c 0
 745 264 749 221 749 189 c 0
 749 156 745 112 741 105 c 0xe4
 740 104 713 102 682 102 c 0
 651 102 626 101 627 100 c 0
 638 82 637 -55 626 -66 c 0
 625 -67 548 -68 454 -68 c 2
 283 -67 l 1
 281 -59 l 2
 272 -25 273 68 282 95 c 2xe8
 284 102 l 1
 227 103 l 1
 170 104 l 1
 167 112 l 2
 158 146 159 238 168 265 c 2
 170 273 l 1
 142 274 l 1
 113 274 l 1
 111 282 l 2
 104 307 102 366 106 405 c 0xf0
 110 445 109 444 142 444 c 2
 170 444 l 1
 168 453 l 2
 159 489 158 583 168 608 c 2
 171 614 l 1
 227 614 l 1
 284 614 l 1
 281 624 l 2
 272 660 272 754 282 779 c 2xe8
566 607 m 2
 569 614 l 1
 455 614 l 2
 392 614 341 613 342 612 c 0
 346 605 351 562 351 530 c 0
 351 497 346 453 342 446 c 0
 341 445 329 444 313 444 c 0
 297 444 285 442 286 441 c 0
 290 434 294 392 294 360 c 0
 294 327 290 282 286 275 c 0
 285 274 297 273 313 273 c 0
 329 273 341 272 342 271 c 0
 350 258 354 172 348 135 c 0
 344 112 343 107 342 105 c 0
 341 104 392 102 455 102 c 2
 568 102 l 1
 566 112 l 2
 559 138 557 194 561 234 c 0
 565 274 564 273 597 273 c 2
 625 273 l 1
 623 282 l 2
 614 318 614 408 623 436 c 2
 625 443 l 1
 597 444 l 1
 568 445 l 1xf4
 566 453 l 2
 557 487 557 579 566 607 c 2
EndSplineSet
EndChar

StartChar: hyphen
Encoding: 45 45 17
Width: 851
VWidth: 0
Flags: W
HStem: 445 169<228 747.443>
VStem: 224 523
LayerCount: 2
Back
Fore
SplineSet
225 608 m 2
 228 614 l 1
 483 614 l 2
 624 614 740 613 741 612 c 0
 748 600 752 512 747 479 c 0
 746 474 745 465 744 459 c 0
 743 453 741 447 740 446 c 0
 739 445 623 444 482 444 c 2
 226 445 l 1
 224 453 l 2
 215 487 216 584 225 608 c 2
EndSplineSet
EndChar

StartChar: asciitilde
Encoding: 126 126 18
Width: 851
VWidth: 0
Flags: W
HStem: 785 341<285.972 398 740.963 798.462>
VStem: 113 172<445 784.943> 225 231<989.77 1120> 623 178<787.766 1120>
LayerCount: 2
Back
Fore
SplineSet
225 1120 m 2xb0
 228 1126 l 1
 341 1126 l 2
 404 1126 455 1125 456 1124 c 0
 464 1111 468 1025 462 988 c 0
 458 965 457 960 456 958 c 0xb0
 455 957 467 956 483 956 c 0
 499 956 512 954 513 953 c 0
 521 940 525 855 519 818 c 0
 515 795 514 789 513 787 c 0
 512 786 537 785 568 785 c 2
 625 785 l 1
 623 794 l 2
 614 830 614 920 623 948 c 0
 624 952 624 960 623 965 c 0
 614 1001 613 1095 623 1120 c 2
 626 1126 l 1
 711 1126 l 2
 758 1126 797 1125 798 1124 c 0
 799 1123 800 1117 801 1112 c 0
 809 1069 808 1012 800 969 c 0
 798 958 798 953 800 943 c 0
 809 903 808 802 798 787 c 0
 797 786 784 785 768 785 c 0
 752 785 740 784 741 783 c 0
 745 776 749 733 749 701 c 0
 749 668 745 624 741 617 c 0
 740 616 727 614 711 614 c 0
 695 614 683 613 684 612 c 0
 695 594 694 457 683 446 c 0
 682 445 629 444 567 444 c 2
 454 445 l 1
 452 453 l 2
 443 487 443 579 452 606 c 2
 455 614 l 1
 426 615 l 1
 397 616 l 1
 395 624 l 2
 386 658 386 749 395 777 c 2
 398 785 l 1
 341 785 l 2
 310 785 285 784 286 783 c 0
 295 768 296 666 288 627 c 0
 286 616 286 613 288 602 c 0
 297 561 295 456 285 446 c 0
 284 445 245 444 198 444 c 2
 113 445 l 1xd0
 111 453 l 2
 102 487 102 579 111 606 c 0
 112 610 112 619 111 624 c 0
 104 650 102 706 106 746 c 0
 110 786 109 785 142 785 c 2
 170 785 l 1
 168 794 l 2
 161 820 159 877 163 917 c 0
 167 957 166 956 199 956 c 2
 227 956 l 1
 225 965 l 2
 216 1001 215 1095 225 1120 c 2xb0
EndSplineSet
EndChar

StartChar: e
Encoding: 101 101 19
Width: 851
VWidth: 0
Flags: W
HStem: -68 170<342 748.186> 105 166<342 563.157> 274 170<113 170 342.029 625> 446 166<342 479.354> 614 171<342.001 625 684 691.186>
VStem: 282 402<614.156 779>
LayerCount: 2
Back
Fore
SplineSet
282 779 m 2
 284 785 l 1
 483 785 l 2
 593 785 683 784 684 783 c 0
 692 770 696 684 690 647 c 0
 686 624 685 619 684 617 c 0
 683 616 708 614 739 614 c 0
 770 614 797 613 798 612 c 0
 799 611 800 605 801 600 c 0
 809 557 808 500 800 457 c 0
 798 446 798 441 800 431 c 0
 809 391 808 290 798 275 c 0
 797 274 694 273 569 273 c 0
 444 273 341 272 342 271 c 0
 346 264 351 221 351 189 c 0
 351 156 346 112 342 105 c 0
 341 104 430 102 540 102 c 0
 650 102 740 101 741 100 c 0
 749 87 753 1 747 -36 c 0
 743 -60 742 -64 740 -66 c 0
 739 -67 636 -68 511 -68 c 2
 283 -67 l 1
 281 -59 l 2
 272 -25 273 68 282 95 c 2
 284 102 l 1
 227 103 l 1
 170 104 l 1
 167 112 l 2
 158 146 159 238 168 265 c 2
 170 273 l 1
 142 274 l 1
 113 274 l 1
 111 282 l 2
 104 307 102 366 106 405 c 0
 110 445 109 444 142 444 c 2
 170 444 l 1
 168 453 l 2
 159 489 158 583 168 608 c 2
 171 614 l 1
 227 614 l 1
 284 614 l 1
 281 624 l 2
 272 660 272 754 282 779 c 2
623 606 m 2
 625 614 l 1
 483 614 l 2
 405 614 341 613 342 612 c 0
 346 605 351 562 351 530 c 0
 351 497 346 453 342 446 c 0
 341 445 405 444 483 444 c 2
 625 444 l 1
 623 453 l 2
 614 489 614 578 623 606 c 2
EndSplineSet
EndChar

StartChar: SF070000
Encoding: 9524 9524 20
Width: 851
VWidth: 0
Flags: W
HStem: 614 171<0 341 456 853>
VStem: 338 121<787 1632>
LayerCount: 2
Back
Fore
SplineSet
339 1632 m 2
 341 1638 l 1
 398 1638 l 2
 429 1638 455 1637 456 1636 c 0
 463 1624 467 1536 462 1503 c 0
 461 1498 460 1489 459 1483 c 0
 457 1469 457 1466 459 1455 c 0
 467 1420 466 1344 459 1310 c 0
 457 1299 457 1295 459 1284 c 0
 466 1249 466 1173 459 1139 c 0
 457 1128 457 1125 459 1114 c 0
 466 1079 466 1003 459 969 c 0
 457 958 457 954 459 943 c 0
 468 903 466 802 456 787 c 0
 455 786 544 785 654 785 c 2
 853 785 l 1
 853 700 l 1
 853 614 l 1
 427 614 l 1
 0 614 l 1
 0 700 l 1
 0 785 l 1
 170 785 l 1
 341 785 l 1
 338 794 l 2
 329 830 329 920 338 948 c 0
 339 952 340 960 339 965 c 0
 330 1001 329 1090 338 1118 c 0
 339 1122 340 1131 339 1136 c 0
 330 1172 329 1261 338 1289 c 0
 339 1293 340 1301 339 1306 c 0
 330 1342 329 1432 338 1460 c 0
 339 1464 340 1472 339 1477 c 0
 330 1513 329 1607 339 1632 c 2
EndSplineSet
EndChar

StartChar: idieresis
Encoding: 239 239 21
Width: 851
VWidth: 0
Flags: W
HStem: -67 169<228 398 569.982 748.186> 616 169<284 398> 957 169<228 405.811 512 690.443>
VStem: 225 174<992.587 1120> 283 290<616 779> 509 175<992.587 1120>
LayerCount: 2
Back
Fore
SplineSet
282 779 m 2xe8
 284 785 l 1
 427 785 l 2
 505 785 569 784 570 783 c 0
 571 782 572 776 573 771 c 0
 581 728 581 670 573 627 c 0
 571 616 571 612 573 602 c 0
 580 567 580 491 573 457 c 0
 571 446 571 442 573 431 c 0
 580 396 580 320 573 286 c 0
 571 275 571 271 573 260 c 0xe8
 582 220 580 120 570 105 c 0
 569 104 607 102 654 102 c 0
 701 102 740 101 741 100 c 0
 749 87 753 1 747 -36 c 0
 743 -60 742 -64 740 -66 c 0
 739 -67 623 -68 482 -68 c 2
 226 -67 l 1
 224 -59 l 2
 215 -25 216 72 225 96 c 2xf0
 228 102 l 1
 313 102 l 1
 398 102 l 1
 395 112 l 2
 386 148 386 237 395 265 c 0
 396 269 396 277 395 282 c 0
 386 318 386 408 395 436 c 0
 396 440 396 448 395 453 c 0
 386 489 386 579 395 607 c 2
 398 614 l 1
 341 615 l 1
 283 616 l 1
 281 624 l 2
 272 658 273 755 282 779 c 2xe8
509 1120 m 2xe4
 512 1126 l 1
 597 1126 l 2
 644 1126 683 1125 684 1124 c 0
 691 1112 695 1024 690 991 c 0
 689 986 688 977 687 971 c 0
 686 965 684 959 683 958 c 0
 682 957 643 956 596 956 c 2
 511 957 l 1
 509 965 l 2
 500 999 500 1096 509 1120 c 2xe4
225 1120 m 2xf0
 228 1126 l 1
 313 1126 l 2
 360 1126 398 1125 399 1124 c 0
 406 1112 411 1024 406 991 c 0
 405 986 403 977 402 971 c 0
 401 965 400 959 399 958 c 0
 398 957 358 956 311 956 c 2
 226 957 l 1
 224 965 l 2
 215 999 216 1096 225 1120 c 2xf0
EndSplineSet
EndChar

StartChar: Egrave
Encoding: 200 200 22
Width: 851
VWidth: 0
Flags: W
HStem: -68 170<399 747.443> 444 173<399 747.996> 956 170<399.01 748.186> 1298 170<512.972 633.443> 1468 170<341 454.292>
VStem: 225 516<-65.9495 100 989.77 1120> 339 174<1469.12 1632>
LayerCount: 2
Back
Fore
SplineSet
225 1120 m 2xfc
 228 1126 l 1
 483 1126 l 2
 624 1126 740 1125 741 1124 c 0
 749 1111 753 1025 747 988 c 0
 743 965 742 960 741 958 c 0
 740 957 663 956 569 956 c 0
 475 956 398 954 399 953 c 0
 408 938 410 837 402 798 c 0
 400 787 400 783 402 772 c 0
 411 732 409 632 399 617 c 0
 398 616 475 614 569 614 c 0
 663 614 740 613 741 612 c 0
 749 599 753 513 747 476 c 0
 743 453 742 448 741 446 c 0
 740 445 663 444 569 444 c 2
 399 444 l 1
 401 435 l 2
 410 403 410 292 400 276 c 0
 399 275 399 269 401 264 c 0
 410 231 409 121 399 105 c 0
 398 104 475 102 569 102 c 0
 663 102 740 101 741 100 c 0
 748 88 752 0 747 -33 c 0
 746 -38 745 -47 744 -53 c 0
 743 -59 741 -65 740 -66 c 0
 739 -67 623 -68 482 -68 c 2
 226 -67 l 1
 224 -59 l 2
 215 -25 216 67 225 94 c 0
 226 98 226 107 225 112 c 0
 216 148 216 237 225 265 c 0
 226 269 226 277 225 282 c 0
 216 318 216 408 225 436 c 0
 226 440 226 448 225 453 c 0
 216 489 216 578 225 606 c 0
 226 610 226 619 225 624 c 0
 216 660 216 749 225 777 c 0
 226 781 226 789 225 794 c 0
 216 830 216 920 225 948 c 0
 226 952 226 960 225 965 c 0
 216 1001 215 1095 225 1120 c 2xfc
339 1632 m 2xfa
 341 1638 l 1
 427 1638 l 2
 474 1638 512 1637 513 1636 c 0
 520 1624 524 1536 519 1503 c 0
 518 1499 517 1490 516 1484 c 0
 515 1478 514 1471 513 1470 c 0
 512 1469 537 1468 569 1468 c 0
 600 1468 626 1466 627 1465 c 0
 634 1453 638 1365 633 1332 c 0
 632 1327 631 1319 630 1313 c 0
 629 1307 627 1300 626 1299 c 0
 625 1298 586 1298 539 1298 c 2
 454 1298 l 1
 452 1306 l 2
 443 1340 443 1433 452 1460 c 2
 455 1468 l 1
 398 1468 l 1
 340 1469 l 1
 338 1477 l 2
 329 1511 330 1608 339 1632 c 2xfa
EndSplineSet
EndChar

StartChar: egrave
Encoding: 232 232 23
Width: 851
VWidth: 0
Flags: W
HStem: -68 170<342 748.186> 105 166<342 563.157> 274 170<113 170 342.029 625> 446 166<342 479.354> 614 171<342.001 625 684 691.186> 956 170<455.972 576.443> 1128 169<284 397.292>
VStem: 282 402<614.156 779> 282 178<1129.05 1291>
LayerCount: 2
Back
Fore
SplineSet
282 779 m 2xff
 284 785 l 1
 483 785 l 2
 593 785 683 784 684 783 c 0
 692 770 696 684 690 647 c 0
 686 624 685 619 684 617 c 0xff
 683 616 708 614 739 614 c 0
 770 614 797 613 798 612 c 0
 799 611 800 605 801 600 c 0
 809 557 808 500 800 457 c 0
 798 446 798 441 800 431 c 0
 809 391 808 290 798 275 c 0
 797 274 694 273 569 273 c 0
 444 273 341 272 342 271 c 0
 346 264 351 221 351 189 c 0
 351 156 346 112 342 105 c 0
 341 104 430 102 540 102 c 0
 650 102 740 101 741 100 c 0
 749 87 753 1 747 -36 c 0
 743 -60 742 -64 740 -66 c 0
 739 -67 636 -68 511 -68 c 2
 283 -67 l 1
 281 -59 l 2
 272 -25 273 68 282 95 c 2xfe80
 284 102 l 1
 227 103 l 1
 170 104 l 1
 167 112 l 2
 158 146 159 238 168 265 c 2
 170 273 l 1
 142 274 l 1
 113 274 l 1
 111 282 l 2
 104 307 102 366 106 405 c 0
 110 445 109 444 142 444 c 2
 170 444 l 1
 168 453 l 2
 159 489 158 583 168 608 c 2
 171 614 l 1
 227 614 l 1
 284 614 l 1
 281 624 l 2
 272 660 272 754 282 779 c 2xff
623 606 m 2
 625 614 l 1
 483 614 l 2
 405 614 341 613 342 612 c 0
 346 605 351 562 351 530 c 0
 351 497 346 453 342 446 c 0
 341 445 405 444 483 444 c 2
 625 444 l 1
 623 453 l 2
 614 489 614 578 623 606 c 2
282 1291 m 2xfe80
 284 1297 l 1
 370 1297 l 2
 417 1297 455 1296 456 1295 c 0
 463 1283 467 1195 462 1162 c 0
 461 1158 461 1148 460 1142 c 0
 459 1136 457 1130 456 1129 c 0
 455 1128 480 1126 512 1126 c 0
 543 1126 569 1125 570 1124 c 0
 577 1112 581 1024 576 991 c 0
 575 986 574 977 573 971 c 0
 572 965 570 959 569 958 c 0
 568 957 529 956 482 956 c 2
 397 957 l 1
 395 965 l 2
 386 999 386 1092 395 1119 c 2
 398 1126 l 1
 341 1127 l 1
 283 1128 l 1
 281 1136 l 2
 272 1170 273 1267 282 1291 c 2xfe80
EndSplineSet
EndChar

StartChar: x
Encoding: 120 120 24
Width: 851
VWidth: 0
Flags: W
HStem: -68 341<228 340.742 569.972 682.381> -67 169<170 227 683.963 748.186> 273 171<398.973 511> 444 341<227 340.766 569.972 683.381> 614 171<171 227 683.963 748.186>
VStem: 167 175<-59 101.996 648.77 779> 504 188<444.281 611.646> 568 179<-65.9047 -59 648.77 779>
LayerCount: 2
Back
Fore
SplineSet
168 779 m 2xad
 171 785 l 1xad
 256 785 l 2x25
 303 785 341 784 342 783 c 0
 350 770 354 684 348 647 c 0
 344 624 343 619 342 617 c 0
 341 616 353 614 369 614 c 0
 385 614 398 613 399 612 c 0
 407 599 411 513 405 476 c 0
 401 453 400 448 399 446 c 0
 398 445 424 444 455 444 c 2
 511 444 l 1
 509 453 l 2
 502 479 500 536 504 576 c 0x2e
 508 616 507 614 540 614 c 2
 568 614 l 1
 566 624 l 2
 557 660 556 754 566 779 c 2
 569 785 l 1x2d
 654 785 l 2x25
 701 785 740 784 741 783 c 0
 749 770 753 684 747 647 c 0
 743 624 742 619 741 617 c 0
 740 616 727 614 711 614 c 0x2d
 695 614 683 613 684 612 c 0
 688 605 692 562 692 530 c 0
 692 497 688 453 684 446 c 0
 683 445 656 444 625 444 c 0
 594 444 569 442 570 441 c 0
 574 434 579 392 579 360 c 0
 579 327 574 282 570 275 c 0
 569 274 594 273 625 273 c 0xa6
 656 273 683 272 684 271 c 0
 692 258 696 172 690 135 c 0
 686 112 685 107 684 105 c 0
 683 104 695 102 711 102 c 0x66
 727 102 740 101 741 100 c 0
 749 87 753 1 747 -36 c 0
 743 -60 742 -64 740 -66 c 0
 739 -67 700 -68 653 -68 c 2xa5
 568 -67 l 1
 566 -59 l 2
 557 -25 557 67 566 94 c 2
 569 102 l 1
 540 103 l 1
 511 104 l 1
 509 112 l 2
 500 146 500 237 509 265 c 2
 512 273 l 1
 455 273 l 2
 424 273 398 272 399 271 c 0
 403 264 408 221 408 189 c 0
 408 156 403 112 399 105 c 0
 398 104 385 102 369 102 c 0x65
 353 102 341 101 342 100 c 0
 353 82 353 -55 342 -66 c 0
 341 -67 302 -68 255 -68 c 2xa5
 170 -67 l 1
 167 -59 l 2
 160 -34 159 25 163 64 c 0
 167 104 166 102 199 102 c 2
 227 102 l 1x65
 225 112 l 2
 216 148 215 242 225 267 c 2
 228 273 l 1
 284 273 l 1
 341 273 l 1
 338 282 l 2
 329 318 329 408 338 436 c 2
 341 444 l 1
 284 444 l 1
 226 445 l 1
 224 453 l 2
 215 487 216 579 225 606 c 2
 227 614 l 1
 198 615 l 1
 170 616 l 1
 167 624 l 2
 158 658 159 755 168 779 c 2xad
EndSplineSet
EndChar

StartChar: d
Encoding: 100 100 25
Width: 851
VWidth: 0
Flags: W
HStem: -68 170<342.989 569> 104 169<568 625> 274 170<113 170> 444 170<342 348.927 568 625> 614 171<341.991 577.186> 1106 20G<623 734.5>
VStem: 106 188<274.125 440.646> 282 288<-66 96 614.938 779> 623 177<-67 102 273 443 614 1120>
LayerCount: 2
Back
Fore
SplineSet
282 779 m 2xfd80
 284 785 l 1
 427 785 l 2
 505 785 569 784 570 783 c 0
 578 770 582 684 576 647 c 0
 572 624 571 619 570 617 c 0xfd80
 569 616 518 614 455 614 c 0
 392 614 341 613 342 612 c 0
 346 605 351 562 351 530 c 0
 351 497 346 453 342 446 c 0
 341 445 329 444 313 444 c 0
 297 444 285 442 286 441 c 0
 290 434 294 392 294 360 c 0xfe80
 294 327 290 282 286 275 c 0
 285 274 297 273 313 273 c 0
 329 273 341 272 342 271 c 0
 349 259 354 171 349 138 c 0
 348 134 347 124 346 118 c 0
 345 112 344 106 343 105 c 0
 342 104 390 102 455 102 c 2
 569 102 l 1
 571 96 l 2
 581 69 580 -55 569 -66 c 0
 568 -67 503 -68 425 -68 c 2
 283 -67 l 1
 281 -59 l 2
 272 -25 273 68 282 95 c 2xfd80
 284 102 l 1
 227 103 l 1
 170 104 l 1
 167 112 l 2
 158 146 159 238 168 265 c 2
 170 273 l 1
 142 274 l 1
 113 274 l 1
 111 282 l 2
 104 307 102 366 106 405 c 0xfe80
 110 445 109 444 142 444 c 2
 170 444 l 1
 168 453 l 2
 159 489 158 583 168 608 c 2
 171 614 l 1
 227 614 l 1
 284 614 l 1
 281 624 l 2
 272 660 272 754 282 779 c 2xfd80
623 1120 m 2
 626 1126 l 1
 711 1126 l 2
 758 1126 797 1125 798 1124 c 0
 799 1123 800 1117 801 1112 c 0
 809 1069 808 1012 800 969 c 0
 798 958 798 953 800 943 c 0
 807 908 807 832 800 798 c 0
 798 787 798 783 800 772 c 0
 807 737 807 661 800 627 c 0
 798 616 798 613 800 602 c 0
 808 563 807 462 798 447 c 0
 797 446 797 440 799 435 c 0
 808 403 808 292 798 276 c 0
 797 275 797 269 799 264 c 0
 808 232 808 121 798 105 c 0
 797 104 797 99 799 94 c 0
 809 60 808 -55 797 -66 c 0
 796 -67 757 -68 710 -68 c 2
 625 -67 l 1
 623 -59 l 2
 614 -25 614 67 623 94 c 2
 625 102 l 1
 597 103 l 1
 568 104 l 1
 566 112 l 2
 559 137 557 195 561 234 c 0
 565 274 564 273 597 273 c 2
 625 273 l 1
 623 282 l 2
 614 318 614 408 623 436 c 2
 625 443 l 1
 597 444 l 1
 568 445 l 1
 566 453 l 2
 559 478 557 537 561 576 c 0
 565 616 564 614 597 614 c 2
 625 614 l 1
 623 624 l 2
 614 660 614 749 623 777 c 0
 624 781 624 789 623 794 c 0
 614 830 614 920 623 948 c 0
 624 952 624 960 623 965 c 0
 614 1001 613 1095 623 1120 c 2
EndSplineSet
EndChar

StartChar: asciicircum
Encoding: 94 94 26
Width: 851
VWidth: 0
Flags: W
HStem: 616 169<226 284 683.963 748.186> 956 170<455.963 512 627 634.186>
VStem: 226 173<616 784.998> 277 188<785.141 952.646> 339 288<956.141 1120>
LayerCount: 2
Back
Fore
SplineSet
339 1120 m 2xc8
 341 1126 l 1
 483 1126 l 2
 561 1126 626 1125 627 1124 c 0
 635 1111 639 1025 633 988 c 0
 629 965 628 960 627 958 c 0xc8
 626 957 638 956 654 956 c 0
 670 956 683 954 684 953 c 0
 692 940 696 855 690 818 c 0
 686 795 685 789 684 787 c 0
 683 786 695 785 711 785 c 0
 727 785 740 784 741 783 c 0
 749 770 753 684 747 647 c 0
 743 623 742 619 740 617 c 0
 739 616 700 615 653 615 c 2
 568 616 l 1
 566 624 l 2
 557 658 557 750 566 777 c 2
 569 785 l 1
 540 786 l 1
 511 786 l 1
 509 794 l 2
 500 828 500 920 509 948 c 2
 512 956 l 1
 483 956 l 2
 467 956 455 954 456 953 c 0
 460 946 465 904 465 872 c 0xd0
 465 839 460 794 456 787 c 0
 455 786 442 785 426 785 c 0
 410 785 398 784 399 783 c 0
 410 765 410 628 399 617 c 0
 398 616 358 615 311 615 c 2
 226 616 l 1xe0
 224 624 l 2
 217 649 216 707 220 746 c 0
 224 786 223 785 256 785 c 2
 284 785 l 1
 281 794 l 2
 274 820 273 877 277 917 c 0xd0
 281 957 280 956 313 956 c 2
 341 956 l 1
 338 965 l 2
 329 1001 329 1095 339 1120 c 2xc8
EndSplineSet
EndChar

StartChar: z
Encoding: 122 122 27
Width: 851
VWidth: 0
Flags: W
HStem: -68 170<342 747.443> -67 340<171 341> 274 170<341 512> 444 341<512 682.925> 614 171<171 512 683.963 747.443>
VStem: 168 176<105 267> 338 176<275 443.891>
LayerCount: 2
Back
Fore
SplineSet
168 267 m 2x64
 171 273 l 1
 256 273 l 1
 341 273 l 1x64
 344 267 l 2
 354 241 352 121 342 105 c 0
 341 104 430 102 540 102 c 0
 650 102 740 101 741 100 c 0
 748 88 752 0 747 -33 c 0
 746 -38 745 -47 744 -53 c 0
 743 -59 741 -65 740 -66 c 0
 739 -67 610 -68 454 -68 c 2xa4
 170 -67 l 1
 167 -59 l 2
 158 -25 159 67 168 94 c 0
 169 98 169 107 168 112 c 0
 159 148 158 242 168 267 c 2x64
339 437 m 2
 341 444 l 1
 427 444 l 1
 512 444 l 1
 514 437 l 2
 524 410 524 286 513 275 c 0
 512 274 472 274 425 274 c 2
 340 274 l 1
 338 282 l 2x22
 329 316 330 413 339 437 c 2
168 779 m 2x2c
 171 785 l 1
 455 785 l 2
 611 785 740 784 741 783 c 0
 748 771 752 683 747 650 c 0
 746 646 745 636 744 630 c 0
 743 624 742 618 741 617 c 0
 740 616 727 614 711 614 c 0
 695 614 683 613 684 612 c 0
 695 594 694 457 683 446 c 0
 682 445 643 444 596 444 c 2
 511 445 l 1
 509 453 l 2
 500 487 500 580 509 607 c 2
 512 614 l 1
 341 615 l 1
 170 616 l 1
 167 624 l 2
 158 658 159 755 168 779 c 2x2c
EndSplineSet
EndChar

StartChar: plus
Encoding: 43 43 28
Width: 851
VWidth: 0
Flags: W
HStem: 444 170<171 398 569.99 804.453>
VStem: 395 178<617.765 952.949>
LayerCount: 2
Back
Fore
SplineSet
396 949 m 2
 398 956 l 1
 483 956 l 2
 530 956 569 954 570 953 c 0
 571 952 572 946 573 941 c 0
 581 898 581 841 573 798 c 0
 571 787 571 782 573 772 c 0
 582 732 580 632 570 617 c 0
 569 616 619 614 682 614 c 0
 745 614 797 613 798 612 c 0
 806 599 809 513 803 476 c 0
 799 453 799 448 798 446 c 0
 797 445 745 444 683 444 c 2
 569 444 l 1
 572 435 l 2
 581 403 580 292 570 276 c 0
 569 275 570 269 572 264 c 0
 582 230 579 116 569 105 c 0
 568 104 529 103 482 103 c 2
 397 104 l 1
 395 112 l 2
 386 146 386 238 395 265 c 0
 396 269 396 277 395 282 c 0
 386 318 386 408 395 436 c 2
 398 444 l 1
 284 444 l 1
 170 445 l 1
 167 453 l 2
 158 487 159 584 168 608 c 2
 171 614 l 1
 284 614 l 1
 398 614 l 1
 395 624 l 2
 386 660 386 749 395 777 c 0
 396 781 396 789 395 794 c 0
 386 830 386 924 396 949 c 2
EndSplineSet
EndChar

StartChar: bar
Encoding: 124 124 29
Width: 851
VWidth: 0
Flags: W
VStem: 395 178<-237 1291>
LayerCount: 2
Back
Fore
SplineSet
396 1291 m 2
 398 1297 l 1
 483 1297 l 2
 530 1297 569 1296 570 1295 c 0
 571 1294 572 1288 573 1283 c 0
 581 1240 581 1182 573 1139 c 0
 571 1128 571 1124 573 1114 c 0
 580 1079 580 1003 573 969 c 0
 571 958 571 954 573 943 c 0
 580 908 580 832 573 798 c 0
 571 787 571 783 573 772 c 0
 581 733 579 632 570 617 c 0
 569 616 570 611 572 606 c 0
 581 574 580 463 570 447 c 0
 569 446 570 440 572 435 c 0
 581 403 580 292 570 276 c 0
 569 275 570 269 572 264 c 0
 581 232 580 121 570 105 c 0
 569 104 570 99 572 94 c 0
 581 62 580 -49 570 -65 c 0
 569 -66 570 -72 572 -77 c 0
 582 -111 579 -226 569 -237 c 0
 568 -238 529 -238 482 -238 c 2
 397 -238 l 1
 395 -230 l 2
 386 -196 386 -103 395 -76 c 0
 396 -72 396 -64 395 -59 c 0
 386 -23 386 66 395 94 c 0
 396 98 396 107 395 112 c 0
 386 148 386 237 395 265 c 0
 396 269 396 277 395 282 c 0
 386 318 386 408 395 436 c 0
 396 440 396 448 395 453 c 0
 386 489 386 578 395 606 c 0
 396 610 396 619 395 624 c 0
 386 660 386 749 395 777 c 0
 396 781 396 789 395 794 c 0
 386 830 386 920 395 948 c 0
 396 952 396 960 395 965 c 0
 386 1001 386 1090 395 1118 c 0
 396 1122 396 1131 395 1136 c 0
 386 1172 386 1266 396 1291 c 2
EndSplineSet
EndChar

StartChar: multiply
Encoding: 215 215 30
Width: 851
VWidth: 0
Flags: W
HStem: 104 169<226 284 626.963 691.186> 956 170<228 284 626.963 691.186>
VStem: 226 116<104 272.998 989.77 1120> 277 131<273.141 440.646> 509 124<275.144 436 785.141 952.646> 566 121<105.051 265 989.77 1120>
LayerCount: 2
Back
Fore
SplineSet
225 1120 m 2xe0
 228 1126 l 1
 284 1126 l 2
 315 1126 341 1125 342 1124 c 0
 350 1111 354 1025 348 988 c 0
 344 965 343 960 342 958 c 0
 341 957 353 956 369 956 c 0
 385 956 398 954 399 953 c 0
 407 940 411 855 405 818 c 0
 401 795 400 789 399 787 c 0
 398 786 424 785 455 785 c 2
 511 785 l 1
 509 794 l 2xe8
 502 820 500 877 504 917 c 0
 508 957 507 956 540 956 c 2
 568 956 l 1
 566 965 l 2
 557 1001 556 1095 566 1120 c 2xc4
 569 1126 l 1
 626 1126 l 2
 657 1126 683 1125 684 1124 c 0
 692 1111 696 1025 690 988 c 0
 686 965 685 960 684 958 c 0
 683 957 670 956 654 956 c 0
 638 956 626 954 627 953 c 0
 631 946 635 904 635 872 c 0
 635 839 631 794 627 787 c 0
 626 786 613 785 597 785 c 0
 581 785 569 784 570 783 c 0
 579 768 581 666 573 627 c 0
 571 616 571 613 573 602 c 0
 582 562 580 461 570 446 c 0
 569 445 581 444 597 444 c 0
 613 444 626 442 627 441 c 0
 635 428 639 345 633 306 c 0xc8
 630 286 629 278 627 275 c 0
 626 274 638 273 654 273 c 0
 670 273 683 272 684 271 c 0
 692 259 696 168 690 137 c 0
 689 133 688 124 687 118 c 0
 686 112 684 106 683 105 c 0
 682 104 655 103 624 103 c 2
 568 104 l 1
 566 112 l 2
 557 146 557 238 566 265 c 2xc4
 569 273 l 1
 540 274 l 1
 511 274 l 1
 509 282 l 2
 500 316 500 408 509 436 c 2
 512 444 l 1
 455 444 l 2
 424 444 398 442 399 441 c 0
 403 434 408 392 408 360 c 0xd8
 408 327 403 282 399 275 c 0
 398 274 385 273 369 273 c 0
 353 273 341 272 342 271 c 0
 353 253 353 116 342 105 c 0
 341 104 314 103 283 103 c 2
 226 104 l 1xe0
 224 112 l 2
 217 137 216 195 220 234 c 0
 224 274 223 273 256 273 c 2
 284 273 l 1
 281 282 l 2
 274 308 273 365 277 405 c 0xd0
 281 445 280 444 313 444 c 2
 341 444 l 1
 338 453 l 2
 329 489 329 578 338 606 c 0
 339 610 340 619 339 624 c 0
 330 660 329 749 338 777 c 2
 341 785 l 1
 312 786 l 1
 283 786 l 1
 281 794 l 2
 272 828 273 921 282 948 c 2
 284 955 l 1
 255 956 l 1
 226 957 l 1
 224 965 l 2
 215 999 216 1096 225 1120 c 2xe0
EndSplineSet
EndChar

StartChar: divide
Encoding: 247 247 31
Width: 851
VWidth: 0
Flags: W
HStem: -67 340<398 571.213> 445 169<171 804.443> 786 340<398 571.213>
VStem: 395 178<-67 267 787 1120>
CounterMasks: 1 e0
LayerCount: 2
Back
Fore
SplineSet
396 267 m 2
 398 273 l 1
 483 273 l 2
 530 273 569 272 570 271 c 0
 577 259 581 171 576 138 c 0
 575 133 574 124 573 118 c 0
 571 104 571 101 573 90 c 0
 582 49 579 -56 569 -66 c 0
 568 -67 529 -68 482 -68 c 2
 397 -67 l 1
 395 -59 l 2
 386 -25 386 67 395 94 c 0
 396 98 396 107 395 112 c 0
 386 148 386 242 396 267 c 2
168 608 m 2
 171 614 l 1
 483 614 l 2
 655 614 797 613 798 612 c 0
 805 600 809 512 804 479 c 0
 803 474 802 465 801 459 c 0
 800 453 798 447 797 446 c 0
 796 445 654 444 482 444 c 2
 170 445 l 1
 167 453 l 2
 158 487 159 584 168 608 c 2
396 1120 m 2
 398 1126 l 1
 483 1126 l 2
 530 1126 569 1125 570 1124 c 0
 577 1112 581 1024 576 991 c 0
 575 986 574 977 573 971 c 0
 571 957 571 954 573 943 c 0
 582 902 579 797 569 787 c 0
 568 786 529 786 482 786 c 2
 397 786 l 1
 395 794 l 2
 386 828 386 921 395 948 c 0
 396 952 396 960 395 965 c 0
 386 1001 386 1095 396 1120 c 2
EndSplineSet
EndChar

StartChar: i
Encoding: 105 105 32
Width: 851
VWidth: 0
Flags: W
HStem: -67 169<228 398 569.982 748.186> 616 169<284 398> 957 169<398 576.443>
VStem: 283 290<616 779> 396 177<958.051 1120>
LayerCount: 2
Back
Fore
SplineSet
282 779 m 2xf0
 284 785 l 1
 427 785 l 2
 505 785 569 784 570 783 c 0
 571 782 572 776 573 771 c 0
 581 728 581 670 573 627 c 0xf0
 571 616 571 612 573 602 c 0
 580 567 580 491 573 457 c 0
 571 446 571 442 573 431 c 0
 580 396 580 320 573 286 c 0
 571 275 571 271 573 260 c 0xe8
 582 220 580 120 570 105 c 0
 569 104 607 102 654 102 c 0
 701 102 740 101 741 100 c 0
 749 87 753 1 747 -36 c 0
 743 -60 742 -64 740 -66 c 0
 739 -67 623 -68 482 -68 c 2
 226 -67 l 1
 224 -59 l 2
 215 -25 216 72 225 96 c 2
 228 102 l 1
 313 102 l 1
 398 102 l 1
 395 112 l 2
 386 148 386 237 395 265 c 0
 396 269 396 277 395 282 c 0
 386 318 386 408 395 436 c 0
 396 440 396 448 395 453 c 0
 386 489 386 579 395 607 c 2
 398 614 l 1
 341 615 l 1
 283 616 l 1
 281 624 l 2
 272 658 273 755 282 779 c 2xf0
396 1120 m 2xe8
 398 1126 l 1
 483 1126 l 2
 530 1126 569 1125 570 1124 c 0
 577 1112 581 1024 576 991 c 0
 575 986 574 977 573 971 c 0
 572 965 570 959 569 958 c 0
 568 957 529 956 482 956 c 2
 397 957 l 1
 395 965 l 2
 386 999 387 1096 396 1120 c 2xe8
EndSplineSet
EndChar

StartChar: K
Encoding: 75 75 33
Width: 851
VWidth: 0
Flags: W
HStem: -68 170<740.963 804.443> 444 170<342.035 455> 956 170<740.963 804.453>
VStem: 168 177<-59 444 614.05 1120> 566 175<105.051 265 785.141 952.646> 623 175<-65.9495 101.999 958.096 1120>
CounterMasks: 1 e0
LayerCount: 2
Back
Fore
SplineSet
168 1120 m 2xf8
 171 1126 l 1
 256 1126 l 2
 303 1126 341 1125 342 1124 c 0
 343 1123 345 1117 346 1112 c 0
 354 1069 353 1012 345 969 c 0
 343 958 343 953 345 943 c 0
 352 908 352 832 345 798 c 0
 343 787 343 783 345 772 c 0
 354 732 352 632 342 617 c 0
 341 616 367 614 398 614 c 2
 455 614 l 1
 452 624 l 2
 443 660 443 754 453 779 c 2
 455 785 l 1
 512 785 l 1
 568 785 l 1
 566 794 l 2xf8
 559 820 557 877 561 917 c 0
 565 957 564 956 597 956 c 2
 625 956 l 1
 623 965 l 2
 614 1001 613 1095 623 1120 c 2
 626 1126 l 1
 711 1126 l 2
 758 1126 797 1125 798 1124 c 0
 806 1111 809 1025 803 988 c 0
 799 965 799 960 798 958 c 0xf4
 797 957 784 956 768 956 c 0
 752 956 740 954 741 953 c 0
 745 946 749 904 749 872 c 0
 749 839 745 794 741 787 c 0
 740 786 713 785 682 785 c 0
 651 785 626 784 627 783 c 0
 631 776 635 733 635 701 c 0
 635 668 631 624 627 617 c 0
 626 616 600 614 569 614 c 0
 538 614 512 613 513 612 c 0
 517 605 522 562 522 530 c 0
 522 497 517 453 513 446 c 0
 512 445 538 444 569 444 c 0
 600 444 626 442 627 441 c 0
 635 428 639 343 633 306 c 0
 629 283 628 277 627 275 c 0
 626 274 651 273 682 273 c 0
 713 273 740 272 741 271 c 0
 748 259 752 171 747 138 c 0
 746 134 745 124 744 118 c 0
 743 112 742 106 741 105 c 0xf8
 740 104 752 102 768 102 c 0
 784 102 797 101 798 100 c 0
 805 88 809 0 804 -33 c 0
 803 -38 802 -47 801 -53 c 0
 800 -59 798 -65 797 -66 c 0
 796 -67 757 -68 710 -68 c 2
 625 -67 l 1
 623 -59 l 2
 614 -25 614 67 623 94 c 2xf4
 625 102 l 1
 597 103 l 1
 568 104 l 1
 566 112 l 2
 557 146 557 237 566 265 c 2
 569 273 l 1
 511 274 l 1
 454 274 l 1
 452 282 l 2
 443 316 443 409 452 436 c 2
 455 444 l 1
 398 444 l 1
 342 444 l 1
 344 435 l 2
 353 403 353 292 343 276 c 0
 342 275 342 269 344 264 c 0
 353 232 353 121 343 105 c 0
 342 104 342 99 344 94 c 0
 354 60 352 -55 342 -66 c 0
 341 -67 302 -68 255 -68 c 2
 170 -67 l 1
 167 -59 l 2
 158 -25 159 67 168 94 c 0
 169 98 169 107 168 112 c 0
 159 148 159 237 168 265 c 0
 169 269 169 277 168 282 c 0
 159 318 159 408 168 436 c 0
 169 440 169 448 168 453 c 0
 159 489 159 578 168 606 c 0
 169 610 169 619 168 624 c 0
 159 660 159 749 168 777 c 0
 169 781 169 789 168 794 c 0
 159 830 159 920 168 948 c 0
 169 952 169 960 168 965 c 0
 159 1001 158 1095 168 1120 c 2xf8
EndSplineSet
EndChar

StartChar: J
Encoding: 74 74 34
Width: 851
VWidth: 0
Flags: W
HStem: -68 170<285.989 511> 102 171<114 226.399> 956 170<398 512 683.963 748.186>
VStem: 111 178<105.051 267> 396 345<957.125 1120>
LayerCount: 2
Back
Fore
SplineSet
396 1120 m 2
 398 1126 l 1
 569 1126 l 2
 663 1126 740 1125 741 1124 c 0
 749 1111 753 1025 747 988 c 0
 743 965 742 960 741 958 c 0
 740 957 727 956 711 956 c 0
 695 956 683 954 684 953 c 0
 693 938 695 837 687 798 c 0
 685 787 685 783 687 772 c 0
 695 733 693 632 684 617 c 0
 683 616 684 611 686 606 c 0
 695 574 694 463 684 447 c 0
 683 446 684 440 686 435 c 0
 695 403 694 292 684 276 c 0
 683 275 684 269 686 264 c 0
 695 231 694 121 684 105 c 0
 683 104 669 102 654 102 c 2
 626 102 l 1
 629 93 l 2
 639 59 636 -55 626 -66 c 0
 625 -67 534 -68 425 -68 c 2
 226 -67 l 1
 224 -59 l 2
 215 -25 216 68 225 95 c 2
 227 102 l 1
 170 103 l 1
 113 104 l 1
 111 112 l 2
 102 146 102 243 111 267 c 2
 114 273 l 1
 199 273 l 2
 246 273 285 272 286 271 c 0
 293 259 297 171 292 138 c 0
 291 134 290 124 289 118 c 0
 288 112 287 106 286 105 c 0
 285 104 333 102 398 102 c 2
 511 102 l 1
 509 112 l 2
 500 148 500 237 509 265 c 0
 510 269 510 277 509 282 c 0
 500 318 500 408 509 436 c 0
 510 440 510 448 509 453 c 0
 500 489 500 578 509 606 c 0
 510 610 510 619 509 624 c 0
 500 660 500 749 509 777 c 0
 510 781 510 789 509 794 c 0
 500 830 500 920 509 948 c 2
 512 956 l 1
 454 956 l 1
 397 957 l 1
 395 965 l 2
 386 999 387 1096 396 1120 c 2
EndSplineSet
EndChar

StartChar: Otilde
Encoding: 213 213 35
Width: 851
VWidth: 0
Flags: W
HStem: -68 170<341.991 568> 956 170<341.991 569 627 634.186> 1298 170<171 284 512.98 683> 1468 170<284 455 513 519.472 683 805.186>
VStem: 111 175<274.125 784.998> 167 118<1306 1461> 282 345<-66 101.955 956.141 1120> 282 231<1469.12 1632> 679 125<1477 1632>
LayerCount: 2
Back
Fore
SplineSet
282 1120 m 2xf280
 284 1126 l 1
 455 1126 l 2
 549 1126 626 1125 627 1124 c 0
 635 1111 639 1025 633 988 c 0
 629 965 628 960 627 958 c 0
 626 957 651 956 682 956 c 0
 713 956 740 954 741 953 c 0
 749 940 753 855 747 818 c 0
 743 795 742 789 741 787 c 0
 740 786 752 785 768 785 c 0
 784 785 797 784 798 783 c 0
 799 782 800 776 801 771 c 0
 809 728 808 670 800 627 c 0
 798 616 798 612 800 602 c 0
 807 567 807 491 800 457 c 0
 798 446 798 442 800 431 c 0
 809 391 808 290 798 275 c 0
 797 274 783 273 768 273 c 2
 740 273 l 1
 742 264 l 2
 751 231 751 121 741 105 c 0
 740 104 713 102 682 102 c 0
 651 102 626 101 627 100 c 0
 638 82 637 -55 626 -66 c 0
 625 -67 548 -68 454 -68 c 2
 283 -67 l 1
 281 -59 l 2
 272 -25 273 68 282 95 c 2xf280
 284 102 l 1
 227 103 l 1
 170 104 l 1
 167 112 l 2xf480
 158 146 159 238 168 265 c 2
 170 273 l 1
 142 274 l 1
 113 274 l 1
 111 282 l 2
 102 316 102 409 111 436 c 0
 112 440 112 448 111 453 c 0
 102 489 102 578 111 606 c 0
 112 610 112 619 111 624 c 0xf880
 104 650 102 706 106 746 c 0
 110 786 109 785 142 785 c 2
 170 785 l 1
 168 794 l 2
 159 830 158 924 168 949 c 2
 171 956 l 1
 227 956 l 1
 284 956 l 1
 281 965 l 2
 272 1001 272 1095 282 1120 c 2xf280
566 948 m 2
 569 956 l 1
 455 956 l 2
 392 956 341 954 342 953 c 0
 346 946 351 904 351 872 c 0
 351 839 346 794 342 787 c 0
 341 786 329 785 313 785 c 0
 297 785 285 784 286 783 c 0
 295 768 296 666 288 627 c 0
 286 616 286 613 288 602 c 0
 295 567 295 491 288 457 c 0
 286 446 286 442 288 431 c 0
 297 391 296 290 286 275 c 0xf880
 285 274 297 273 313 273 c 0
 329 273 341 272 342 271 c 0
 350 258 354 174 348 135 c 0
 345 115 344 108 342 105 c 0
 341 104 392 102 455 102 c 2
 568 102 l 1
 566 112 l 2
 559 138 557 194 561 234 c 0
 565 274 564 273 597 273 c 2
 625 273 l 1
 623 282 l 2
 614 318 614 408 623 436 c 0
 624 440 624 448 623 453 c 0
 614 489 614 578 623 606 c 0
 624 610 624 619 623 624 c 0
 614 660 614 749 623 777 c 2
 625 785 l 1
 597 786 l 1
 568 786 l 1
 566 794 l 2
 557 828 557 920 566 948 c 2
168 1461 m 2
 171 1468 l 1
 228 1468 l 1
 284 1468 l 1
 287 1461 l 2
 297 1434 296 1310 285 1299 c 0
 284 1298 257 1298 226 1298 c 2
 170 1298 l 1
 167 1306 l 2xf480
 158 1340 159 1437 168 1461 c 2
680 1632 m 2
 683 1638 l 1
 739 1638 l 2
 770 1638 797 1637 798 1636 c 0
 806 1623 810 1537 804 1500 c 0
 800 1476 799 1472 797 1470 c 0
 796 1469 769 1468 738 1468 c 2
 682 1469 l 1
 679 1477 l 2
 670 1511 671 1608 680 1632 c 2
282 1632 m 2xf180
 284 1638 l 1
 398 1638 l 2
 461 1638 512 1637 513 1636 c 0
 520 1624 524 1536 519 1503 c 0
 518 1499 517 1490 516 1484 c 0
 515 1478 514 1471 513 1470 c 0
 512 1469 548 1468 597 1468 c 2
 683 1468 l 1
 685 1461 l 2
 695 1434 694 1310 683 1299 c 0
 682 1298 629 1298 567 1298 c 2
 454 1298 l 1
 452 1306 l 2
 443 1340 443 1433 452 1460 c 2
 455 1468 l 1
 369 1468 l 1
 283 1469 l 1
 281 1477 l 2
 272 1511 273 1608 282 1632 c 2xf180
EndSplineSet
EndChar

StartChar: n
Encoding: 110 110 36
Width: 851
VWidth: 0
Flags: W
HStem: -68 21G<113 221.5 625 733.5> -68 21G<113 221.5 625 733.5> 444 170<285.963 343.861> 616 169<341 625 684 691.186>
VStem: 111 177<-67 444.556 617.096 779> 339 345<616.125 779> 625 172<-67 -59 94.0012 611.949>
LayerCount: 2
Back
Fore
SplineSet
339 779 m 2xbc
 341 785 l 1
 512 785 l 2
 606 785 683 784 684 783 c 0
 692 770 696 684 690 647 c 0
 686 624 685 619 684 617 c 0xbc
 683 616 708 614 739 614 c 0
 770 614 797 613 798 612 c 0
 799 611 800 605 801 600 c 0
 809 557 808 500 800 457 c 0
 798 446 798 441 800 431 c 0
 807 396 807 320 800 286 c 0
 798 275 798 271 800 260 c 0
 808 221 807 120 798 105 c 0
 797 104 797 99 799 94 c 0
 809 60 807 -55 797 -66 c 0
 796 -67 757 -68 710 -68 c 2
 625 -67 l 1
 623 -59 l 2
 614 -25 614 67 623 94 c 0
 624 98 624 107 623 112 c 0
 614 148 614 237 623 265 c 0
 624 269 624 277 623 282 c 0
 614 318 614 408 623 436 c 0
 624 440 624 448 623 453 c 0
 614 489 614 579 623 607 c 2
 625 614 l 1xba
 483 615 l 1
 340 616 l 1
 338 624 l 2
 329 658 330 755 339 779 c 2xbc
111 779 m 2
 114 785 l 1
 199 785 l 2
 246 785 285 784 286 783 c 0
 294 770 297 684 291 647 c 0
 287 624 287 619 286 617 c 0
 285 616 297 614 313 614 c 0
 341 614 341 615 344 608 c 0
 351 591 354 509 349 479 c 0
 348 475 347 466 346 460 c 0
 345 454 344 447 343 446 c 0
 342 445 329 444 313 444 c 0
 297 444 285 442 286 441 c 0
 295 426 296 325 288 286 c 0
 286 275 286 271 288 260 c 0
 296 221 295 120 286 105 c 0
 285 104 285 99 287 94 c 0
 297 60 295 -55 285 -66 c 0
 284 -67 245 -68 198 -68 c 2
 113 -67 l 1
 111 -59 l 2
 102 -25 102 67 111 94 c 0
 112 98 112 107 111 112 c 0
 102 148 102 237 111 265 c 0
 112 269 112 277 111 282 c 0
 102 318 102 408 111 436 c 0
 112 440 112 448 111 453 c 0
 102 489 102 578 111 606 c 0
 112 610 112 619 111 624 c 0
 102 660 101 754 111 779 c 2
EndSplineSet
EndChar

StartChar: g
Encoding: 103 103 37
Width: 851
VWidth: 0
Flags: W
HStem: -408 169<284 568> -68 170<342.989 569> 104 169<568 625> 274 170<113 170> 614 171<342.001 625>
VStem: 106 188<274.125 440.646> 568 173<-238.931 -68.0017>
LayerCount: 2
Back
Fore
SplineSet
282 779 m 2
 284 785 l 1
 540 785 l 2
 681 785 797 784 798 783 c 0
 799 782 800 776 801 771 c 0
 809 728 808 670 800 627 c 0
 798 616 798 612 800 602 c 0
 807 567 807 491 800 457 c 0
 798 446 798 442 800 431 c 0
 807 396 807 320 800 286 c 0
 798 275 798 271 800 260 c 0
 808 221 807 120 798 105 c 0
 797 104 797 99 799 94 c 0
 808 61 808 -50 798 -66 c 0
 797 -67 784 -68 768 -68 c 0
 752 -68 740 -70 741 -71 c 0
 745 -78 749 -120 749 -152 c 0
 749 -185 745 -230 741 -237 c 0
 740 -238 713 -239 682 -239 c 0
 651 -239 626 -240 627 -241 c 0
 638 -259 637 -396 626 -407 c 0
 625 -408 548 -409 454 -409 c 2
 283 -408 l 1
 281 -400 l 2
 272 -366 273 -269 282 -245 c 2
 284 -239 l 1
 426 -239 l 1
 568 -239 l 1
 566 -230 l 2
 559 -204 557 -147 561 -107 c 0
 565 -67 564 -68 597 -68 c 2
 625 -68 l 1
 623 -59 l 2
 614 -23 614 66 623 94 c 2
 625 102 l 1
 597 103 l 1
 568 104 l 1
 566 112 l 2
 559 137 557 195 561 234 c 0
 565 274 564 273 597 273 c 2
 625 273 l 1
 623 282 l 2
 614 318 614 408 623 436 c 0
 624 440 624 448 623 453 c 0
 614 489 614 578 623 606 c 2
 625 614 l 1
 483 614 l 2
 405 614 341 613 342 612 c 0
 346 605 351 562 351 530 c 0
 351 497 346 453 342 446 c 0
 341 445 329 444 313 444 c 0
 297 444 285 442 286 441 c 0
 290 434 294 392 294 360 c 0
 294 327 290 282 286 275 c 0
 285 274 297 273 313 273 c 0
 329 273 341 272 342 271 c 0
 349 259 354 171 349 138 c 0
 348 134 347 124 346 118 c 0
 345 112 344 106 343 105 c 0
 342 104 390 102 455 102 c 2
 569 102 l 1
 571 96 l 2
 581 69 580 -55 569 -66 c 0
 568 -67 503 -68 425 -68 c 2
 283 -67 l 1
 281 -59 l 2
 272 -25 273 68 282 95 c 2
 284 102 l 1
 227 103 l 1
 170 104 l 1
 167 112 l 2
 158 146 159 238 168 265 c 2
 170 273 l 1
 142 274 l 1
 113 274 l 1
 111 282 l 2
 104 307 102 366 106 405 c 0
 110 445 109 444 142 444 c 2
 170 444 l 1
 168 453 l 2
 159 489 158 583 168 608 c 2
 171 614 l 1
 227 614 l 1
 284 614 l 1
 281 624 l 2
 272 660 272 754 282 779 c 2
EndSplineSet
EndChar

StartChar: yen
Encoding: 165 165 38
Width: 851
VWidth: 0
Flags: W
HStem: -68 21G<397 505.5> -68 21G<397 505.5> 102 171<228 398 569.982 747.443> 444 170<226 284 683.963 748.186> 956 170<171 227 740.963 804.453>
VStem: 167 235<965 1120> 220 527<105.051 267 446.096 611.338> 504 188<614.156 782.646> 566 237<958.096 1120>
LayerCount: 2
Back
Fore
SplineSet
168 1120 m 2xbc
 171 1126 l 1
 284 1126 l 2
 347 1126 398 1125 399 1124 c 0
 400 1123 402 1117 403 1112 c 0
 411 1069 410 1012 402 969 c 0
 400 958 400 953 402 943 c 0
 411 903 409 802 399 787 c 0
 398 786 410 785 426 785 c 0
 442 785 455 784 456 783 c 0
 464 771 468 680 462 649 c 0
 461 645 461 636 460 630 c 0
 459 624 457 618 456 617 c 0
 455 616 467 614 483 614 c 2
 511 614 l 1
 509 624 l 2
 502 650 500 706 504 746 c 0xbd
 508 786 507 785 540 785 c 2
 568 785 l 1
 566 794 l 2
 557 830 557 920 566 948 c 0
 567 952 567 960 566 965 c 0
 557 1001 556 1095 566 1120 c 2
 569 1126 l 1
 683 1126 l 2
 746 1126 797 1125 798 1124 c 0
 806 1111 809 1025 803 988 c 0xb880
 799 965 799 960 798 958 c 0
 797 957 784 956 768 956 c 0
 752 956 740 954 741 953 c 0
 745 946 749 904 749 872 c 0
 749 839 745 794 741 787 c 0
 740 786 727 785 711 785 c 0
 695 785 683 784 684 783 c 0
 688 776 692 733 692 701 c 0xb9
 692 668 688 624 684 617 c 0
 683 616 695 614 711 614 c 0
 727 614 740 613 741 612 c 0
 749 599 753 513 747 476 c 0
 743 453 742 448 741 446 c 0
 740 445 701 444 654 444 c 0
 607 444 569 442 570 441 c 0
 574 434 579 392 579 360 c 0
 579 327 574 282 570 275 c 0
 569 274 607 273 654 273 c 0
 701 273 740 272 741 271 c 0
 748 259 752 171 747 138 c 0
 746 134 745 124 744 118 c 0
 743 112 742 106 741 105 c 0
 740 104 701 102 654 102 c 2
 569 102 l 1
 572 93 l 2
 582 59 579 -55 569 -66 c 0
 568 -67 529 -68 482 -68 c 2
 397 -67 l 1
 395 -59 l 2
 386 -25 386 68 395 95 c 2
 398 102 l 1
 312 103 l 1
 226 104 l 1
 224 112 l 2
 215 146 216 243 225 267 c 2
 228 273 l 1
 313 273 l 1
 398 273 l 1
 395 282 l 2
 386 318 386 408 395 436 c 2
 398 444 l 1
 312 444 l 1
 226 445 l 1
 224 453 l 2
 217 478 216 537 220 576 c 0xba
 224 616 223 614 256 614 c 2
 284 614 l 1
 281 624 l 2
 272 660 273 749 282 777 c 2
 284 785 l 1
 255 786 l 1
 226 786 l 1
 224 794 l 2
 215 828 216 921 225 948 c 2
 227 955 l 1
 198 956 l 1
 170 957 l 1
 167 965 l 2
 158 999 159 1096 168 1120 c 2xbc
EndSplineSet
EndChar

StartChar: r
Encoding: 114 114 39
Width: 851
VWidth: 0
Flags: W
HStem: -67 169<114 227 398.973 519.443> 444 170<740.963 805.186> 614 171<114 227 342 349.186 455.982 625 741 748.186>
VStem: 111 231<648.77 779> 396 345<614.156 779>
LayerCount: 2
Back
Fore
SplineSet
111 779 m 2
 114 785 l 1
 227 785 l 2
 290 785 341 784 342 783 c 0
 350 770 354 684 348 647 c 0
 344 624 343 619 342 617 c 0
 341 616 353 614 369 614 c 2
 398 614 l 1
 395 624 l 2
 386 660 386 754 396 779 c 2
 398 785 l 1
 569 785 l 2
 663 785 740 784 741 783 c 0
 749 770 753 684 747 647 c 0
 743 624 742 619 741 617 c 0
 740 616 752 614 768 614 c 0
 784 614 797 613 798 612 c 0
 806 599 810 513 804 476 c 0
 800 452 799 448 797 446 c 0
 796 445 757 444 710 444 c 2
 625 445 l 1
 623 453 l 2
 614 487 614 579 623 606 c 2
 625 614 l 1
 540 614 l 2
 493 614 455 613 456 612 c 0
 460 605 465 562 465 529 c 0
 465 496 460 453 456 446 c 0
 455 445 442 444 426 444 c 0
 410 444 398 442 399 441 c 0
 408 426 410 325 402 286 c 0
 400 275 400 271 402 260 c 0
 411 220 409 120 399 105 c 0
 398 104 424 102 455 102 c 0
 486 102 512 101 513 100 c 0
 520 88 524 0 519 -33 c 0
 518 -38 517 -47 516 -53 c 0
 515 -59 513 -65 512 -66 c 0
 511 -67 420 -68 311 -68 c 2
 113 -67 l 1
 111 -59 l 2
 102 -25 102 72 111 96 c 2
 114 102 l 1
 170 102 l 1
 227 102 l 1
 225 112 l 2
 216 148 216 237 225 265 c 0
 226 269 226 277 225 282 c 0
 216 318 216 408 225 436 c 0
 226 440 226 448 225 453 c 0
 216 489 216 579 225 607 c 2
 227 614 l 1
 170 615 l 1
 113 616 l 1
 111 624 l 2
 102 658 102 755 111 779 c 2
EndSplineSet
EndChar

StartChar: brokenbar
Encoding: 166 166 40
Width: 851
VWidth: 0
Flags: W
VStem: 395 178<-237 443.364 616 1291>
LayerCount: 2
Back
Fore
SplineSet
396 437 m 2
 398 444 l 1
 483 444 l 2
 530 444 569 442 570 441 c 0
 577 429 581 341 576 308 c 0
 575 303 574 295 573 289 c 0
 571 275 571 271 573 260 c 0
 581 225 580 149 573 115 c 0
 571 104 571 101 573 90 c 0
 580 55 580 -21 573 -55 c 0
 571 -66 571 -70 573 -81 c 0
 582 -122 579 -227 569 -237 c 0
 568 -238 529 -238 482 -238 c 2
 397 -238 l 1
 395 -230 l 2
 386 -196 386 -103 395 -76 c 0
 396 -72 396 -64 395 -59 c 0
 386 -23 386 66 395 94 c 0
 396 98 396 107 395 112 c 0
 386 148 386 237 395 265 c 0
 396 269 396 277 395 282 c 0
 386 318 386 412 396 437 c 2
396 1291 m 2
 398 1297 l 1
 483 1297 l 2
 530 1297 569 1296 570 1295 c 0
 577 1283 581 1195 576 1162 c 0
 575 1157 574 1148 573 1142 c 0
 571 1128 571 1125 573 1114 c 0
 581 1079 580 1003 573 969 c 0
 571 958 571 954 573 943 c 0
 580 908 580 832 573 798 c 0
 571 787 571 783 573 772 c 0
 582 731 579 627 569 617 c 0
 568 616 529 615 482 615 c 2
 397 616 l 1
 395 624 l 2
 386 658 386 750 395 777 c 0
 396 781 396 789 395 794 c 0
 386 830 386 920 395 948 c 0
 396 952 396 960 395 965 c 0
 386 1001 386 1090 395 1118 c 0
 396 1122 396 1131 395 1136 c 0
 386 1172 386 1266 396 1291 c 2
EndSplineSet
EndChar

StartChar: agrave
Encoding: 224 224 41
Width: 851
VWidth: 0
Flags: W
HStem: -68 170<341.991 569 740.963 804.511> 104 169<170 227 342 452.056> 273 171<341.991 568> 616 169<284 569 627 634.186> 956 170<512.972 633.443> 1128 169<341 454.292>
VStem: 163 188<104.125 270.646> 282 345<616.125 779> 339 177<1129.05 1291>
LayerCount: 2
Back
Fore
SplineSet
282 779 m 2xfd
 284 785 l 1
 455 785 l 2
 549 785 626 784 627 783 c 0
 635 770 639 684 633 647 c 0
 629 624 628 619 627 617 c 0xfd
 626 616 651 614 682 614 c 0
 713 614 740 613 741 612 c 0
 748 600 752 512 747 479 c 0
 746 474 745 465 744 459 c 0
 742 445 741 442 743 431 c 0
 751 396 750 320 743 286 c 0
 741 275 741 271 743 260 c 0
 752 220 751 120 741 105 c 0
 740 104 752 102 768 102 c 0
 784 102 797 101 798 100 c 0
 803 92 807 40 806 6 c 0
 805 -32 801 -62 797 -66 c 0
 796 -67 757 -68 710 -68 c 2
 625 -67 l 1
 623 -59 l 2
 614 -25 614 67 623 94 c 2
 625 102 l 1
 597 103 l 1
 568 104 l 1
 566 112 l 2
 557 146 557 237 566 265 c 2
 569 273 l 1
 455 273 l 2
 392 273 341 272 342 271 c 0
 346 264 351 221 351 189 c 0
 351 156 346 112 342 105 c 0
 341 104 392 102 455 102 c 2
 569 102 l 1
 571 96 l 2
 581 69 580 -55 569 -66 c 0
 568 -67 491 -68 397 -68 c 2
 226 -67 l 1
 224 -59 l 2
 215 -25 216 67 225 94 c 2
 227 102 l 1
 198 103 l 1
 170 104 l 1
 167 112 l 2
 160 137 159 195 163 234 c 0xfe
 167 274 166 273 199 273 c 2
 227 273 l 1
 225 282 l 2
 216 318 215 412 225 437 c 2
 228 444 l 1
 398 444 l 1
 568 444 l 1
 566 453 l 2
 557 489 557 579 566 607 c 2
 569 614 l 1
 426 615 l 1
 283 616 l 1
 281 624 l 2
 272 658 273 755 282 779 c 2xfd
339 1291 m 2xfc80
 341 1297 l 1
 427 1297 l 2
 474 1297 512 1296 513 1295 c 0
 520 1283 524 1195 519 1162 c 0
 518 1158 517 1148 516 1142 c 0xfc80
 515 1136 514 1130 513 1129 c 0
 512 1128 537 1126 569 1126 c 0
 600 1126 626 1125 627 1124 c 0xfd
 634 1112 638 1024 633 991 c 0
 632 986 631 977 630 971 c 0
 629 965 627 959 626 958 c 0
 625 957 586 956 539 956 c 2
 454 957 l 1
 452 965 l 2
 443 999 443 1092 452 1119 c 2
 455 1126 l 1
 398 1127 l 1
 340 1128 l 1
 338 1136 l 2
 329 1170 330 1267 339 1291 c 2xfc80
EndSplineSet
EndChar

StartChar: backslash
Encoding: 92 92 42
Width: 851
VWidth: 0
Flags: W
HStem: -238 170<683.963 747.443> 1128 169<114 170>
VStem: 111 180<1129.1 1291>
LayerCount: 2
Back
Fore
SplineSet
111 1291 m 2
 114 1297 l 1
 199 1297 l 2
 246 1297 285 1296 286 1295 c 0
 294 1282 297 1196 291 1159 c 0
 287 1136 287 1131 286 1129 c 0
 285 1128 297 1126 313 1126 c 0
 329 1126 341 1125 342 1124 c 0
 350 1111 354 1025 348 988 c 0
 344 965 343 960 342 958 c 0
 341 957 353 956 369 956 c 0
 385 956 398 954 399 953 c 0
 407 940 411 855 405 818 c 0
 401 795 400 789 399 787 c 0
 398 786 410 785 426 785 c 0
 442 785 455 784 456 783 c 0
 464 770 468 684 462 647 c 0
 458 624 457 619 456 617 c 0
 455 616 467 614 483 614 c 0
 499 614 512 613 513 612 c 0
 521 599 525 513 519 476 c 0
 515 453 514 448 513 446 c 0
 512 445 524 444 540 444 c 0
 556 444 569 442 570 441 c 0
 578 428 582 343 576 306 c 0
 572 283 571 277 570 275 c 0
 569 274 581 273 597 273 c 0
 613 273 626 272 627 271 c 0
 634 259 638 171 633 138 c 0
 632 134 631 124 630 118 c 0
 629 112 628 106 627 105 c 0
 626 104 638 102 654 102 c 0
 670 102 683 101 684 100 c 0
 691 88 695 0 690 -33 c 0
 689 -37 688 -46 687 -52 c 0
 686 -58 685 -65 684 -66 c 0
 683 -67 695 -68 711 -68 c 0
 727 -68 740 -70 741 -71 c 0
 748 -83 752 -171 747 -204 c 0
 746 -209 745 -217 744 -223 c 0
 743 -229 741 -236 740 -237 c 0
 739 -238 700 -238 653 -238 c 2
 568 -238 l 1
 566 -230 l 2
 557 -196 557 -103 566 -76 c 2
 569 -69 l 1
 540 -68 l 1
 511 -67 l 1
 509 -59 l 2
 500 -25 500 67 509 94 c 2
 512 102 l 1
 483 103 l 1
 454 104 l 1
 452 112 l 2
 443 146 443 238 452 265 c 2
 455 273 l 1
 426 274 l 1
 397 274 l 1
 395 282 l 2
 386 316 386 409 395 436 c 2
 398 443 l 1
 369 444 l 1
 340 445 l 1
 338 453 l 2
 329 487 329 579 338 606 c 2
 341 614 l 1
 312 615 l 1
 283 616 l 1
 281 624 l 2
 272 658 273 750 282 777 c 2
 284 785 l 1
 255 786 l 1
 226 786 l 1
 224 794 l 2
 215 828 216 921 225 948 c 2
 227 955 l 1
 198 956 l 1
 170 957 l 1
 167 965 l 2
 158 999 159 1091 168 1118 c 2
 170 1126 l 1
 142 1127 l 1
 113 1128 l 1
 111 1136 l 2
 102 1170 102 1267 111 1291 c 2
EndSplineSet
EndChar

StartChar: at
Encoding: 64 64 43
Width: 851
VWidth: 0
Flags: W
HStem: -68 170<342 747.443> 274 170<512.972 625> 1126 171<341.991 569 684 691.186>
VStem: 106 180<397.773 955.998> 282 402<1126.16 1291>
LayerCount: 2
Back
Fore
SplineSet
282 1291 m 2xe8
 284 1297 l 1
 483 1297 l 2
 593 1297 683 1296 684 1295 c 0
 692 1282 696 1196 690 1159 c 0
 686 1136 685 1131 684 1129 c 0xe8
 683 1128 695 1126 711 1126 c 0
 727 1126 740 1125 741 1124 c 0
 749 1111 753 1025 747 988 c 0
 743 965 742 960 741 958 c 0
 740 957 752 956 768 956 c 0
 784 956 797 954 798 953 c 0
 799 952 800 946 801 941 c 0
 809 898 808 841 800 798 c 0
 798 787 798 782 800 772 c 0
 807 737 807 661 800 627 c 0
 798 616 798 613 800 602 c 0
 808 563 807 461 798 446 c 0
 797 445 783 444 768 444 c 2
 740 444 l 1
 742 435 l 2
 752 401 750 286 740 275 c 0
 739 274 674 274 596 274 c 2
 454 274 l 1
 452 282 l 2
 443 316 443 409 452 436 c 2
 455 443 l 1
 426 444 l 1
 397 445 l 1
 395 453 l 2
 386 487 386 579 395 606 c 0
 396 610 396 619 395 624 c 0
 386 660 386 749 395 777 c 0
 396 781 396 789 395 794 c 0
 386 830 386 924 396 949 c 2
 398 956 l 1
 483 956 l 1
 568 956 l 1
 566 965 l 2
 557 1001 557 1090 566 1118 c 2
 569 1126 l 1
 455 1126 l 2
 392 1126 341 1125 342 1124 c 0
 346 1117 351 1074 351 1042 c 0
 351 1009 346 965 342 958 c 0
 341 957 329 956 313 956 c 0
 297 956 285 954 286 953 c 0
 295 938 296 837 288 798 c 0
 286 787 286 783 288 772 c 0
 295 737 295 661 288 627 c 0
 286 616 286 613 288 602 c 0
 296 563 295 462 286 447 c 0
 285 446 285 440 287 435 c 0
 296 402 296 291 286 275 c 0xf0
 285 274 297 273 313 273 c 0
 341 273 341 273 344 266 c 0
 351 248 353 171 348 135 c 0
 345 115 344 108 342 105 c 0
 341 104 430 102 540 102 c 0
 650 102 740 101 741 100 c 0
 748 88 752 0 747 -33 c 0
 746 -38 745 -47 744 -53 c 0
 743 -59 741 -65 740 -66 c 0
 739 -67 636 -68 511 -68 c 2
 283 -67 l 1
 281 -59 l 2
 272 -25 273 68 282 95 c 2xe8
 284 102 l 1
 227 103 l 1
 170 104 l 1
 167 112 l 2
 158 146 159 238 168 265 c 2
 170 273 l 1
 142 274 l 1
 113 274 l 1
 111 282 l 2
 102 316 102 409 111 436 c 0
 112 440 112 448 111 453 c 0
 102 489 102 578 111 606 c 0
 112 610 112 619 111 624 c 0
 102 660 102 749 111 777 c 0
 112 781 112 789 111 794 c 0
 104 820 102 877 106 917 c 0xf0
 110 957 109 956 142 956 c 2
 170 956 l 1
 168 965 l 2
 159 1001 158 1095 168 1120 c 2
 171 1126 l 1
 227 1126 l 1
 284 1126 l 1
 281 1136 l 2
 272 1172 272 1266 282 1291 c 2xe8
623 777 m 2
 625 785 l 1
 569 785 l 2
 538 785 512 784 513 783 c 0
 522 768 524 666 516 627 c 0
 514 616 514 613 516 602 c 0
 525 562 523 461 513 446 c 0
 512 445 537 444 568 444 c 2
 625 444 l 1
 623 453 l 2
 614 489 614 578 623 606 c 0
 624 610 624 619 623 624 c 0
 614 660 614 749 623 777 c 2
EndSplineSet
EndChar

StartChar: icircumflex
Encoding: 238 238 44
Width: 851
VWidth: 0
Flags: W
HStem: -67 169<228 398 569.982 748.186> 616 169<284 398> 957 169<226 284 342 345.988 626.963 690.443> 1126 171<341.991 569 627 633.472>
VStem: 226 116<957 1124> 281 346<1129.05 1291> 283 290<616 779>
LayerCount: 2
Back
Fore
SplineSet
282 779 m 2xf4
 284 785 l 1
 427 785 l 2
 505 785 569 784 570 783 c 0
 571 782 572 776 573 771 c 0
 581 728 581 670 573 627 c 0
 571 616 571 612 573 602 c 0
 580 567 580 491 573 457 c 0
 571 446 571 442 573 431 c 0
 580 396 580 320 573 286 c 0
 571 275 571 271 573 260 c 0xf2
 582 220 580 120 570 105 c 0
 569 104 607 102 654 102 c 0
 701 102 740 101 741 100 c 0
 749 87 753 1 747 -36 c 0
 743 -60 742 -64 740 -66 c 0
 739 -67 623 -68 482 -68 c 2
 226 -67 l 1xf8
 224 -59 l 2
 215 -25 216 72 225 96 c 2
 228 102 l 1
 313 102 l 1
 398 102 l 1
 395 112 l 2
 386 148 386 237 395 265 c 0
 396 269 396 277 395 282 c 0
 386 318 386 408 395 436 c 0
 396 440 396 448 395 453 c 0
 386 489 386 579 395 607 c 2
 398 614 l 1
 341 615 l 1
 283 616 l 1xf2
 281 624 l 2
 272 658 273 755 282 779 c 2xf4
282 1291 m 2
 284 1297 l 1
 455 1297 l 2
 549 1297 626 1296 627 1295 c 0
 634 1283 638 1195 633 1162 c 0
 632 1158 631 1148 630 1142 c 0
 629 1136 628 1130 627 1129 c 0xf4
 626 1128 638 1126 654 1126 c 0
 670 1126 683 1125 684 1124 c 0
 691 1112 695 1024 690 991 c 0
 689 986 688 977 687 971 c 0
 686 965 684 959 683 958 c 0
 682 957 655 956 624 956 c 2
 568 957 l 1
 566 965 l 2
 557 999 557 1091 566 1118 c 2
 569 1126 l 1
 455 1126 l 2
 392 1126 341 1125 342 1124 c 0
 353 1106 353 969 342 958 c 0xf8
 341 957 314 956 283 956 c 2xf2
 226 957 l 1xf8
 224 965 l 2
 217 990 216 1049 220 1088 c 0
 224 1128 223 1126 256 1126 c 2
 284 1126 l 1
 281 1136 l 2xf4
 272 1172 272 1266 282 1291 c 2
EndSplineSet
EndChar

StartChar: plusminus
Encoding: 177 177 45
Width: 851
VWidth: 0
Flags: W
HStem: 104 169<171 804.443> 786 170<171 398 569.99 804.453>
VStem: 395 178<445 776 965 1291>
LayerCount: 2
Back
Fore
SplineSet
168 267 m 2
 171 273 l 1
 483 273 l 2
 655 273 797 272 798 271 c 0
 805 259 809 171 804 138 c 0
 803 133 802 124 801 118 c 0
 800 112 798 106 797 105 c 0
 796 104 654 103 482 103 c 2
 170 104 l 1
 167 112 l 2
 158 146 159 243 168 267 c 2
396 1291 m 2
 398 1297 l 1
 483 1297 l 2
 530 1297 569 1296 570 1295 c 0
 571 1294 572 1288 573 1283 c 0
 581 1240 581 1182 573 1139 c 0
 571 1128 571 1124 573 1114 c 0
 582 1074 580 973 570 958 c 0
 569 957 619 956 682 956 c 0
 745 956 797 954 798 953 c 0
 806 940 809 855 803 818 c 0
 799 795 799 789 798 787 c 0
 797 786 745 785 683 785 c 2
 569 785 l 1
 572 776 l 2
 581 744 580 633 570 617 c 0
 569 616 570 611 572 606 c 0
 582 572 579 457 569 446 c 0
 568 445 529 444 482 444 c 2
 397 445 l 1
 395 453 l 2
 386 487 386 579 395 606 c 0
 396 610 396 619 395 624 c 0
 386 660 386 749 395 777 c 2
 398 785 l 1
 284 786 l 1
 170 786 l 1
 167 794 l 2
 158 828 159 925 168 949 c 2
 171 956 l 1
 284 956 l 1
 398 956 l 1
 395 965 l 2
 386 1001 386 1090 395 1118 c 0
 396 1122 396 1131 395 1136 c 0
 386 1172 386 1266 396 1291 c 2
EndSplineSet
EndChar

StartChar: a
Encoding: 97 97 46
Width: 851
VWidth: 0
Flags: W
HStem: -68 170<341.991 569 740.963 804.511> 104 169<170 227 342 452.056> 273 171<341.991 568> 616 169<284 569 627 634.186>
VStem: 163 188<104.125 270.646> 282 345<616.125 779>
LayerCount: 2
Back
Fore
SplineSet
282 779 m 2xf4
 284 785 l 1
 455 785 l 2
 549 785 626 784 627 783 c 0
 635 770 639 684 633 647 c 0
 629 624 628 619 627 617 c 0xf4
 626 616 651 614 682 614 c 0
 713 614 740 613 741 612 c 0
 748 600 752 512 747 479 c 0
 746 474 745 465 744 459 c 0
 742 445 741 442 743 431 c 0
 751 396 750 320 743 286 c 0
 741 275 741 271 743 260 c 0
 752 220 751 120 741 105 c 0
 740 104 752 102 768 102 c 0
 784 102 797 101 798 100 c 0
 803 92 807 40 806 6 c 0
 805 -32 801 -62 797 -66 c 0
 796 -67 757 -68 710 -68 c 2
 625 -67 l 1
 623 -59 l 2
 614 -25 614 67 623 94 c 2
 625 102 l 1
 597 103 l 1
 568 104 l 1
 566 112 l 2
 557 146 557 237 566 265 c 2
 569 273 l 1
 455 273 l 2
 392 273 341 272 342 271 c 0
 346 264 351 221 351 189 c 0
 351 156 346 112 342 105 c 0
 341 104 392 102 455 102 c 2
 569 102 l 1
 571 96 l 2
 581 69 580 -55 569 -66 c 0
 568 -67 491 -68 397 -68 c 2
 226 -67 l 1
 224 -59 l 2
 215 -25 216 67 225 94 c 2
 227 102 l 1
 198 103 l 1
 170 104 l 1
 167 112 l 2
 160 137 159 195 163 234 c 0xf8
 167 274 166 273 199 273 c 2
 227 273 l 1
 225 282 l 2
 216 318 215 412 225 437 c 2
 228 444 l 1
 398 444 l 1
 568 444 l 1
 566 453 l 2
 557 489 557 579 566 607 c 2
 569 614 l 1
 426 615 l 1
 283 616 l 1
 281 624 l 2
 272 658 273 755 282 779 c 2xf4
EndSplineSet
EndChar

StartChar: dieresis
Encoding: 168 168 47
Width: 851
VWidth: 0
Flags: W
HStem: 1298 170<171 348.811 569 747.443>
VStem: 167 179<1306 1461> 566 175<1299.05 1461>
LayerCount: 2
Back
Fore
SplineSet
566 1461 m 2
 569 1468 l 1
 654 1468 l 2
 701 1468 740 1466 741 1465 c 0
 748 1453 752 1365 747 1332 c 0
 746 1327 745 1319 744 1313 c 0
 743 1307 741 1300 740 1299 c 0
 739 1298 700 1298 653 1298 c 2
 568 1298 l 1
 566 1306 l 2
 557 1340 557 1437 566 1461 c 2
168 1461 m 2
 171 1468 l 1
 256 1468 l 2
 303 1468 341 1466 342 1465 c 0
 349 1453 354 1365 349 1332 c 0
 348 1327 347 1319 346 1313 c 0
 345 1307 343 1300 342 1299 c 0
 341 1298 302 1298 255 1298 c 2
 170 1298 l 1
 167 1306 l 2
 158 1340 159 1437 168 1461 c 2
EndSplineSet
EndChar

StartChar: five
Encoding: 53 53 48
Width: 851
VWidth: 0
Flags: W
HStem: -67 169<284 568> 104 169<171 293.186> 273 171<740.963 804.315> 444 173<341.963 405.999> 616 169<398 569 627 634.186> 956 170<342.019 747.443>
VStem: 167 232<453 571.959> 167 125<112 267> 396 231<616.125 779> 568 173<102.135 272.998>
LayerCount: 2
Back
Fore
SplineSet
168 267 m 2xe5
 171 273 l 1
 227 273 l 2
 258 273 285 272 286 271 c 0
 294 258 298 172 292 135 c 0
 288 111 287 107 285 105 c 0
 284 104 257 103 226 103 c 2
 170 104 l 1
 167 112 l 2
 158 146 159 243 168 267 c 2xe5
396 779 m 2xec80
 398 785 l 1
 512 785 l 2xec80
 575 785 626 784 627 783 c 0
 635 770 639 684 633 647 c 0
 629 624 628 619 627 617 c 0xe480
 626 616 651 614 682 614 c 0
 713 614 740 613 741 612 c 0
 749 599 753 513 747 476 c 0
 743 453 742 448 741 446 c 0
 740 445 752 444 768 444 c 0
 784 444 797 442 798 441 c 0
 806 428 809 343 803 306 c 0
 799 283 799 277 798 275 c 0
 797 274 784 273 768 273 c 0
 752 273 740 272 741 271 c 0
 745 264 749 221 749 189 c 0
 749 156 745 112 741 105 c 0xe440
 740 104 713 102 682 102 c 0
 651 102 626 101 627 100 c 0xe480
 638 82 637 -55 626 -66 c 0
 625 -67 548 -68 454 -68 c 2
 283 -67 l 1
 281 -59 l 2
 272 -25 273 72 282 96 c 2
 284 102 l 1
 426 102 l 1
 568 102 l 1
 566 112 l 2
 559 138 557 194 561 234 c 0
 565 274 564 273 597 273 c 2
 625 273 l 1
 623 282 l 2
 614 318 614 408 623 436 c 2
 625 443 l 1
 597 444 l 1
 568 445 l 1xe440
 566 453 l 2
 557 487 557 579 566 607 c 2
 569 614 l 1
 483 615 l 1
 397 616 l 1
 395 624 l 2
 386 658 387 755 396 779 c 2xec80
168 1120 m 2
 171 1126 l 1
 455 1126 l 2
 611 1126 740 1125 741 1124 c 0
 748 1112 752 1024 747 991 c 0
 746 987 745 978 744 972 c 0
 743 966 742 959 741 958 c 0
 740 957 652 956 540 956 c 0
 430 956 341 954 342 953 c 0
 351 938 353 837 345 798 c 0
 343 787 343 783 345 772 c 0
 354 732 352 632 342 617 c 0xe640
 341 616 354 614 370 614 c 0
 404 614 402 616 406 574 c 0
 410 531 406 453 399 446 c 0
 398 445 345 444 283 444 c 2
 170 445 l 1
 167 453 l 2xe640
 158 487 159 579 168 606 c 0
 169 610 169 619 168 624 c 0
 159 660 159 749 168 777 c 0
 169 781 169 789 168 794 c 0
 159 830 159 920 168 948 c 0
 169 952 169 960 168 965 c 0
 159 1001 158 1095 168 1120 c 2
EndSplineSet
EndChar

StartChar: p
Encoding: 112 112 49
Width: 851
VWidth: 0
Flags: W
HStem: -68 170<286 568 627 633.288> 273 171<740.963 804.315> 444 170<285.963 343.861> 616 169<341 569 627 634.186>
VStem: 111 175<-408 -68 103.067 444.459 617.096 779> 339 288<616.125 779> 561 188<102.469 270.646>
LayerCount: 2
Back
Fore
SplineSet
111 779 m 2xfc
 114 785 l 1
 199 785 l 2
 246 785 285 784 286 783 c 0
 294 770 297 684 291 647 c 0
 287 624 287 619 286 617 c 0
 285 616 297 614 313 614 c 0
 341 614 341 615 344 608 c 0
 351 590 353 510 348 476 c 0
 345 453 343 448 342 446 c 0
 341 445 329 444 313 444 c 0
 297 444 285 442 286 441 c 0
 295 426 296 325 288 286 c 0
 286 275 286 271 288 260 c 0
 297 220 296 120 286 105 c 0
 285 104 348 102 426 102 c 2
 568 102 l 1
 566 112 l 2
 559 138 557 194 561 234 c 0xfa
 565 274 564 273 597 273 c 2
 625 273 l 1
 623 282 l 2
 614 318 614 408 623 436 c 2
 625 443 l 1
 597 444 l 1
 568 445 l 1
 566 453 l 2
 557 487 557 579 566 607 c 2
 569 614 l 1
 454 615 l 1
 340 616 l 1
 338 624 l 2
 329 658 330 755 339 779 c 2
 341 785 l 1
 483 785 l 2
 561 785 626 784 627 783 c 0
 635 770 639 684 633 647 c 0
 629 624 628 619 627 617 c 0xfc
 626 616 651 614 682 614 c 0
 713 614 740 613 741 612 c 0
 749 599 753 513 747 476 c 0
 743 453 742 448 741 446 c 0
 740 445 752 444 768 444 c 0
 784 444 797 442 798 441 c 0
 806 428 809 343 803 306 c 0
 799 283 799 277 798 275 c 0
 797 274 784 273 768 273 c 0
 752 273 740 272 741 271 c 0
 745 264 749 221 749 189 c 0xfa
 749 156 745 112 741 105 c 0
 740 104 713 102 682 102 c 0
 651 102 626 101 627 100 c 0
 631 93 635 50 635 18 c 0
 635 -15 631 -59 627 -66 c 0
 626 -67 549 -68 455 -68 c 2
 285 -68 l 1
 287 -77 l 2
 296 -109 296 -220 286 -236 c 0
 285 -237 285 -243 287 -248 c 0
 297 -282 295 -396 285 -407 c 0
 284 -408 245 -409 198 -409 c 2
 113 -408 l 1
 111 -400 l 2
 102 -366 102 -274 111 -247 c 0
 112 -243 112 -235 111 -230 c 0
 102 -194 102 -104 111 -76 c 0
 112 -72 112 -64 111 -59 c 0
 102 -23 102 66 111 94 c 0
 112 98 112 107 111 112 c 0
 102 148 102 237 111 265 c 0
 112 269 112 277 111 282 c 0
 102 318 102 408 111 436 c 0
 112 440 112 448 111 453 c 0
 102 489 102 578 111 606 c 0
 112 610 112 619 111 624 c 0
 102 660 101 754 111 779 c 2xfc
EndSplineSet
EndChar

StartChar: Aacute
Encoding: 193 193 50
Width: 851
VWidth: 0
Flags: W
HStem: -68 21G<113 221.5 625 733.5> -68 21G<113 221.5 625 733.5> 273 171<341.991 568> 1106 20G<339 486.5> 1298 170<341 455 513 516.988> 1468 170<512.973 633.443>
VStem: 113 172<-67 271> 163 188<446 611.646> 220 188<614.156 782.646> 339 231<956.141 1120> 453 174<1468.14 1632>
LayerCount: 2
Back
Fore
SplineSet
339 1120 m 2xbc40
 341 1126 l 1
 455 1126 l 2
 518 1126 569 1125 570 1124 c 0
 578 1111 582 1025 576 988 c 0
 572 965 571 960 570 958 c 0xbc40
 569 957 581 956 597 956 c 0
 613 956 626 954 627 953 c 0
 635 940 639 855 633 818 c 0
 629 795 628 789 627 787 c 0
 626 786 638 785 654 785 c 0
 670 785 683 784 684 783 c 0
 692 770 696 684 690 647 c 0
 686 624 685 619 684 617 c 0
 683 616 695 614 711 614 c 0
 727 614 740 613 741 612 c 0
 742 611 743 605 744 600 c 0
 752 557 751 500 743 457 c 0
 741 446 741 441 743 431 c 0
 752 391 751 290 741 275 c 0
 740 274 752 273 768 273 c 0
 784 273 797 272 798 271 c 0
 799 270 800 264 801 259 c 0
 809 217 808 156 800 115 c 0
 798 104 798 100 800 90 c 0
 809 49 807 -56 797 -66 c 0
 796 -67 757 -68 710 -68 c 2
 625 -67 l 1
 623 -59 l 2
 614 -25 614 67 623 94 c 0
 624 98 624 107 623 112 c 0
 614 148 614 237 623 265 c 2
 625 273 l 1
 455 273 l 2
 361 273 285 272 286 271 c 0
 295 256 296 154 288 115 c 0
 286 104 286 101 288 90 c 0
 297 49 295 -56 285 -66 c 0
 284 -67 245 -68 198 -68 c 2
 113 -67 l 1xbe20
 111 -59 l 2
 102 -25 102 67 111 94 c 0
 112 98 112 107 111 112 c 0
 104 138 102 194 106 234 c 0
 110 274 109 273 142 273 c 2
 170 273 l 1
 168 282 l 2
 159 318 159 408 168 436 c 0
 169 440 169 448 168 453 c 0
 161 479 159 536 163 576 c 0xbd
 167 616 166 614 199 614 c 2
 227 614 l 1
 225 624 l 2
 218 650 216 706 220 746 c 0xbc80
 224 786 223 785 256 785 c 2
 284 785 l 1
 281 794 l 2
 274 820 273 877 277 917 c 0
 281 957 280 956 313 956 c 2
 341 956 l 1
 338 965 l 2
 329 1001 329 1095 339 1120 c 2xbc40
509 777 m 2
 512 785 l 1
 455 785 l 2
 424 785 398 784 399 783 c 0
 403 776 408 733 408 701 c 0x3c80
 408 668 403 624 399 617 c 0
 398 616 385 614 369 614 c 0
 353 614 341 613 342 612 c 0
 346 605 351 562 351 530 c 0x3d
 351 497 346 453 342 446 c 0
 341 445 392 444 455 444 c 2
 568 444 l 1
 566 453 l 2
 557 489 557 578 566 606 c 2
 569 614 l 1
 540 615 l 1
 511 616 l 1
 509 624 l 2
 500 658 500 749 509 777 c 2
453 1632 m 2x3c20
 455 1638 l 1
 540 1638 l 2
 587 1638 626 1637 627 1636 c 0
 634 1624 638 1536 633 1503 c 0
 632 1499 631 1490 630 1484 c 0
 629 1478 628 1471 627 1470 c 0x3c20
 626 1469 600 1468 569 1468 c 0
 538 1468 512 1466 513 1465 c 0
 524 1447 524 1310 513 1299 c 0
 512 1298 472 1298 425 1298 c 2
 340 1298 l 1
 338 1306 l 2
 329 1340 330 1437 339 1461 c 2x3c40
 341 1468 l 1
 398 1468 l 1
 455 1468 l 1
 452 1477 l 2
 443 1513 443 1607 453 1632 c 2x3c20
EndSplineSet
EndChar

StartChar: numbersign
Encoding: 35 35 51
Width: 851
VWidth: 0
Flags: W
HStem: -68 21G<226 334.5 511 619.5> -68 21G<226 334.5 511 619.5> 102 171<114 227 399.035 511 683.972 804.315> 614 171<114 227 398.973 511 683.972 804.315>
VStem: 225 174<-67 102 273.045 613.955 819.769 949> 509 178<-67 93 273.018 606 819.769 949>
LayerCount: 2
Back
Fore
SplineSet
225 949 m 2xbc
 228 956 l 1
 313 956 l 2
 360 956 398 954 399 953 c 0
 407 940 411 855 405 818 c 0
 401 795 400 789 399 787 c 0
 398 786 424 785 455 785 c 2
 511 785 l 1
 509 794 l 2
 500 830 499 924 509 949 c 2
 512 956 l 1
 597 956 l 2
 644 956 683 954 684 953 c 0
 692 940 696 855 690 818 c 0
 686 795 685 789 684 787 c 0
 683 786 708 785 739 785 c 0
 770 785 797 784 798 783 c 0
 806 770 809 684 803 647 c 0
 799 624 799 619 798 617 c 0
 797 616 770 614 739 614 c 0
 708 614 683 613 684 612 c 0
 693 597 695 496 687 457 c 0
 685 446 685 442 687 431 c 0
 696 391 694 290 684 275 c 0
 683 274 708 273 739 273 c 0
 770 273 797 272 798 271 c 0
 806 258 809 172 803 135 c 0
 799 112 799 107 798 105 c 0
 797 104 771 102 740 102 c 2
 683 102 l 1
 686 93 l 2
 696 59 693 -55 683 -66 c 0
 682 -67 643 -68 596 -68 c 2
 511 -67 l 1
 509 -59 l 2
 500 -25 500 67 509 94 c 2
 512 102 l 1
 455 102 l 1
 399 102 l 1
 401 93 l 2
 411 59 409 -55 399 -66 c 0
 398 -67 358 -68 311 -68 c 2
 226 -67 l 1
 224 -59 l 2
 215 -25 216 68 225 95 c 2
 227 102 l 1
 170 103 l 1
 113 104 l 1
 111 112 l 2
 102 146 102 243 111 267 c 2
 114 273 l 1
 170 273 l 1
 227 273 l 1
 225 282 l 2
 216 318 216 408 225 436 c 0
 226 440 226 448 225 453 c 0
 216 489 216 579 225 607 c 2
 227 614 l 1
 170 615 l 1
 113 616 l 1
 111 624 l 2
 102 658 102 755 111 779 c 2
 114 785 l 1
 170 785 l 1
 227 785 l 1
 225 794 l 2
 216 830 215 924 225 949 c 2xbc
509 606 m 2
 512 614 l 1
 455 614 l 2
 424 614 398 613 399 612 c 0
 408 597 410 496 402 457 c 0
 400 446 400 442 402 431 c 0
 411 391 409 290 399 275 c 0
 398 274 424 273 455 273 c 2
 511 273 l 1
 509 282 l 2
 500 318 500 408 509 436 c 0
 510 440 510 448 509 453 c 0
 500 489 500 578 509 606 c 2
EndSplineSet
EndChar

StartChar: six
Encoding: 54 54 52
Width: 851
VWidth: 0
Flags: W
HStem: -67 169<398 625> 105 339<341.963 400.351 683.972 798.462> 444 170<398 625 684 691.186> 785 171<341.963 398> 957 169<398 690.443>
VStem: 163 179<443.832 784.998> 225 177<104 273 785 949> 396 288<-66 96 445.125 608 958.051 1120>
LayerCount: 2
Back
Fore
SplineSet
396 608 m 2xf9
 398 614 l 1
 540 614 l 2
 618 614 683 613 684 612 c 0
 692 599 696 513 690 476 c 0
 686 453 685 448 684 446 c 0
 683 445 708 444 739 444 c 0
 770 444 797 442 798 441 c 0
 799 440 800 434 801 429 c 0
 809 386 808 329 800 286 c 0
 798 275 798 270 800 260 c 0
 809 220 808 120 798 105 c 0
 797 104 770 102 739 102 c 0
 708 102 683 101 684 100 c 0
 695 82 694 -55 683 -66 c 0
 682 -67 617 -68 539 -68 c 2
 397 -67 l 1
 395 -59 l 2
 386 -25 387 72 396 96 c 2
 398 102 l 1
 512 102 l 1
 625 102 l 1
 623 112 l 2
 614 148 614 237 623 265 c 0
 624 269 624 277 623 282 c 0
 614 318 614 408 623 436 c 2
 625 444 l 1
 511 444 l 1
 397 445 l 1
 395 453 l 2
 386 487 387 584 396 608 c 2xf9
225 949 m 2xfa
 228 956 l 1
 313 956 l 1
 398 956 l 1
 401 949 l 2
 411 923 409 803 399 787 c 0
 398 786 385 785 369 785 c 0
 353 785 341 784 342 783 c 0
 351 768 353 666 345 627 c 0
 343 616 343 613 345 602 c 0
 354 562 352 461 342 446 c 0xfc
 341 445 354 444 370 444 c 0
 404 444 402 445 406 403 c 0
 410 367 408 318 402 286 c 0
 400 275 400 270 402 260 c 0
 411 219 409 115 399 105 c 0
 398 104 358 103 311 103 c 2
 226 104 l 1
 224 112 l 2
 215 146 216 238 225 265 c 2xfa
 227 273 l 1
 198 274 l 1
 170 274 l 1
 167 282 l 2
 158 316 159 409 168 436 c 0
 169 440 169 448 168 453 c 0
 159 489 159 578 168 606 c 0
 169 610 169 619 168 624 c 0
 161 650 159 706 163 746 c 0xfc
 167 786 166 785 199 785 c 2
 227 785 l 1
 225 794 l 2
 216 830 215 924 225 949 c 2xfa
396 1120 m 2xf9
 398 1126 l 1
 540 1126 l 2
 618 1126 683 1125 684 1124 c 0
 691 1112 695 1024 690 991 c 0
 689 986 688 977 687 971 c 0
 686 965 684 959 683 958 c 0
 682 957 617 956 539 956 c 2
 397 957 l 1
 395 965 l 2
 386 999 387 1096 396 1120 c 2xf9
EndSplineSet
EndChar

StartChar: logicalnot
Encoding: 172 172 53
Width: 851
VWidth: 0
Flags: W
HStem: 616 169<114 625>
LayerCount: 2
Back
Fore
SplineSet
111 779 m 2
 114 785 l 1
 455 785 l 2
 643 785 797 784 798 783 c 0
 799 782 800 776 801 771 c 0
 809 728 808 670 800 627 c 0
 798 616 798 612 800 602 c 0
 807 567 807 491 800 457 c 0
 798 446 798 442 800 431 c 0
 809 390 807 285 797 275 c 0
 796 274 757 274 710 274 c 2
 625 274 l 1
 623 282 l 2
 614 316 614 409 623 436 c 0
 624 440 624 448 623 453 c 0
 614 489 614 579 623 607 c 2
 625 614 l 1
 369 615 l 1
 113 616 l 1
 111 624 l 2
 102 658 102 755 111 779 c 2
EndSplineSet
EndChar

StartChar: two
Encoding: 50 50 54
Width: 851
VWidth: 0
Flags: W
HStem: -67 169<171 284 456.001 747.443> 786 170<170 227> 956 170<286 569 627 634.186>
VStem: 167 118<794 954.839> 511 173<444.069 613.996>
LayerCount: 2
Back
Fore
SplineSet
225 1120 m 2
 228 1126 l 1
 427 1126 l 2
 537 1126 626 1125 627 1124 c 0
 635 1111 639 1025 633 988 c 0
 629 965 628 960 627 958 c 0
 626 957 651 956 682 956 c 0
 713 956 740 954 741 953 c 0
 742 952 743 946 744 941 c 0
 752 898 751 841 743 798 c 0
 741 787 741 782 743 772 c 0
 752 732 751 632 741 617 c 0
 740 616 727 614 711 614 c 0
 695 614 683 613 684 612 c 0
 688 605 692 562 692 530 c 0
 692 497 688 453 684 446 c 0
 683 445 656 444 625 444 c 0
 594 444 569 442 570 441 c 0
 574 434 579 392 579 360 c 0
 579 327 574 282 570 275 c 0
 569 274 543 273 512 273 c 0
 481 273 455 272 456 271 c 0
 460 264 465 221 465 189 c 0
 465 156 460 112 456 105 c 0
 455 104 519 102 597 102 c 0
 675 102 740 101 741 100 c 0
 748 88 752 0 747 -33 c 0
 746 -38 745 -47 744 -53 c 0
 743 -59 741 -65 740 -66 c 0
 739 -67 610 -68 454 -68 c 2
 170 -67 l 1
 167 -59 l 2
 158 -25 159 72 168 96 c 2
 171 102 l 1
 227 102 l 1
 284 102 l 1
 281 112 l 2
 272 148 272 242 282 267 c 2
 284 273 l 1
 341 273 l 1
 398 273 l 1
 395 282 l 2
 386 318 386 412 396 437 c 2
 398 444 l 1
 455 444 l 1
 511 444 l 1
 509 453 l 2
 502 479 500 536 504 576 c 0
 508 616 507 614 540 614 c 2
 568 614 l 1
 566 624 l 2
 557 660 557 749 566 777 c 0
 567 781 567 789 566 794 c 0
 557 830 557 920 566 948 c 2
 569 956 l 1
 426 956 l 2
 348 956 285 954 286 953 c 0
 297 935 296 798 285 787 c 0
 284 786 257 786 226 786 c 2
 170 786 l 1
 167 794 l 2
 160 819 159 878 163 917 c 0
 167 957 166 956 199 956 c 2
 227 956 l 1
 225 965 l 2
 216 1001 215 1095 225 1120 c 2
EndSplineSet
EndChar

StartChar: aring
Encoding: 229 229 55
Width: 851
VWidth: 0
Flags: W
HStem: -68 170<341.991 569 740.963 804.511> 104 169<170 227 342 452.056> 273 171<341.991 568> 616 169<284 569 627 634.186> 956 170<398.982 568> 1126 171<283 341 626.963 690.443> 1297 171<398.982 569 627 633.472>
VStem: 163 188<104.125 270.646> 277 131<1128.12 1294.65> 282 345<616.125 779> 338 289<958 1118 1333.59 1465>
LayerCount: 2
Back
Fore
SplineSet
282 779 m 2xfe40
 284 785 l 1
 455 785 l 2
 549 785 626 784 627 783 c 0xfe20
 635 770 639 684 633 647 c 0
 629 624 628 619 627 617 c 0xfe40
 626 616 651 614 682 614 c 0
 713 614 740 613 741 612 c 0
 748 600 752 512 747 479 c 0
 746 474 745 465 744 459 c 0
 742 445 741 442 743 431 c 0
 751 396 750 320 743 286 c 0
 741 275 741 271 743 260 c 0
 752 220 751 120 741 105 c 0
 740 104 752 102 768 102 c 0
 784 102 797 101 798 100 c 0
 803 92 807 40 806 6 c 0
 805 -32 801 -62 797 -66 c 0
 796 -67 757 -68 710 -68 c 2
 625 -67 l 1
 623 -59 l 2
 614 -25 614 67 623 94 c 2
 625 102 l 1
 597 103 l 1
 568 104 l 1
 566 112 l 2
 557 146 557 237 566 265 c 2
 569 273 l 1
 455 273 l 2
 392 273 341 272 342 271 c 0
 346 264 351 221 351 189 c 0
 351 156 346 112 342 105 c 0
 341 104 392 102 455 102 c 2
 569 102 l 1
 571 96 l 2
 581 69 580 -55 569 -66 c 0
 568 -67 491 -68 397 -68 c 2
 226 -67 l 1
 224 -59 l 2
 215 -25 216 67 225 94 c 2
 227 102 l 1
 198 103 l 1
 170 104 l 1
 167 112 l 2
 160 137 159 195 163 234 c 0xff
 167 274 166 273 199 273 c 2
 227 273 l 1
 225 282 l 2
 216 318 215 412 225 437 c 2
 228 444 l 1
 398 444 l 1
 568 444 l 1
 566 453 l 2
 557 489 557 579 566 607 c 2
 569 614 l 1
 426 615 l 1
 283 616 l 1
 281 624 l 2
 272 658 273 755 282 779 c 2xfe40
339 1461 m 2
 341 1468 l 1
 483 1468 l 2
 561 1468 626 1466 627 1465 c 0
 634 1453 638 1365 633 1332 c 0
 632 1328 631 1319 630 1313 c 0
 629 1307 628 1301 627 1300 c 0
 626 1299 638 1297 654 1297 c 0
 670 1297 683 1296 684 1295 c 0
 691 1283 695 1195 690 1162 c 0
 689 1158 688 1148 687 1142 c 0
 686 1136 685 1130 684 1129 c 0
 683 1128 670 1126 654 1126 c 0
 638 1126 626 1125 627 1124 c 0
 638 1106 637 969 626 958 c 0
 625 957 560 956 482 956 c 2
 340 957 l 1
 338 965 l 2
 329 999 329 1091 338 1118 c 2xfe20
 341 1126 l 1
 312 1127 l 1
 283 1128 l 1
 281 1136 l 2
 274 1161 273 1219 277 1258 c 0xfe80
 281 1298 280 1297 313 1297 c 2
 341 1297 l 1
 338 1306 l 2
 329 1342 329 1436 339 1461 c 2
566 1289 m 2
 569 1297 l 1
 483 1297 l 2
 436 1297 398 1296 399 1295 c 0
 403 1288 408 1245 408 1213 c 0xfe80
 408 1180 403 1136 399 1129 c 0
 398 1128 436 1126 483 1126 c 2
 568 1126 l 1
 566 1136 l 2
 557 1172 557 1261 566 1289 c 2
EndSplineSet
EndChar

StartChar: colon
Encoding: 58 58 56
Width: 851
VWidth: 0
Flags: W
HStem: -67 340<341 571.213> 616 340<341 571.213>
VStem: 339 234<-66 267 617 955.047>
LayerCount: 2
Back
Fore
SplineSet
339 267 m 2
 341 273 l 1
 455 273 l 2
 518 273 569 272 570 271 c 0
 577 259 581 171 576 138 c 0
 575 133 574 124 573 118 c 0
 571 104 571 101 573 90 c 0
 582 49 579 -56 569 -66 c 0
 568 -67 516 -68 454 -68 c 2
 340 -67 l 1
 338 -59 l 2
 329 -25 329 67 338 94 c 0
 339 98 340 107 339 112 c 0
 330 148 329 242 339 267 c 2
339 949 m 2
 341 956 l 1
 455 956 l 2
 518 956 569 954 570 953 c 0
 577 941 581 853 576 820 c 0
 575 815 574 807 573 801 c 0
 571 787 571 783 573 772 c 0
 582 731 579 627 569 617 c 0
 568 616 516 615 454 615 c 2
 340 616 l 1
 338 624 l 2
 329 658 329 750 338 777 c 0
 339 781 340 789 339 794 c 0
 330 830 329 924 339 949 c 2
EndSplineSet
EndChar

StartChar: uni00B9
Encoding: 185 185 57
Width: 851
VWidth: 0
Flags: W
HStem: 957 169<340 398>
VStem: 395 121<445 948 1126 1291>
LayerCount: 2
Back
Fore
SplineSet
396 1291 m 2
 398 1297 l 1
 455 1297 l 2
 486 1297 512 1296 513 1295 c 0
 514 1294 515 1288 516 1283 c 0
 524 1240 524 1182 516 1139 c 0
 514 1128 514 1124 516 1114 c 0
 523 1079 523 1003 516 969 c 0
 514 958 514 954 516 943 c 0
 523 908 523 832 516 798 c 0
 514 787 514 783 516 772 c 0
 523 737 523 661 516 627 c 0
 514 616 514 613 516 602 c 0
 525 561 523 456 513 446 c 0
 512 445 485 444 454 444 c 2
 397 445 l 1
 395 453 l 2
 386 487 386 579 395 606 c 0
 396 610 396 619 395 624 c 0
 386 660 386 749 395 777 c 0
 396 781 396 789 395 794 c 0
 386 830 386 920 395 948 c 2
 398 955 l 1
 369 956 l 1
 340 957 l 1
 338 965 l 2
 331 990 329 1049 333 1088 c 0
 337 1128 336 1126 369 1126 c 2
 398 1126 l 1
 395 1136 l 2
 386 1172 386 1266 396 1291 c 2
EndSplineSet
EndChar

StartChar: Ccedilla
Encoding: 199 199 58
Width: 851
VWidth: 0
Flags: W
HStem: -408 169<284 455> -68 170<342.001 455 569.972 625> 102 171<683.972 804.315> 786 170<683.972 805.186> 956 170<342.001 625 684 691.186>
VStem: 106 180<274.125 784.998> 282 402<956.141 1120> 283 173<-408 -245> 623 175<105.096 267 787.096 794>
LayerCount: 2
Back
Fore
SplineSet
282 -245 m 2xfa
 284 -239 l 1
 370 -239 l 1
 455 -239 l 1
 458 -245 l 2
 468 -272 467 -396 456 -407 c 0
 455 -408 415 -409 368 -409 c 2
 283 -408 l 1xf9
 281 -400 l 2
 272 -366 273 -269 282 -245 c 2xfa
282 1120 m 2xfa
 284 1126 l 1
 483 1126 l 2
 593 1126 683 1125 684 1124 c 0
 692 1111 696 1025 690 988 c 0
 686 965 685 960 684 958 c 0xfa
 683 957 708 956 739 956 c 0
 770 956 797 954 798 953 c 0
 806 940 810 855 804 818 c 0
 800 794 799 789 797 787 c 0
 796 786 757 786 710 786 c 2
 625 786 l 1
 623 794 l 2
 614 828 614 921 623 948 c 2
 625 956 l 1
 483 956 l 2
 405 956 341 954 342 953 c 0
 346 946 351 904 351 872 c 0
 351 839 346 794 342 787 c 0
 341 786 329 785 313 785 c 0
 297 785 285 784 286 783 c 0
 295 768 296 666 288 627 c 0
 286 616 286 613 288 602 c 0
 295 567 295 491 288 457 c 0
 286 446 286 442 288 431 c 0
 297 391 296 290 286 275 c 0
 285 274 297 273 313 273 c 0
 329 273 341 272 342 271 c 0
 350 258 354 174 348 135 c 0
 345 115 344 108 342 105 c 0
 341 104 405 102 483 102 c 2
 625 102 l 1
 623 112 l 2
 614 148 613 242 623 267 c 2
 626 273 l 1
 711 273 l 2
 758 273 797 272 798 271 c 0
 806 258 809 172 803 135 c 0
 799 112 799 107 798 105 c 0xfc80
 797 104 770 102 739 102 c 0
 708 102 683 101 684 100 c 0
 688 93 692 50 692 18 c 0
 692 -15 688 -59 684 -66 c 0xfa
 683 -67 656 -68 625 -68 c 0
 594 -68 569 -70 570 -71 c 0
 581 -89 580 -226 569 -237 c 0
 568 -238 542 -238 511 -238 c 2
 454 -238 l 1
 452 -230 l 2
 443 -196 443 -103 452 -76 c 2
 455 -68 l 1
 369 -68 l 1
 283 -67 l 1xf9
 281 -59 l 2
 272 -25 273 68 282 95 c 2xfa
 284 102 l 1
 227 103 l 1
 170 104 l 1
 167 112 l 2
 158 146 159 238 168 265 c 2
 170 273 l 1
 142 274 l 1
 113 274 l 1
 111 282 l 2
 102 316 102 409 111 436 c 0
 112 440 112 448 111 453 c 0
 102 489 102 578 111 606 c 0
 112 610 112 619 111 624 c 0
 104 650 102 706 106 746 c 0xfc
 110 786 109 785 142 785 c 2
 170 785 l 1
 168 794 l 2
 159 830 158 924 168 949 c 2
 171 956 l 1
 227 956 l 1
 284 956 l 1
 281 965 l 2
 272 1001 272 1095 282 1120 c 2xfa
EndSplineSet
EndChar

StartChar: Edieresis
Encoding: 203 203 59
Width: 851
VWidth: 0
Flags: W
HStem: -68 170<399 747.443> 444 173<399 747.996> 956 170<399.01 748.186> 1298 170<228 405.811 569 747.443>
VStem: 225 516<-65.9495 100 989.77 1120> 225 177<1299.05 1461> 566 175<1299.05 1461>
LayerCount: 2
Back
Fore
SplineSet
225 1120 m 2xf8
 228 1126 l 1
 483 1126 l 2
 624 1126 740 1125 741 1124 c 0
 749 1111 753 1025 747 988 c 0
 743 965 742 960 741 958 c 0
 740 957 663 956 569 956 c 0
 475 956 398 954 399 953 c 0
 408 938 410 837 402 798 c 0
 400 787 400 783 402 772 c 0
 411 732 409 632 399 617 c 0
 398 616 475 614 569 614 c 0
 663 614 740 613 741 612 c 0
 749 599 753 513 747 476 c 0
 743 453 742 448 741 446 c 0xf6
 740 445 663 444 569 444 c 2
 399 444 l 1
 401 435 l 2
 410 403 410 292 400 276 c 0
 399 275 399 269 401 264 c 0
 410 231 409 121 399 105 c 0
 398 104 475 102 569 102 c 0
 663 102 740 101 741 100 c 0
 748 88 752 0 747 -33 c 0
 746 -38 745 -47 744 -53 c 0
 743 -59 741 -65 740 -66 c 0
 739 -67 623 -68 482 -68 c 2
 226 -67 l 1
 224 -59 l 2
 215 -25 216 67 225 94 c 0xf8
 226 98 226 107 225 112 c 0
 216 148 216 237 225 265 c 0
 226 269 226 277 225 282 c 0
 216 318 216 408 225 436 c 0
 226 440 226 448 225 453 c 0
 216 489 216 578 225 606 c 0
 226 610 226 619 225 624 c 0
 216 660 216 749 225 777 c 0
 226 781 226 789 225 794 c 0
 216 830 216 920 225 948 c 0
 226 952 226 960 225 965 c 0xf4
 216 1001 215 1095 225 1120 c 2xf8
566 1461 m 2
 569 1468 l 1
 654 1468 l 2
 701 1468 740 1466 741 1465 c 0
 748 1453 752 1365 747 1332 c 0
 746 1327 745 1319 744 1313 c 0
 743 1307 741 1300 740 1299 c 0
 739 1298 700 1298 653 1298 c 2
 568 1298 l 1
 566 1306 l 2
 557 1340 557 1437 566 1461 c 2
225 1461 m 2
 228 1468 l 1
 313 1468 l 2
 360 1468 398 1466 399 1465 c 0
 406 1453 411 1365 406 1332 c 0
 405 1327 403 1319 402 1313 c 0
 401 1307 400 1300 399 1299 c 0
 398 1298 358 1298 311 1298 c 2
 226 1298 l 1
 224 1306 l 2
 215 1340 216 1437 225 1461 c 2
EndSplineSet
EndChar

StartChar: acute
Encoding: 180 180 60
Width: 851
VWidth: 0
Flags: W
HStem: 1298 170<284 455> 1469 169<455 633.443>
VStem: 453 177<1470.05 1632>
LayerCount: 2
Back
Fore
SplineSet
282 1461 m 2
 284 1468 l 1
 370 1468 l 1
 455 1468 l 1
 458 1461 l 2
 468 1434 467 1310 456 1299 c 0
 455 1298 415 1298 368 1298 c 2
 283 1298 l 1
 281 1306 l 2
 272 1340 273 1437 282 1461 c 2
453 1632 m 2
 455 1638 l 1
 540 1638 l 2
 587 1638 626 1637 627 1636 c 0
 634 1624 638 1536 633 1503 c 0
 632 1498 631 1489 630 1483 c 0
 629 1477 627 1471 626 1470 c 0
 625 1469 586 1468 539 1468 c 2
 454 1469 l 1
 452 1477 l 2
 443 1511 444 1608 453 1632 c 2
EndSplineSet
EndChar

StartChar: iacute
Encoding: 237 237 61
Width: 851
VWidth: 0
Flags: W
HStem: -67 169<228 398 569.982 748.186> 616 169<284 398> 957 169<341 454.504> 1126 171<512.973 633.443>
VStem: 283 290<616 779> 452 175<1129.05 1291>
LayerCount: 2
Back
Fore
SplineSet
282 779 m 2xf8
 284 785 l 1
 427 785 l 2
 505 785 569 784 570 783 c 0
 571 782 572 776 573 771 c 0
 581 728 581 670 573 627 c 0
 571 616 571 612 573 602 c 0
 580 567 580 491 573 457 c 0
 571 446 571 442 573 431 c 0
 580 396 580 320 573 286 c 0
 571 275 571 271 573 260 c 0
 582 220 580 120 570 105 c 0
 569 104 607 102 654 102 c 0
 701 102 740 101 741 100 c 0
 749 87 753 1 747 -36 c 0
 743 -60 742 -64 740 -66 c 0
 739 -67 623 -68 482 -68 c 2
 226 -67 l 1
 224 -59 l 2
 215 -25 216 72 225 96 c 2
 228 102 l 1
 313 102 l 1
 398 102 l 1
 395 112 l 2
 386 148 386 237 395 265 c 0
 396 269 396 277 395 282 c 0
 386 318 386 408 395 436 c 0
 396 440 396 448 395 453 c 0
 386 489 386 579 395 607 c 2
 398 614 l 1
 341 615 l 1
 283 616 l 1
 281 624 l 2
 272 658 273 755 282 779 c 2xf8
453 1291 m 2
 455 1297 l 1
 540 1297 l 2
 587 1297 626 1296 627 1295 c 0
 634 1283 638 1195 633 1162 c 0
 632 1158 631 1148 630 1142 c 0
 629 1136 628 1130 627 1129 c 0
 626 1128 600 1126 569 1126 c 0
 538 1126 512 1125 513 1124 c 0
 524 1106 524 969 513 958 c 0
 512 957 472 956 425 956 c 2
 340 957 l 1
 338 965 l 2
 329 999 330 1096 339 1120 c 2
 341 1126 l 1
 398 1126 l 1
 455 1126 l 1
 452 1136 l 2xf4
 443 1172 443 1266 453 1291 c 2
EndSplineSet
EndChar

StartChar: onehalf
Encoding: 189 189 62
Width: 851
VWidth: 0
Flags: W
HStem: -238 170<454 511 626.972 747.443> -67 169<170 227> 273 171<683.963 748.186> 444 170<512 624.399> 956 170<113 170 569.963 634.186>
VStem: 168 120<-59 101.996 453 955 1126 1291> 227 115<102 272.998> 277 122<275.925 443.998> 333 132<444.141 611.646> 390 132<614.156 782.646> 447 297<-236.949 -71.6177> 447 132<785.141 952.646> 509 175<477.77 608> 509 118<-67.9551 101.996 989.77 1120> 568 116<102.001 272.998>
LayerCount: 2
Back
Fore
SplineSet
509 608 m 2xf808
 512 614 l 1
 597 614 l 2
 644 614 683 613 684 612 c 0
 692 599 696 513 690 476 c 0
 686 453 685 448 684 446 c 0
 683 445 695 444 711 444 c 0
 727 444 740 442 741 441 c 0
 749 428 753 343 747 306 c 0
 743 283 742 277 741 275 c 0
 740 274 727 273 711 273 c 0
 695 273 683 272 684 271 c 0
 688 264 692 221 692 189 c 0
 692 156 688 112 684 105 c 0xf802
 683 104 670 102 654 102 c 0
 638 102 626 101 627 100 c 0
 631 93 635 50 635 18 c 0
 635 -15 631 -59 627 -66 c 0xf804
 626 -67 651 -68 682 -68 c 0
 713 -68 740 -70 741 -71 c 0
 748 -83 752 -171 747 -204 c 0
 746 -209 745 -217 744 -223 c 0
 743 -229 741 -236 740 -237 c 0
 739 -238 674 -238 596 -238 c 2
 454 -238 l 1
 452 -230 l 2
 445 -205 443 -146 447 -107 c 0xf820
 451 -67 450 -68 483 -68 c 2
 511 -68 l 1
 509 -59 l 2xf804
 502 -33 500 24 504 64 c 0
 508 104 507 102 540 102 c 2
 568 102 l 1
 566 112 l 2
 559 138 557 194 561 234 c 0
 565 274 564 273 597 273 c 2
 625 273 l 1
 623 282 l 2
 614 318 614 408 623 436 c 2
 625 444 l 1
 568 444 l 1xf802
 511 445 l 1
 509 453 l 2xf804
 500 487 500 584 509 608 c 2xf808
509 1120 m 2xf804
 512 1126 l 1
 569 1126 l 2
 600 1126 626 1125 627 1124 c 0
 635 1111 639 1025 633 988 c 0
 629 965 628 960 627 958 c 0xf804
 626 957 613 956 597 956 c 0
 581 956 569 954 570 953 c 0
 574 946 579 904 579 872 c 0xf810
 579 839 574 794 570 787 c 0
 569 786 556 785 540 785 c 0
 524 785 512 784 513 783 c 0
 517 776 522 733 522 701 c 0xf840
 522 668 517 624 513 617 c 0
 512 616 499 614 483 614 c 0
 467 614 455 613 456 612 c 0
 460 605 465 562 465 530 c 0xf880
 465 497 460 453 456 446 c 0
 455 445 442 444 426 444 c 0
 410 444 398 442 399 441 c 0
 410 423 410 293 399 275 c 0xf9
 398 274 385 273 369 273 c 0
 353 273 341 272 342 271 c 0
 346 264 351 221 351 189 c 0
 351 156 346 112 342 105 c 0
 341 104 329 102 313 102 c 0
 297 102 285 101 286 100 c 0
 297 82 296 -55 285 -66 c 0
 284 -67 257 -68 226 -68 c 2
 170 -67 l 1
 167 -59 l 2
 160 -34 159 25 163 64 c 0
 167 104 166 102 199 102 c 2
 227 102 l 1xfa
 225 112 l 2
 218 138 216 194 220 234 c 0
 224 274 223 273 256 273 c 2
 284 273 l 1
 281 282 l 2
 274 308 273 365 277 405 c 0xf9
 281 445 280 444 313 444 c 2
 341 444 l 1
 338 453 l 2
 331 479 329 536 333 576 c 0xf880
 337 616 336 614 369 614 c 2
 398 614 l 1
 395 624 l 2
 388 650 386 706 390 746 c 0xf840
 394 786 393 785 426 785 c 2
 455 785 l 1
 452 794 l 2
 445 820 443 877 447 917 c 0xf810
 451 957 450 956 483 956 c 2
 511 956 l 1
 509 965 l 2
 500 1001 499 1095 509 1120 c 2xf804
168 1291 m 2xfc
 171 1297 l 1
 227 1297 l 2xfa
 258 1297 285 1296 286 1295 c 0
 287 1294 288 1288 289 1283 c 0
 297 1240 296 1182 288 1139 c 0
 286 1128 286 1124 288 1114 c 0
 295 1079 295 1003 288 969 c 0
 286 958 286 954 288 943 c 0
 295 908 295 832 288 798 c 0
 286 787 286 783 288 772 c 0
 295 737 295 661 288 627 c 0
 286 616 286 613 288 602 c 0
 297 561 295 456 285 446 c 0
 284 445 257 444 226 444 c 2
 170 445 l 1
 167 453 l 2
 158 487 159 579 168 606 c 0
 169 610 169 619 168 624 c 0
 159 660 159 749 168 777 c 0
 169 781 169 789 168 794 c 0
 159 830 159 920 168 948 c 2
 170 955 l 1
 142 956 l 1
 113 957 l 1
 111 965 l 2
 104 990 102 1049 106 1088 c 0
 110 1128 109 1126 142 1126 c 2
 170 1126 l 1
 168 1136 l 2
 159 1172 158 1266 168 1291 c 2xfc
EndSplineSet
EndChar

StartChar: semicolon
Encoding: 59 59 63
Width: 851
VWidth: 0
Flags: W
HStem: -409 170<171 284 399 402.988> -68 341<512.973 628.276> 616 340<398 628.213>
VStem: 167 232<-400 -245> 395 235<-59 267 617 955.047>
LayerCount: 2
Back
Fore
SplineSet
396 267 m 2xe8
 398 273 l 1
 512 273 l 2
 575 273 626 272 627 271 c 0
 634 259 638 171 633 138 c 0
 632 133 631 124 630 118 c 0
 628 104 628 101 630 90 c 0xe8
 639 50 637 -51 627 -66 c 0
 626 -67 600 -68 569 -68 c 0
 538 -68 512 -70 513 -71 c 0
 517 -78 522 -120 522 -152 c 0
 522 -185 517 -230 513 -237 c 0
 512 -238 486 -239 455 -239 c 0
 424 -239 398 -240 399 -241 c 0
 410 -259 410 -396 399 -407 c 0
 398 -408 345 -409 283 -409 c 2
 170 -408 l 1
 167 -400 l 2xf0
 158 -366 159 -269 168 -245 c 2
 171 -239 l 1
 227 -239 l 1
 284 -239 l 1
 281 -230 l 2
 272 -194 272 -100 282 -75 c 2
 284 -68 l 1
 341 -68 l 1
 398 -68 l 1
 395 -59 l 2
 386 -23 386 66 395 94 c 0
 396 98 396 107 395 112 c 0
 386 148 386 242 396 267 c 2xe8
396 949 m 2
 398 956 l 1
 512 956 l 2
 575 956 626 954 627 953 c 0
 634 941 638 853 633 820 c 0
 632 815 631 807 630 801 c 0
 628 787 628 783 630 772 c 0
 639 731 636 627 626 617 c 0
 625 616 573 615 511 615 c 2
 397 616 l 1
 395 624 l 2
 386 658 386 750 395 777 c 0
 396 781 396 789 395 794 c 0
 386 830 386 924 396 949 c 2
EndSplineSet
EndChar

StartChar: SF010000
Encoding: 9484 9484 64
Width: 851
VWidth: 0
Flags: W
HStem: 614 171<513.01 853>
VStem: 395 458
LayerCount: 2
Back
Fore
SplineSet
396 779 m 2
 398 785 l 1
 626 785 l 1
 853 785 l 1
 853 700 l 1
 853 614 l 1
 683 614 l 2
 589 614 512 613 513 612 c 0
 522 597 524 496 516 457 c 0
 514 446 514 442 516 431 c 0
 523 396 523 320 516 286 c 0
 514 275 514 271 516 260 c 0
 523 225 523 149 516 115 c 0
 514 104 514 101 516 90 c 0
 523 55 523 -21 516 -55 c 0
 514 -66 514 -70 516 -81 c 0
 523 -116 523 -192 516 -226 c 0
 514 -237 514 -241 516 -252 c 0
 525 -293 523 -397 513 -407 c 0
 512 -408 485 -409 454 -409 c 2
 397 -408 l 1
 395 -400 l 2
 386 -366 386 -274 395 -247 c 0
 396 -243 396 -235 395 -230 c 0
 386 -194 386 -104 395 -76 c 0
 396 -72 396 -64 395 -59 c 0
 386 -23 386 66 395 94 c 0
 396 98 396 107 395 112 c 0
 386 148 386 237 395 265 c 0
 396 269 396 277 395 282 c 0
 386 318 386 408 395 436 c 0
 396 440 396 448 395 453 c 0
 386 489 386 578 395 606 c 0
 396 610 396 619 395 624 c 0
 386 660 386 754 396 779 c 2
EndSplineSet
EndChar

StartChar: odieresis
Encoding: 246 246 65
Width: 851
VWidth: 0
Flags: W
HStem: -68 170<341.991 568> 274 170<113 170 740.963 804.453> 614 171<341.991 569 627 634.186> 957 169<171 348.811 569 747.443>
VStem: 106 188<274.125 440.646> 167 179<965 1120> 282 345<-66 101.955 614.156 779> 566 175<102.135 272.998 958.051 1120>
LayerCount: 2
Back
Fore
SplineSet
282 779 m 2xf2
 284 785 l 1
 455 785 l 2
 549 785 626 784 627 783 c 0
 635 770 639 684 633 647 c 0
 629 624 628 619 627 617 c 0xf2
 626 616 651 614 682 614 c 0
 713 614 740 613 741 612 c 0
 749 599 753 513 747 476 c 0
 743 453 742 448 741 446 c 0
 740 445 752 444 768 444 c 0
 784 444 797 442 798 441 c 0
 806 428 809 343 803 306 c 0
 799 283 799 277 798 275 c 0
 797 274 784 273 768 273 c 0
 752 273 740 272 741 271 c 0
 745 264 749 221 749 189 c 0
 749 156 745 112 741 105 c 0xf1
 740 104 713 102 682 102 c 0
 651 102 626 101 627 100 c 0
 638 82 637 -55 626 -66 c 0
 625 -67 548 -68 454 -68 c 2
 283 -67 l 1
 281 -59 l 2
 272 -25 273 68 282 95 c 2xf2
 284 102 l 1
 227 103 l 1
 170 104 l 1
 167 112 l 2xf4
 158 146 159 238 168 265 c 2
 170 273 l 1
 142 274 l 1
 113 274 l 1
 111 282 l 2
 104 307 102 366 106 405 c 0xf8
 110 445 109 444 142 444 c 2
 170 444 l 1
 168 453 l 2
 159 489 158 583 168 608 c 2
 171 614 l 1
 227 614 l 1
 284 614 l 1
 281 624 l 2
 272 660 272 754 282 779 c 2xf2
566 607 m 2xf9
 569 614 l 1
 455 614 l 2
 392 614 341 613 342 612 c 0
 346 605 351 562 351 530 c 0
 351 497 346 453 342 446 c 0
 341 445 329 444 313 444 c 0
 297 444 285 442 286 441 c 0
 290 434 294 392 294 360 c 0
 294 327 290 282 286 275 c 0
 285 274 297 273 313 273 c 0
 329 273 341 272 342 271 c 0
 350 258 354 172 348 135 c 0
 344 112 343 107 342 105 c 0
 341 104 392 102 455 102 c 2
 568 102 l 1
 566 112 l 2
 559 138 557 194 561 234 c 0
 565 274 564 273 597 273 c 2
 625 273 l 1
 623 282 l 2
 614 318 614 408 623 436 c 2
 625 443 l 1
 597 444 l 1
 568 445 l 1
 566 453 l 2
 557 487 557 579 566 607 c 2xf9
566 1120 m 2
 569 1126 l 1
 654 1126 l 2
 701 1126 740 1125 741 1124 c 0
 748 1112 752 1024 747 991 c 0
 746 986 745 977 744 971 c 0
 743 965 741 959 740 958 c 0
 739 957 700 956 653 956 c 2
 568 957 l 1
 566 965 l 2
 557 999 557 1096 566 1120 c 2
168 1120 m 2
 171 1126 l 1
 256 1126 l 2
 303 1126 341 1125 342 1124 c 0
 349 1112 354 1024 349 991 c 0
 348 986 347 977 346 971 c 0
 345 965 343 959 342 958 c 0
 341 957 302 956 255 956 c 2
 170 957 l 1
 167 965 l 2xf4
 158 999 159 1096 168 1120 c 2
EndSplineSet
EndChar

StartChar: b
Encoding: 98 98 66
Width: 851
VWidth: 0
Flags: W
HStem: -67 169<284 569> 104 169<568 625> 444 170<285.963 343.861> 616 169<341 569 627 634.186> 1106 20G<111 222.5>
VStem: 111 177<102.001 444 614.005 1120> 283 286<-66 96> 339 288<616.125 779> 568 172<104 272.998>
LayerCount: 2
Back
Fore
SplineSet
282 96 m 2xfa
 284 102 l 1
 427 102 l 1
 569 102 l 1
 571 96 l 2
 581 69 580 -55 569 -66 c 0
 568 -67 503 -68 425 -68 c 2
 283 -67 l 1
 281 -59 l 2
 272 -25 273 72 282 96 c 2xfa
339 779 m 2xf9
 341 785 l 1
 483 785 l 2
 561 785 626 784 627 783 c 0
 635 770 639 684 633 647 c 0
 629 624 628 619 627 617 c 0xf9
 626 616 651 614 682 614 c 0
 713 614 740 613 741 612 c 0
 748 600 752 512 747 479 c 0
 746 475 745 466 744 460 c 0
 743 454 742 447 741 446 c 0
 740 445 752 444 768 444 c 0
 784 444 797 442 798 441 c 0
 805 429 809 341 804 308 c 0
 803 304 802 295 801 289 c 0
 800 283 799 277 798 276 c 0
 797 275 784 273 768 273 c 0
 752 273 740 272 741 271 c 0
 752 253 751 116 740 105 c 0
 739 104 700 103 653 103 c 2
 568 104 l 1
 566 112 l 2
 559 137 557 195 561 234 c 0
 565 274 564 273 597 273 c 2
 625 273 l 1
 623 282 l 2
 614 318 614 408 623 436 c 2
 625 443 l 1
 597 444 l 1
 568 445 l 1xf880
 566 453 l 2
 557 487 557 579 566 607 c 2
 569 614 l 1xfa
 454 615 l 1
 340 616 l 1
 338 624 l 2
 329 658 330 755 339 779 c 2xf9
111 1120 m 2xfc
 114 1126 l 1
 199 1126 l 2
 246 1126 285 1125 286 1124 c 0
 287 1123 288 1117 289 1112 c 0
 297 1069 296 1012 288 969 c 0
 286 958 286 953 288 943 c 0
 295 908 295 832 288 798 c 0
 286 787 286 783 288 772 c 0
 297 732 296 632 286 617 c 0
 285 616 297 614 313 614 c 0
 341 614 341 615 344 608 c 0
 351 590 353 513 348 477 c 0
 345 457 344 449 342 446 c 0
 341 445 328 444 313 444 c 2
 285 444 l 1
 287 435 l 2
 296 403 296 292 286 276 c 0
 285 275 285 269 287 264 c 0
 296 231 296 121 286 105 c 0
 285 104 271 102 256 102 c 2
 228 102 l 1
 230 93 l 2
 240 59 238 -55 228 -66 c 0
 227 -67 200 -68 169 -68 c 2
 113 -67 l 1
 111 -59 l 2
 102 -25 102 67 111 94 c 0
 112 98 112 107 111 112 c 0
 102 148 102 237 111 265 c 0
 112 269 112 277 111 282 c 0
 102 318 102 408 111 436 c 0
 112 440 112 448 111 453 c 0
 102 489 102 578 111 606 c 0
 112 610 112 619 111 624 c 0
 102 660 102 749 111 777 c 0
 112 781 112 789 111 794 c 0
 102 830 102 920 111 948 c 0
 112 952 112 960 111 965 c 0
 102 1001 101 1095 111 1120 c 2xfc
EndSplineSet
EndChar

StartChar: less
Encoding: 60 60 67
Width: 851
VWidth: 0
Flags: W
HStem: -68 170<626.972 748.186> 444 170<228 341> 956 170<626.972 748.186>
VStem: 568 179<-65.9047 -59 989.77 1120>
CounterMasks: 1 e0
LayerCount: 2
Back
Fore
SplineSet
566 1120 m 2
 569 1126 l 1
 654 1126 l 2
 701 1126 740 1125 741 1124 c 0
 749 1111 753 1025 747 988 c 0
 743 965 742 960 741 958 c 0
 740 957 713 956 682 956 c 0
 651 956 626 954 627 953 c 0
 631 946 635 904 635 872 c 0
 635 839 631 794 627 787 c 0
 626 786 600 785 569 785 c 0
 538 785 512 784 513 783 c 0
 517 776 522 733 522 701 c 0
 522 668 517 624 513 617 c 0
 512 616 486 614 455 614 c 0
 424 614 398 613 399 612 c 0
 403 605 408 562 408 530 c 0
 408 497 403 453 399 446 c 0
 398 445 424 444 455 444 c 0
 486 444 512 442 513 441 c 0
 521 428 525 343 519 306 c 0
 515 283 514 277 513 275 c 0
 512 274 538 273 569 273 c 0
 600 273 626 272 627 271 c 0
 635 258 639 172 633 135 c 0
 629 112 628 107 627 105 c 0
 626 104 651 102 682 102 c 0
 713 102 740 101 741 100 c 0
 749 87 753 1 747 -36 c 0
 743 -60 742 -64 740 -66 c 0
 739 -67 700 -68 653 -68 c 2
 568 -67 l 1
 566 -59 l 2
 557 -25 557 68 566 95 c 2
 569 102 l 1
 511 103 l 1
 454 104 l 1
 452 112 l 2
 443 146 443 238 452 265 c 2
 455 273 l 1
 398 274 l 1
 340 274 l 1
 338 282 l 2
 329 316 329 409 338 436 c 2
 341 444 l 1
 284 444 l 1
 226 445 l 1
 224 453 l 2
 215 487 216 584 225 608 c 2
 228 614 l 1
 284 614 l 1
 341 614 l 1
 338 624 l 2
 329 660 329 754 339 779 c 2
 341 785 l 1
 398 785 l 1
 455 785 l 1
 452 794 l 2
 443 830 443 924 453 949 c 2
 455 956 l 1
 512 956 l 1
 568 956 l 1
 566 965 l 2
 557 1001 556 1095 566 1120 c 2
EndSplineSet
EndChar

StartChar: oslash
Encoding: 248 248 68
Width: 851
VWidth: 0
Flags: W
HStem: -68 170<398.982 568 627 633.288> 274 170<113 170 398 512 740.963 797.944> 614 171<341.982 512>
VStem: 106 188<274.125 440.646> 167 118<-230 -68.1676> 395 119<274.005 443.891> 623 120<785 949>
LayerCount: 2
Back
Fore
SplineSet
396 437 m 2xe6
 398 444 l 1
 455 444 l 1
 512 444 l 1
 514 437 l 2
 524 410 524 286 513 275 c 0
 512 274 485 274 454 274 c 2
 397 274 l 1
 395 282 l 2
 386 316 387 413 396 437 c 2xe6
623 949 m 2
 626 956 l 1
 683 956 l 2
 714 956 740 954 741 953 c 0
 742 952 743 946 744 941 c 0
 752 898 751 841 743 798 c 0
 741 787 741 782 743 772 c 0
 750 737 750 661 743 627 c 0
 741 616 741 613 743 602 c 0
 752 562 751 461 741 446 c 0
 740 445 752 444 768 444 c 0
 784 444 797 442 798 441 c 0
 806 429 810 338 804 307 c 0
 803 303 802 295 801 289 c 0
 800 283 799 277 798 276 c 0
 797 275 783 273 768 273 c 2
 740 273 l 1
 742 264 l 2
 751 231 751 121 741 105 c 0
 740 104 713 102 682 102 c 0
 651 102 626 101 627 100 c 0
 631 93 635 50 635 18 c 0
 635 -15 631 -59 627 -66 c 0
 626 -67 549 -68 455 -68 c 2
 285 -68 l 1
 287 -77 l 2
 297 -111 295 -226 285 -237 c 0
 284 -238 257 -238 226 -238 c 2
 170 -238 l 1
 167 -230 l 2xee
 158 -196 159 -103 168 -76 c 0
 169 -72 169 -64 168 -59 c 0
 159 -23 159 66 168 94 c 0
 169 98 169 107 168 112 c 0
 159 148 159 237 168 265 c 2
 170 273 l 1
 142 274 l 1
 113 274 l 1
 111 282 l 2
 104 307 102 366 106 405 c 0xf6
 110 445 109 444 142 444 c 2
 170 444 l 1
 168 453 l 2
 159 489 158 583 168 608 c 2
 171 614 l 1
 227 614 l 1
 284 614 l 1
 281 624 l 2
 272 660 272 754 282 779 c 2
 284 785 l 1
 455 785 l 1
 625 785 l 1
 623 794 l 2
 614 830 613 924 623 949 c 2
509 606 m 2
 512 614 l 1
 426 614 l 2
 379 614 341 613 342 612 c 0
 346 605 351 562 351 530 c 0
 351 497 346 453 342 446 c 0
 341 445 329 444 313 444 c 0
 297 444 285 442 286 441 c 0
 290 434 294 392 294 360 c 0xf6
 294 327 290 282 286 275 c 0
 285 274 310 273 341 273 c 2
 398 273 l 1
 401 267 l 2
 411 241 409 121 399 105 c 0
 398 104 436 102 483 102 c 2
 568 102 l 1
 566 112 l 2
 559 138 557 194 561 234 c 0
 565 274 564 273 597 273 c 2
 625 273 l 1
 623 282 l 2
 614 318 614 408 623 436 c 2
 625 444 l 1
 568 444 l 1
 511 445 l 1
 509 453 l 2
 500 487 500 579 509 606 c 2
EndSplineSet
EndChar

StartChar: P
Encoding: 80 80 69
Width: 851
VWidth: 0
Flags: W
HStem: -68 21G<170 278.5> -68 21G<170 278.5> 444 170<342.001 625 684 690.288> 614 342<683.972 798.462> 956 170<342.001 625 684 691.186>
VStem: 168 177<-66.875 443.832 615.009 954.991>
LayerCount: 2
Back
Fore
SplineSet
168 1120 m 2xbc
 171 1126 l 1
 427 1126 l 2
 568 1126 683 1125 684 1124 c 0
 692 1111 696 1025 690 988 c 0
 686 965 685 960 684 958 c 0
 683 957 708 956 739 956 c 0
 770 956 797 954 798 953 c 0
 799 952 800 946 801 941 c 0
 809 898 808 841 800 798 c 0
 798 787 798 782 800 772 c 0
 809 732 808 632 798 617 c 0
 797 616 770 614 739 614 c 0
 708 614 683 613 684 612 c 0
 688 605 692 562 692 530 c 0
 692 497 688 453 684 446 c 0
 683 445 606 444 512 444 c 2
 342 444 l 1
 344 435 l 2
 353 403 353 292 343 276 c 0
 342 275 342 269 344 264 c 0
 353 232 353 121 343 105 c 0
 342 104 342 99 344 94 c 0
 354 60 352 -55 342 -66 c 0
 341 -67 302 -68 255 -68 c 2
 170 -67 l 1
 167 -59 l 2
 158 -25 159 67 168 94 c 0
 169 98 169 107 168 112 c 0
 159 148 159 237 168 265 c 0
 169 269 169 277 168 282 c 0
 159 318 159 408 168 436 c 0
 169 440 169 448 168 453 c 0
 159 489 159 578 168 606 c 0
 169 610 169 619 168 624 c 0
 159 660 159 749 168 777 c 0
 169 781 169 789 168 794 c 0
 159 830 159 920 168 948 c 0
 169 952 169 960 168 965 c 0
 159 1001 158 1095 168 1120 c 2xbc
623 948 m 2
 625 956 l 1
 483 956 l 2
 405 956 341 954 342 953 c 0
 351 938 353 837 345 798 c 0
 343 787 343 783 345 772 c 0
 354 732 352 632 342 617 c 0
 341 616 405 614 483 614 c 2
 625 614 l 1
 623 624 l 2
 614 660 614 749 623 777 c 0
 624 781 624 789 623 794 c 0
 614 830 614 920 623 948 c 2
EndSplineSet
EndChar

StartChar: copyright
Encoding: 169 169 70
Width: 851
VWidth: 0
Flags: W
HStem: -238 170<284 626> -68 21G<240 261.5 639 660.5> -68 21G<240 261.5 639 660.5> 103 170<455.973 576.443> 785 171<455.973 577.186> 1106 20G<242.5 269.5 640.5 662> 1128 169<284 633.443>
VStem: 163 123<493.808 955.998> 225 63<-67.9538 102 956.097 1126> 282 348<1129.05 1291> 333 123<320.404 784.943> 395 175<105.051 265 787.097 955.46> 623 60<-67.9538 102.006 989.77 1126>
LayerCount: 2
Back
Fore
SplineSet
282 -75 m 2x9e40
 284 -68 l 1
 455 -68 l 1
 626 -68 l 1
 628 -75 l 2
 638 -102 637 -226 626 -237 c 0
 625 -238 548 -238 454 -238 c 2
 283 -238 l 1
 281 -230 l 2
 272 -196 273 -99 282 -75 c 2x9e40
396 949 m 2
 398 956 l 1
 483 956 l 2
 530 956 569 954 570 953 c 0
 578 940 582 855 576 818 c 0
 572 795 571 789 570 787 c 0x9e10
 569 786 543 785 512 785 c 0
 481 785 455 784 456 783 c 0
 465 768 467 666 459 627 c 0
 457 616 457 613 459 602 c 0
 466 567 466 491 459 457 c 0
 457 446 457 442 459 431 c 0
 468 391 466 290 456 275 c 0x9e20
 455 274 481 273 512 273 c 0
 543 273 569 272 570 271 c 0
 577 259 581 171 576 138 c 0
 575 133 574 124 573 118 c 0
 572 112 570 106 569 105 c 0
 568 104 529 103 482 103 c 2
 397 104 l 1
 395 112 l 2
 386 146 386 238 395 265 c 2x9e10
 398 273 l 1
 369 274 l 1
 340 274 l 1
 338 282 l 2
 329 316 329 409 338 436 c 0
 339 440 340 448 339 453 c 0
 330 489 329 578 338 606 c 0
 339 610 340 619 339 624 c 0
 332 650 329 706 333 746 c 0x9e20
 337 786 336 785 369 785 c 2
 398 785 l 1
 395 794 l 2x9e10
 386 830 386 924 396 949 c 2
623 1120 m 0x9e08
 625 1126 627 1126 654 1126 c 0
 670 1126 683 1125 684 1124 c 0
 692 1111 696 1025 690 988 c 0
 686 965 685 960 684 958 c 0
 683 957 695 956 711 956 c 0
 727 956 740 954 741 953 c 0
 742 952 743 946 744 941 c 0
 752 898 751 841 743 798 c 0
 741 787 741 782 743 772 c 0
 750 737 750 661 743 627 c 0
 741 616 741 613 743 602 c 0
 750 567 750 491 743 457 c 0
 741 446 741 442 743 431 c 0
 750 396 750 320 743 286 c 0
 741 275 741 271 743 260 c 0
 752 220 751 120 741 105 c 0
 740 104 727 102 711 102 c 0
 695 102 683 101 684 100 c 0
 695 82 694 -54 683 -66 c 0
 682 -67 668 -68 653 -68 c 0
 625 -67 625 -67 623 -59 c 0
 614 -25 614 67 623 94 c 0
 624 98 624 107 623 112 c 0
 614 148 614 237 623 265 c 0
 624 269 624 277 623 282 c 0
 614 318 614 408 623 436 c 0
 624 440 624 448 623 453 c 0
 614 489 614 578 623 606 c 0
 624 610 624 619 623 624 c 0
 614 660 614 749 623 777 c 0
 624 781 624 789 623 794 c 0
 614 830 614 920 623 948 c 0
 624 952 624 960 623 965 c 0
 614 1001 613 1095 623 1120 c 0x9e08
225 1120 m 0x9e80
 227 1126 229 1126 256 1126 c 0
 283 1126 285 1126 287 1120 c 0
 296 1098 296 1006 288 969 c 0x9e80
 287 964 286 958 286 956 c 0x9f
 286 954 287 948 288 943 c 0
 295 908 295 832 288 798 c 0
 286 787 286 783 288 772 c 0
 295 737 295 661 288 627 c 0
 286 616 286 613 288 602 c 0
 295 567 295 491 288 457 c 0
 286 446 286 442 288 431 c 0
 295 396 295 320 288 286 c 0
 286 275 286 271 288 260 c 0
 295 225 295 149 288 115 c 0
 286 104 286 101 288 90 c 0
 297 49 295 -56 285 -66 c 0
 284 -67 269 -68 254 -68 c 0
 226 -67 226 -67 224 -59 c 0
 215 -25 216 67 225 94 c 2x9e80
 227 102 l 1
 198 103 l 1
 170 104 l 1
 167 112 l 2
 158 146 159 238 168 265 c 0
 169 269 169 277 168 282 c 0
 159 318 159 408 168 436 c 0
 169 440 169 448 168 453 c 0
 159 489 159 578 168 606 c 0
 169 610 169 619 168 624 c 0
 159 660 159 749 168 777 c 0
 169 781 169 789 168 794 c 0
 161 820 159 877 163 917 c 0x9f
 167 957 166 956 199 956 c 2
 227 956 l 1
 225 965 l 2
 216 1001 215 1095 225 1120 c 0x9e80
282 1291 m 2x9e40
 284 1297 l 1
 455 1297 l 2
 549 1297 626 1296 627 1295 c 0
 634 1283 638 1195 633 1162 c 0
 632 1157 631 1148 630 1142 c 0
 629 1136 627 1130 626 1129 c 0
 625 1128 548 1127 454 1127 c 2
 283 1128 l 1
 281 1136 l 2
 272 1170 273 1267 282 1291 c 2x9e40
EndSplineSet
EndChar

StartChar: degree
Encoding: 176 176 71
Width: 851
VWidth: 0
Flags: W
HStem: 615 170<341.991 568> 786 170<226 284 342 452.056 626.963 683.944> 956 170<341.991 569 627 633.472>
VStem: 220 131<787 952.646> 281 346<617 784.999 965 1120>
LayerCount: 2
Back
Fore
SplineSet
282 1120 m 2xe8
 284 1126 l 1
 455 1126 l 2
 549 1126 626 1125 627 1124 c 0
 634 1112 638 1024 633 991 c 0
 632 987 631 978 630 972 c 0
 629 966 628 959 627 958 c 0
 626 957 638 956 654 956 c 0
 670 956 683 954 684 953 c 0
 691 941 695 853 690 820 c 0
 689 816 688 807 687 801 c 0
 686 795 685 789 684 788 c 0
 683 787 670 785 654 785 c 0
 638 785 626 784 627 783 c 0
 638 765 637 628 626 617 c 0
 625 616 548 615 454 615 c 2
 283 616 l 1
 281 624 l 2xe8
 272 658 273 750 282 777 c 2
 284 785 l 1
 255 786 l 1
 226 786 l 1
 224 794 l 2
 217 819 216 878 220 917 c 0xf0
 224 957 223 956 256 956 c 2
 284 956 l 1
 281 965 l 2
 272 1001 272 1095 282 1120 c 2xe8
566 948 m 2
 569 956 l 1
 455 956 l 2
 392 956 341 954 342 953 c 0
 346 946 351 904 351 872 c 0xf0
 351 839 346 794 342 787 c 0
 341 786 392 785 455 785 c 2
 568 785 l 1
 566 794 l 2
 557 830 557 920 566 948 c 2
EndSplineSet
EndChar

StartChar: braceright
Encoding: 125 125 72
Width: 851
VWidth: 0
Flags: W
HStem: -238 170<171 284 342 345.988> 445 169<512 690.443> 1128 169<171 283.292>
VStem: 168 174<-230 -75 1129.05 1291> 509 175<446.051 608>
LayerCount: 2
Back
Fore
SplineSet
396 437 m 2
 398 444 l 1
 455 444 l 1
 512 444 l 1
 514 437 l 2
 523 415 524 323 516 286 c 0
 515 281 514 275 514 273 c 0
 514 271 515 265 516 260 c 0
 525 220 523 120 513 105 c 0
 512 104 499 102 483 102 c 0
 467 102 455 101 456 100 c 0
 460 93 465 50 465 18 c 0
 465 -15 460 -59 456 -66 c 0
 455 -67 429 -68 398 -68 c 0
 367 -68 341 -70 342 -71 c 0
 353 -89 353 -226 342 -237 c 0
 341 -238 302 -238 255 -238 c 2
 170 -238 l 1
 167 -230 l 2
 158 -196 159 -99 168 -75 c 2
 171 -68 l 1
 227 -68 l 1
 284 -68 l 1
 281 -59 l 2
 272 -23 272 71 282 96 c 2
 284 102 l 1
 341 102 l 1
 398 102 l 1
 395 112 l 2
 386 148 386 237 395 265 c 0
 396 269 396 277 395 282 c 0
 386 318 386 412 396 437 c 2
509 608 m 2
 512 614 l 1
 597 614 l 2
 644 614 683 613 684 612 c 0
 691 600 695 512 690 479 c 0
 689 474 688 465 687 459 c 0
 686 453 684 447 683 446 c 0
 682 445 643 444 596 444 c 2
 511 445 l 1
 509 453 l 2
 500 487 500 584 509 608 c 2
168 1291 m 2
 171 1297 l 1
 256 1297 l 2
 303 1297 341 1296 342 1295 c 0
 349 1283 354 1195 349 1162 c 0
 348 1158 347 1148 346 1142 c 0
 345 1136 344 1130 343 1129 c 0
 342 1128 366 1126 398 1126 c 0
 429 1126 455 1125 456 1124 c 0
 463 1112 467 1024 462 991 c 0
 461 987 461 978 460 972 c 0
 459 966 457 959 456 958 c 0
 455 957 467 956 483 956 c 0
 499 956 512 954 513 953 c 0
 520 941 524 853 519 820 c 0
 518 815 517 807 516 801 c 0
 514 787 514 783 516 772 c 0
 525 731 523 627 513 617 c 0
 512 616 485 615 454 615 c 2
 397 616 l 1
 395 624 l 2
 386 658 386 750 395 777 c 0
 396 781 396 789 395 794 c 0
 386 830 386 920 395 948 c 2
 398 956 l 1
 341 956 l 1
 283 957 l 1
 281 965 l 2
 272 999 273 1092 282 1119 c 2
 284 1126 l 1
 227 1127 l 1
 170 1128 l 1
 167 1136 l 2
 158 1170 159 1267 168 1291 c 2
EndSplineSet
EndChar

StartChar: adieresis
Encoding: 228 228 73
Width: 851
VWidth: 0
Flags: W
HStem: -68 170<341.991 569 740.963 804.511> 104 169<170 227 342 452.056> 273 171<341.991 568> 616 169<284 569 627 634.186> 957 169<228 405.811 569 747.443>
VStem: 163 188<104.125 270.646> 225 174<992.587 1120> 282 345<616.125 779> 566 175<958.051 1120>
LayerCount: 2
Back
Fore
SplineSet
282 779 m 2xf9
 284 785 l 1
 455 785 l 2
 549 785 626 784 627 783 c 0
 635 770 639 684 633 647 c 0
 629 624 628 619 627 617 c 0xf9
 626 616 651 614 682 614 c 0
 713 614 740 613 741 612 c 0
 748 600 752 512 747 479 c 0
 746 474 745 465 744 459 c 0
 742 445 741 442 743 431 c 0
 751 396 750 320 743 286 c 0
 741 275 741 271 743 260 c 0
 752 220 751 120 741 105 c 0
 740 104 752 102 768 102 c 0
 784 102 797 101 798 100 c 0
 803 92 807 40 806 6 c 0
 805 -32 801 -62 797 -66 c 0
 796 -67 757 -68 710 -68 c 2
 625 -67 l 1
 623 -59 l 2
 614 -25 614 67 623 94 c 2
 625 102 l 1
 597 103 l 1
 568 104 l 1
 566 112 l 2
 557 146 557 237 566 265 c 2
 569 273 l 1
 455 273 l 2
 392 273 341 272 342 271 c 0
 346 264 351 221 351 189 c 0xfc80
 351 156 346 112 342 105 c 0
 341 104 392 102 455 102 c 2
 569 102 l 1
 571 96 l 2
 581 69 580 -55 569 -66 c 0
 568 -67 491 -68 397 -68 c 2
 226 -67 l 1
 224 -59 l 2
 215 -25 216 67 225 94 c 2xfa
 227 102 l 1
 198 103 l 1
 170 104 l 1
 167 112 l 2
 160 137 159 195 163 234 c 0xfc
 167 274 166 273 199 273 c 2
 227 273 l 1
 225 282 l 2
 216 318 215 412 225 437 c 2
 228 444 l 1
 398 444 l 1
 568 444 l 1
 566 453 l 2
 557 489 557 579 566 607 c 2xfa80
 569 614 l 1
 426 615 l 1
 283 616 l 1
 281 624 l 2
 272 658 273 755 282 779 c 2xf9
566 1120 m 2xf880
 569 1126 l 1
 654 1126 l 2
 701 1126 740 1125 741 1124 c 0
 748 1112 752 1024 747 991 c 0
 746 986 745 977 744 971 c 0
 743 965 741 959 740 958 c 0
 739 957 700 956 653 956 c 2
 568 957 l 1
 566 965 l 2
 557 999 557 1096 566 1120 c 2xf880
225 1120 m 2xfa
 228 1126 l 1
 313 1126 l 2
 360 1126 398 1125 399 1124 c 0
 406 1112 411 1024 406 991 c 0
 405 986 403 977 402 971 c 0
 401 965 400 959 399 958 c 0
 398 957 358 956 311 956 c 2
 226 957 l 1
 224 965 l 2
 215 999 216 1096 225 1120 c 2xfa
EndSplineSet
EndChar

StartChar: Q
Encoding: 81 81 74
Width: 851
VWidth: 0
Flags: W
HStem: -409 170<683.963 748.186> -68 170<341.973 455> 274 170<398 455> 956 170<341.991 569 627 634.186>
VStem: 111 175<274.125 784.998> 282 345<956.141 1120>
LayerCount: 2
Back
Fore
SplineSet
282 1120 m 2xf4
 284 1126 l 1
 455 1126 l 2
 549 1126 626 1125 627 1124 c 0
 635 1111 639 1025 633 988 c 0
 629 965 628 960 627 958 c 0
 626 957 651 956 682 956 c 0
 713 956 740 954 741 953 c 0
 749 940 753 855 747 818 c 0
 743 795 742 789 741 787 c 0
 740 786 752 785 768 785 c 0
 784 785 797 784 798 783 c 0
 799 782 800 776 801 771 c 0
 809 728 808 670 800 627 c 0
 798 616 798 612 800 602 c 0
 807 567 807 491 800 457 c 0
 798 446 798 442 800 431 c 0
 809 391 808 290 798 275 c 0
 797 274 783 273 768 273 c 2
 740 273 l 1
 742 264 l 2
 751 231 751 121 741 105 c 0
 740 104 713 102 682 102 c 0
 651 102 626 101 627 100 c 0
 631 93 635 50 635 18 c 0
 635 -15 631 -59 627 -66 c 0
 626 -67 638 -68 654 -68 c 0
 670 -68 683 -70 684 -71 c 0
 692 -84 696 -167 690 -206 c 0
 687 -226 686 -234 684 -237 c 0
 683 -238 695 -239 711 -239 c 0
 727 -239 740 -240 741 -241 c 0
 749 -253 753 -344 747 -375 c 0
 746 -379 745 -388 744 -394 c 0
 743 -400 741 -406 740 -407 c 0
 739 -408 712 -409 681 -409 c 2
 625 -408 l 1
 623 -400 l 2
 614 -366 614 -274 623 -247 c 2
 625 -239 l 1
 597 -238 l 1
 568 -238 l 1
 566 -230 l 2
 557 -196 557 -104 566 -76 c 2
 569 -68 l 1
 426 -68 l 1
 283 -67 l 1
 281 -59 l 2
 272 -25 273 68 282 95 c 2xf4
 284 102 l 1
 227 103 l 1
 170 104 l 1
 167 112 l 2
 158 146 159 238 168 265 c 2
 170 273 l 1
 142 274 l 1
 113 274 l 1
 111 282 l 2
 102 316 102 409 111 436 c 0
 112 440 112 448 111 453 c 0
 102 489 102 578 111 606 c 0
 112 610 112 619 111 624 c 0xf8
 104 650 102 706 106 746 c 0
 110 786 109 785 142 785 c 2
 170 785 l 1
 168 794 l 2
 159 830 158 924 168 949 c 2
 171 956 l 1
 227 956 l 1
 284 956 l 1
 281 965 l 2
 272 1001 272 1095 282 1120 c 2xf4
566 948 m 2
 569 956 l 1
 455 956 l 2
 392 956 341 954 342 953 c 0
 346 946 351 904 351 872 c 0
 351 839 346 794 342 787 c 0
 341 786 329 785 313 785 c 0
 297 785 285 784 286 783 c 0
 295 768 296 666 288 627 c 0
 286 616 286 613 288 602 c 0
 295 567 295 491 288 457 c 0
 286 446 286 442 288 431 c 0
 297 391 296 290 286 275 c 0xf8
 285 274 297 273 313 273 c 0
 329 273 341 272 342 271 c 0
 350 258 354 174 348 135 c 0
 345 115 344 108 342 105 c 0
 341 104 367 102 398 102 c 2
 455 102 l 1
 452 112 l 2
 443 148 443 237 452 265 c 2
 455 273 l 1
 426 274 l 1
 397 274 l 1
 395 282 l 2
 386 316 387 413 396 437 c 2
 398 444 l 1
 483 444 l 2
 530 444 569 442 570 441 c 0
 578 428 582 343 576 306 c 0
 572 283 571 277 570 275 c 0
 569 274 581 273 597 273 c 2
 625 273 l 1
 623 282 l 2
 614 318 614 408 623 436 c 0
 624 440 624 448 623 453 c 0
 614 489 614 578 623 606 c 0
 624 610 624 619 623 624 c 0
 614 660 614 749 623 777 c 2
 625 785 l 1
 597 786 l 1
 568 786 l 1
 566 794 l 2
 557 828 557 920 566 948 c 2
EndSplineSet
EndChar

StartChar: Ugrave
Encoding: 217 217 75
Width: 851
VWidth: 0
Flags: W
HStem: -68 170<286 625> 1106 20G<111 222.5 623 734.5> 1298 170<455.972 576.443> 1468 170<284 397.292>
VStem: 111 177<105 1120> 282 178<1470.05 1632> 623 175<105.818 1120>
LayerCount: 2
Back
Fore
SplineSet
111 1120 m 2xfa
 114 1126 l 1
 199 1126 l 2
 246 1126 285 1125 286 1124 c 0
 287 1123 288 1117 289 1112 c 0
 297 1069 296 1012 288 969 c 0
 286 958 286 953 288 943 c 0
 295 908 295 832 288 798 c 0
 286 787 286 783 288 772 c 0
 295 737 295 661 288 627 c 0
 286 616 286 613 288 602 c 0
 296 563 295 462 286 447 c 0
 285 446 285 440 287 435 c 0
 296 403 296 292 286 276 c 0
 285 275 285 269 287 264 c 0
 296 231 296 121 286 105 c 0
 285 104 361 102 455 102 c 2
 625 102 l 1
 623 112 l 2
 614 148 614 237 623 265 c 0
 624 269 624 277 623 282 c 0
 614 318 614 408 623 436 c 0
 624 440 624 448 623 453 c 0
 614 489 614 578 623 606 c 0
 624 610 624 619 623 624 c 0
 614 660 614 749 623 777 c 0
 624 781 624 789 623 794 c 0
 614 830 614 920 623 948 c 0
 624 952 624 960 623 965 c 0
 614 1001 613 1095 623 1120 c 2
 626 1126 l 1
 711 1126 l 2
 758 1126 797 1125 798 1124 c 0
 799 1123 800 1117 801 1112 c 0
 809 1069 808 1012 800 969 c 0
 798 958 798 953 800 943 c 0
 807 908 807 832 800 798 c 0
 798 787 798 783 800 772 c 0
 807 737 807 661 800 627 c 0
 798 616 798 613 800 602 c 0
 808 563 807 462 798 447 c 0
 797 446 797 440 799 435 c 0
 808 403 808 292 798 276 c 0
 797 275 797 269 799 264 c 0
 808 231 808 121 798 105 c 0
 797 104 770 102 739 102 c 0
 708 102 683 101 684 100 c 0
 695 82 694 -55 683 -66 c 0
 682 -67 579 -68 454 -68 c 2
 226 -67 l 1
 224 -59 l 2
 215 -25 216 68 225 95 c 2
 227 102 l 1
 170 103 l 1
 113 104 l 1
 111 112 l 2
 102 146 102 238 111 265 c 0
 112 269 112 277 111 282 c 0
 102 318 102 408 111 436 c 0
 112 440 112 448 111 453 c 0
 102 489 102 578 111 606 c 0
 112 610 112 619 111 624 c 0
 102 660 102 749 111 777 c 0
 112 781 112 789 111 794 c 0
 102 830 102 920 111 948 c 0
 112 952 112 960 111 965 c 0
 102 1001 101 1095 111 1120 c 2xfa
282 1632 m 2xf6
 284 1638 l 1
 370 1638 l 2
 417 1638 455 1637 456 1636 c 0
 463 1624 467 1536 462 1503 c 0
 461 1499 461 1490 460 1484 c 0
 459 1478 457 1471 456 1470 c 0
 455 1469 480 1468 512 1468 c 0
 543 1468 569 1466 570 1465 c 0
 577 1453 581 1365 576 1332 c 0
 575 1327 574 1319 573 1313 c 0
 572 1307 570 1300 569 1299 c 0
 568 1298 529 1298 482 1298 c 2
 397 1298 l 1
 395 1306 l 2
 386 1340 386 1433 395 1460 c 2
 398 1468 l 1
 341 1468 l 1
 283 1469 l 1
 281 1477 l 2
 272 1511 273 1608 282 1632 c 2xf6
EndSplineSet
EndChar

StartChar: Icircumflex
Encoding: 206 206 76
Width: 851
VWidth: 0
Flags: W
HStem: -67 169<284 398 569.972 691.186> 956 170<284 398 569.972 691.186> 1298 170<283 341 626.963 690.443> 1468 170<398.982 569 627 633.472>
VStem: 283 407<-65.9047 -59 957.125 1120> 283 116<1298 1467.51> 338 289<1477 1632>
LayerCount: 2
Back
Fore
SplineSet
282 1120 m 2xf4
 284 1126 l 1
 483 1126 l 2
 593 1126 683 1125 684 1124 c 0
 692 1111 696 1025 690 988 c 0
 686 965 685 960 684 958 c 0
 683 957 656 956 625 956 c 0
 594 956 569 954 570 953 c 0
 579 938 581 837 573 798 c 0
 571 787 571 783 573 772 c 0
 581 733 579 632 570 617 c 0
 569 616 570 611 572 606 c 0
 581 574 580 463 570 447 c 0
 569 446 570 440 572 435 c 0
 581 403 580 292 570 276 c 0
 569 275 570 269 572 264 c 0
 581 231 580 121 570 105 c 0
 569 104 594 102 625 102 c 0
 656 102 683 101 684 100 c 0
 692 87 696 1 690 -36 c 0xf8
 686 -60 685 -64 683 -66 c 0
 682 -67 591 -68 482 -68 c 2
 283 -67 l 1
 281 -59 l 2
 272 -25 273 72 282 96 c 2
 284 102 l 1
 341 102 l 1
 398 102 l 1
 395 112 l 2
 386 148 386 237 395 265 c 0
 396 269 396 277 395 282 c 0
 386 318 386 408 395 436 c 0
 396 440 396 448 395 453 c 0
 386 489 386 578 395 606 c 0
 396 610 396 619 395 624 c 0
 386 660 386 749 395 777 c 0
 396 781 396 789 395 794 c 0
 386 830 386 920 395 948 c 2
 398 956 l 1
 341 956 l 1
 283 957 l 1
 281 965 l 2
 272 999 273 1096 282 1120 c 2xf4
339 1632 m 2
 341 1638 l 1
 483 1638 l 2
 561 1638 626 1637 627 1636 c 0
 634 1624 638 1536 633 1503 c 0
 632 1499 631 1490 630 1484 c 0
 629 1478 628 1471 627 1470 c 0xf2
 626 1469 638 1468 654 1468 c 0
 670 1468 683 1466 684 1465 c 0
 691 1453 695 1365 690 1332 c 0xf8
 689 1327 688 1319 687 1313 c 0
 686 1307 684 1300 683 1299 c 0
 682 1298 655 1298 624 1298 c 2
 568 1298 l 1
 566 1306 l 2
 557 1340 557 1433 566 1460 c 2
 569 1468 l 1
 483 1468 l 2
 436 1468 398 1466 399 1465 c 0
 410 1447 410 1310 399 1299 c 0
 398 1298 371 1298 340 1298 c 2
 283 1298 l 1xf4
 281 1306 l 2
 274 1331 273 1390 277 1429 c 0
 281 1469 280 1468 313 1468 c 2
 341 1468 l 1
 338 1477 l 2xf2
 329 1513 329 1607 339 1632 c 2
EndSplineSet
EndChar

StartChar: Iacute
Encoding: 205 205 77
Width: 851
VWidth: 0
Flags: W
HStem: -67 169<284 398 569.972 691.186> 956 170<284 398 569.972 691.186> 1298 170<398 511> 1468 170<569.972 690.443>
VStem: 283 407<-65.9047 -59 957.125 1120> 509 175<1470.05 1632>
LayerCount: 2
Back
Fore
SplineSet
282 1120 m 2xf8
 284 1126 l 1
 483 1126 l 2
 593 1126 683 1125 684 1124 c 0xf4
 692 1111 696 1025 690 988 c 0xf8
 686 965 685 960 684 958 c 0
 683 957 656 956 625 956 c 0
 594 956 569 954 570 953 c 0
 579 938 581 837 573 798 c 0
 571 787 571 783 573 772 c 0
 581 733 579 632 570 617 c 0
 569 616 570 611 572 606 c 0
 581 574 580 463 570 447 c 0
 569 446 570 440 572 435 c 0
 581 403 580 292 570 276 c 0
 569 275 570 269 572 264 c 0
 581 231 580 121 570 105 c 0
 569 104 594 102 625 102 c 0
 656 102 683 101 684 100 c 0xf4
 692 87 696 1 690 -36 c 0
 686 -60 685 -64 683 -66 c 0
 682 -67 591 -68 482 -68 c 2
 283 -67 l 1
 281 -59 l 2
 272 -25 273 72 282 96 c 2
 284 102 l 1
 341 102 l 1
 398 102 l 1
 395 112 l 2
 386 148 386 237 395 265 c 0
 396 269 396 277 395 282 c 0
 386 318 386 408 395 436 c 0
 396 440 396 448 395 453 c 0
 386 489 386 578 395 606 c 0
 396 610 396 619 395 624 c 0
 386 660 386 749 395 777 c 0
 396 781 396 789 395 794 c 0
 386 830 386 920 395 948 c 2
 398 956 l 1
 341 956 l 1
 283 957 l 1
 281 965 l 2
 272 999 273 1096 282 1120 c 2xf8
509 1632 m 2
 512 1638 l 1
 597 1638 l 2
 644 1638 683 1637 684 1636 c 0xf4
 691 1624 695 1536 690 1503 c 0xf8
 689 1499 688 1490 687 1484 c 0
 686 1478 685 1471 684 1470 c 0
 683 1469 656 1468 625 1468 c 0
 594 1468 569 1466 570 1465 c 0
 581 1447 580 1310 569 1299 c 0
 568 1298 529 1298 482 1298 c 2
 397 1298 l 1
 395 1306 l 2
 386 1340 387 1437 396 1461 c 2
 398 1468 l 1
 455 1468 l 1
 511 1468 l 1
 509 1477 l 2
 500 1513 499 1607 509 1632 c 2
EndSplineSet
EndChar

StartChar: V
Encoding: 86 86 78
Width: 851
VWidth: 0
Flags: W
HStem: -68 21G<397 505.5> -68 21G<397 505.5> 1106 20G<168 279.5 623 734.5>
VStem: 168 177<624 1120> 504 188<273.141 440.646> 623 175<614.156 1120>
LayerCount: 2
Back
Fore
SplineSet
168 1120 m 2xb8
 171 1126 l 1
 256 1126 l 2
 303 1126 341 1125 342 1124 c 0
 343 1123 345 1117 346 1112 c 0
 354 1069 353 1012 345 969 c 0
 343 958 343 953 345 943 c 0
 352 908 352 832 345 798 c 0
 343 787 343 783 345 772 c 0
 354 732 352 632 342 617 c 0
 341 616 353 614 369 614 c 0
 385 614 398 613 399 612 c 0
 407 599 411 516 405 477 c 0
 402 457 401 449 399 446 c 0
 398 445 410 444 426 444 c 0
 442 444 455 442 456 441 c 0
 464 429 468 338 462 307 c 0
 461 303 461 295 460 289 c 0
 459 283 457 277 456 276 c 0
 455 275 467 273 483 273 c 2
 511 273 l 1
 509 282 l 2
 502 308 500 365 504 405 c 0xb8
 508 445 507 444 540 444 c 2
 568 444 l 1
 566 453 l 2
 559 479 557 536 561 576 c 0
 565 616 564 614 597 614 c 2
 625 614 l 1
 623 624 l 2
 614 660 614 749 623 777 c 0
 624 781 624 789 623 794 c 0
 614 830 614 920 623 948 c 0
 624 952 624 960 623 965 c 0
 614 1001 613 1095 623 1120 c 2
 626 1126 l 1
 711 1126 l 2
 758 1126 797 1125 798 1124 c 0
 799 1123 800 1117 801 1112 c 0
 809 1069 808 1012 800 969 c 0
 798 958 798 953 800 943 c 0
 807 908 807 832 800 798 c 0
 798 787 798 783 800 772 c 0
 809 732 808 632 798 617 c 0xb4
 797 616 783 614 768 614 c 2
 740 614 l 1
 742 605 l 2
 751 572 751 462 741 446 c 0
 740 445 727 444 711 444 c 0
 695 444 683 442 684 441 c 0
 688 434 692 392 692 360 c 0
 692 327 688 282 684 275 c 0
 683 274 670 273 654 273 c 0
 638 273 626 272 627 271 c 0
 631 264 635 221 635 189 c 0
 635 156 631 112 627 105 c 0
 626 104 613 102 597 102 c 0
 581 102 569 101 570 100 c 0
 581 82 580 -55 569 -66 c 0
 568 -67 529 -68 482 -68 c 2
 397 -67 l 1
 395 -59 l 2
 386 -25 386 67 395 94 c 2
 398 102 l 1
 369 103 l 1
 340 104 l 1
 338 112 l 2
 329 146 329 238 338 265 c 2
 341 273 l 1
 312 274 l 1
 283 274 l 1
 281 282 l 2
 272 316 273 409 282 436 c 2
 284 443 l 1
 255 444 l 1
 226 445 l 1
 224 453 l 2
 215 487 216 579 225 606 c 2
 227 614 l 1
 198 615 l 1
 170 616 l 1
 167 624 l 2
 158 658 159 750 168 777 c 0
 169 781 169 789 168 794 c 0
 159 830 159 920 168 948 c 0
 169 952 169 960 168 965 c 0
 159 1001 158 1095 168 1120 c 2xb8
EndSplineSet
EndChar

StartChar: W
Encoding: 87 87 79
Width: 851
VWidth: 0
Flags: W
HStem: -68 21G<226 298.5 568 639.5> -68 21G<226 298.5 568 639.5> 1106 20G<111 222.5 396 470.5 623 734.5>
VStem: 111 177<445 1120> 333 243<275.144 440.34> 395 118<444.141 1120> 623 175<444.001 1120>
LayerCount: 2
Back
Fore
SplineSet
111 1120 m 2xba
 114 1126 l 1
 199 1126 l 2
 246 1126 285 1125 286 1124 c 0
 287 1123 288 1117 289 1112 c 0
 297 1069 296 1012 288 969 c 0
 286 958 286 953 288 943 c 0
 295 908 295 832 288 798 c 0
 286 787 286 783 288 772 c 0
 295 737 295 661 288 627 c 0
 286 616 286 613 288 602 c 0
 296 563 295 462 286 447 c 0
 285 446 285 440 287 435 c 0
 296 402 296 291 286 275 c 0
 285 274 296 273 312 273 c 2
 341 273 l 1
 338 282 l 2
 331 308 329 365 333 405 c 0xba
 337 445 336 444 369 444 c 2
 398 444 l 1
 395 453 l 2
 386 489 386 578 395 606 c 0
 396 610 396 619 395 624 c 0
 386 660 386 749 395 777 c 0
 396 781 396 789 395 794 c 0
 386 830 386 920 395 948 c 0
 396 952 396 960 395 965 c 0
 386 1001 386 1095 396 1120 c 2
 398 1126 l 1
 455 1126 l 2
 486 1126 512 1125 513 1124 c 0
 514 1123 515 1117 516 1112 c 0
 524 1069 524 1012 516 969 c 0
 514 958 514 953 516 943 c 0
 523 908 523 832 516 798 c 0
 514 787 514 783 516 772 c 0
 523 737 523 661 516 627 c 0
 514 616 514 613 516 602 c 0
 525 562 523 461 513 446 c 0xb6
 512 445 524 444 540 444 c 0
 556 444 569 442 570 441 c 0
 578 428 582 345 576 306 c 0
 573 286 572 278 570 275 c 0
 569 274 581 273 597 273 c 2
 625 273 l 1
 623 282 l 2
 614 318 614 408 623 436 c 0
 624 440 624 448 623 453 c 0
 614 489 614 578 623 606 c 0
 624 610 624 619 623 624 c 0
 614 660 614 749 623 777 c 0
 624 781 624 789 623 794 c 0
 614 830 614 920 623 948 c 0
 624 952 624 960 623 965 c 0
 614 1001 613 1095 623 1120 c 2
 626 1126 l 1
 711 1126 l 2
 758 1126 797 1125 798 1124 c 0
 799 1123 800 1117 801 1112 c 0
 809 1069 808 1012 800 969 c 0
 798 958 798 953 800 943 c 0
 807 908 807 832 800 798 c 0
 798 787 798 783 800 772 c 0
 807 737 807 661 800 627 c 0
 798 616 798 613 800 602 c 0
 809 562 808 461 798 446 c 0
 797 445 783 444 768 444 c 2
 740 444 l 1
 742 435 l 2
 750 406 751 322 743 286 c 0
 741 275 741 271 743 260 c 0
 752 220 751 120 741 105 c 0
 740 104 727 102 711 102 c 0
 695 102 683 101 684 100 c 0
 695 82 694 -55 683 -66 c 0
 682 -67 655 -68 624 -68 c 2
 568 -67 l 1
 566 -59 l 2
 557 -25 557 67 566 94 c 2
 569 102 l 1
 540 103 l 1
 511 104 l 1
 509 112 l 2
 500 146 500 237 509 265 c 2
 512 273 l 1
 455 273 l 2
 424 273 398 272 399 271 c 0
 410 253 410 123 399 105 c 0
 398 104 385 102 369 102 c 0
 353 102 341 101 342 100 c 0
 353 82 353 -55 342 -66 c 0
 341 -67 314 -68 283 -68 c 2
 226 -67 l 1
 224 -59 l 2
 215 -25 216 67 225 94 c 2
 227 102 l 1
 198 103 l 1
 170 104 l 1
 167 112 l 2
 158 146 159 238 168 265 c 0
 169 269 169 277 168 282 c 0
 159 318 159 408 168 436 c 2
 170 443 l 1
 142 444 l 1
 113 445 l 1
 111 453 l 2
 102 487 102 579 111 606 c 0
 112 610 112 619 111 624 c 0
 102 660 102 749 111 777 c 0
 112 781 112 789 111 794 c 0
 102 830 102 920 111 948 c 0
 112 952 112 960 111 965 c 0
 102 1001 101 1095 111 1120 c 2xba
EndSplineSet
EndChar

StartChar: edieresis
Encoding: 235 235 80
Width: 851
VWidth: 0
Flags: W
HStem: -68 170<342 748.186> 105 166<342 563.157> 274 170<113 170 342.029 625> 446 166<342 479.354> 614 171<342.001 625 684 691.186> 957 169<228 405.811 569 747.443>
VStem: 225 174<992.587 1120> 282 402<614.156 779> 566 178<958.051 1120>
LayerCount: 2
Back
Fore
SplineSet
282 779 m 2xfd
 284 785 l 1
 483 785 l 2
 593 785 683 784 684 783 c 0
 692 770 696 684 690 647 c 0
 686 624 685 619 684 617 c 0
 683 616 708 614 739 614 c 0
 770 614 797 613 798 612 c 0
 799 611 800 605 801 600 c 0
 809 557 808 500 800 457 c 0
 798 446 798 441 800 431 c 0
 809 391 808 290 798 275 c 0
 797 274 694 273 569 273 c 0
 444 273 341 272 342 271 c 0
 346 264 351 221 351 189 c 0
 351 156 346 112 342 105 c 0
 341 104 430 102 540 102 c 0
 650 102 740 101 741 100 c 0
 749 87 753 1 747 -36 c 0
 743 -60 742 -64 740 -66 c 0
 739 -67 636 -68 511 -68 c 2
 283 -67 l 1
 281 -59 l 2
 272 -25 273 68 282 95 c 2
 284 102 l 1
 227 103 l 1
 170 104 l 1
 167 112 l 2
 158 146 159 238 168 265 c 2
 170 273 l 1
 142 274 l 1
 113 274 l 1
 111 282 l 2
 104 307 102 366 106 405 c 0
 110 445 109 444 142 444 c 2
 170 444 l 1
 168 453 l 2
 159 489 158 583 168 608 c 2
 171 614 l 1
 227 614 l 1
 284 614 l 1
 281 624 l 2
 272 660 272 754 282 779 c 2xfd
623 606 m 2
 625 614 l 1
 483 614 l 2
 405 614 341 613 342 612 c 0
 346 605 351 562 351 530 c 0
 351 497 346 453 342 446 c 0
 341 445 405 444 483 444 c 2
 625 444 l 1
 623 453 l 2
 614 489 614 578 623 606 c 2
566 1120 m 2xfc80
 569 1126 l 1
 654 1126 l 2
 701 1126 740 1125 741 1124 c 0
 748 1112 752 1024 747 991 c 0
 746 986 745 977 744 971 c 0
 743 965 741 959 740 958 c 0
 739 957 700 956 653 956 c 2
 568 957 l 1
 566 965 l 2
 557 999 557 1096 566 1120 c 2xfc80
225 1120 m 2xfe
 228 1126 l 1
 313 1126 l 2
 360 1126 398 1125 399 1124 c 0
 406 1112 411 1024 406 991 c 0
 405 986 403 977 402 971 c 0
 401 965 400 959 399 958 c 0
 398 957 358 956 311 956 c 2
 226 957 l 1
 224 965 l 2
 215 999 216 1096 225 1120 c 2xfe
EndSplineSet
EndChar

StartChar: exclamdown
Encoding: 161 161 81
Width: 851
VWidth: 0
Flags: W
HStem: 786 170<398 576.443>
VStem: 395 178<-237 608 787.051 955.364>
LayerCount: 2
Back
Fore
SplineSet
396 608 m 2
 398 614 l 1
 483 614 l 2
 530 614 569 613 570 612 c 0
 571 611 572 605 573 600 c 0
 581 557 581 500 573 457 c 0
 571 446 571 441 573 431 c 0
 580 396 580 320 573 286 c 0
 571 275 571 271 573 260 c 0
 580 225 580 149 573 115 c 0
 571 104 571 101 573 90 c 0
 581 51 579 -50 570 -65 c 0
 569 -66 570 -72 572 -77 c 0
 582 -111 579 -226 569 -237 c 0
 568 -238 529 -238 482 -238 c 2
 397 -238 l 1
 395 -230 l 2
 386 -196 386 -103 395 -76 c 0
 396 -72 396 -64 395 -59 c 0
 386 -23 386 66 395 94 c 0
 396 98 396 107 395 112 c 0
 386 148 386 237 395 265 c 0
 396 269 396 277 395 282 c 0
 386 318 386 408 395 436 c 0
 396 440 396 448 395 453 c 0
 386 489 386 583 396 608 c 2
396 949 m 2
 398 956 l 1
 483 956 l 2
 530 956 569 954 570 953 c 0
 577 941 581 853 576 820 c 0
 575 815 574 807 573 801 c 0
 572 795 570 788 569 787 c 0
 568 786 529 786 482 786 c 2
 397 786 l 1
 395 794 l 2
 386 828 387 925 396 949 c 2
EndSplineSet
EndChar

StartChar: eight
Encoding: 56 56 82
Width: 851
VWidth: 0
Flags: W
HStem: -68 170<341.991 568> 444 170<342.057 568> 956 170<341.991 569 627 634.186>
VStem: 282 345<-66 101.955 956.141 1120>
CounterMasks: 1 e0
LayerCount: 2
Back
Fore
SplineSet
282 1120 m 2
 284 1126 l 1
 455 1126 l 2
 549 1126 626 1125 627 1124 c 0
 635 1111 639 1025 633 988 c 0
 629 965 628 960 627 958 c 0
 626 957 651 956 682 956 c 0
 713 956 740 954 741 953 c 0
 742 952 743 946 744 941 c 0
 752 898 751 841 743 798 c 0
 741 787 741 782 743 772 c 0
 752 732 751 632 741 617 c 0
 740 616 727 614 711 614 c 0
 695 614 683 613 684 612 c 0
 688 605 692 562 692 530 c 0
 692 497 688 453 684 446 c 0
 683 445 695 444 711 444 c 0
 727 444 740 442 741 441 c 0
 742 440 743 434 744 429 c 0
 752 386 751 329 743 286 c 0
 741 275 741 270 743 260 c 0
 752 220 751 120 741 105 c 0
 740 104 713 102 682 102 c 0
 651 102 626 101 627 100 c 0
 638 82 637 -55 626 -66 c 0
 625 -67 548 -68 454 -68 c 2
 283 -67 l 1
 281 -59 l 2
 272 -25 273 68 282 95 c 2
 284 102 l 1
 227 103 l 1
 170 104 l 1
 167 112 l 2
 158 146 159 238 168 265 c 0
 169 269 169 277 168 282 c 0
 161 308 159 365 163 405 c 0
 167 445 166 444 199 444 c 2
 227 444 l 1
 225 453 l 2
 216 489 216 578 225 606 c 2
 227 614 l 1
 198 615 l 1
 170 616 l 1
 167 624 l 2
 158 658 159 750 168 777 c 0
 169 781 169 789 168 794 c 0
 159 830 158 924 168 949 c 2
 171 956 l 1
 227 956 l 1
 284 956 l 1
 281 965 l 2
 272 1001 272 1095 282 1120 c 2
566 948 m 2
 569 956 l 1
 455 956 l 2
 392 956 341 954 342 953 c 0
 351 938 353 837 345 798 c 0
 343 787 343 783 345 772 c 0
 354 732 352 632 342 617 c 0
 341 616 392 614 455 614 c 2
 568 614 l 1
 566 624 l 2
 557 660 557 749 566 777 c 0
 567 781 567 789 566 794 c 0
 557 830 557 920 566 948 c 2
566 436 m 2
 569 444 l 1
 455 444 l 1
 342 444 l 1
 344 435 l 2
 352 406 353 322 345 286 c 0
 343 275 343 271 345 260 c 0
 354 220 352 120 342 105 c 0
 341 104 392 102 455 102 c 2
 568 102 l 1
 566 112 l 2
 557 148 557 237 566 265 c 0
 567 269 567 277 566 282 c 0
 557 318 557 408 566 436 c 2
EndSplineSet
EndChar

StartChar: SF040000
Encoding: 9496 9496 83
Width: 851
VWidth: 0
Flags: W
HStem: 614 171<0 398>
VStem: 395 121<794 1632>
LayerCount: 2
Back
Fore
SplineSet
396 1632 m 2
 398 1638 l 1
 455 1638 l 2
 486 1638 512 1637 513 1636 c 0
 514 1635 515 1629 516 1624 c 0
 524 1581 524 1524 516 1481 c 0
 514 1470 514 1465 516 1455 c 0
 523 1420 523 1344 516 1310 c 0
 514 1299 514 1295 516 1284 c 0
 523 1249 523 1173 516 1139 c 0
 514 1128 514 1125 516 1114 c 0
 523 1079 523 1003 516 969 c 0
 514 958 514 954 516 943 c 0
 523 908 523 832 516 798 c 0
 514 787 514 783 516 772 c 0
 525 732 523 632 513 617 c 0
 512 616 397 614 256 614 c 2
 0 614 l 1
 0 700 l 1
 0 785 l 1
 199 785 l 1
 398 785 l 1
 395 794 l 2
 386 830 386 920 395 948 c 0
 396 952 396 960 395 965 c 0
 386 1001 386 1090 395 1118 c 0
 396 1122 396 1131 395 1136 c 0
 386 1172 386 1261 395 1289 c 0
 396 1293 396 1301 395 1306 c 0
 386 1342 386 1432 395 1460 c 0
 396 1464 396 1472 395 1477 c 0
 386 1513 386 1607 396 1632 c 2
EndSplineSet
EndChar

StartChar: A
Encoding: 65 65 84
Width: 851
VWidth: 0
Flags: W
HStem: -68 21G<113 221.5 625 733.5> -68 21G<113 221.5 625 733.5> 273 171<341.991 568> 1106 20G<339 486.5>
VStem: 113 172<-67 271> 163 188<446 611.646> 220 188<614.156 782.646> 339 231<956.141 1120>
LayerCount: 2
Back
Fore
SplineSet
339 1120 m 2xb1
 341 1126 l 1
 455 1126 l 2
 518 1126 569 1125 570 1124 c 0
 578 1111 582 1025 576 988 c 0
 572 965 571 960 570 958 c 0
 569 957 581 956 597 956 c 0
 613 956 626 954 627 953 c 0
 635 940 639 855 633 818 c 0
 629 795 628 789 627 787 c 0
 626 786 638 785 654 785 c 0
 670 785 683 784 684 783 c 0
 692 770 696 684 690 647 c 0
 686 624 685 619 684 617 c 0
 683 616 695 614 711 614 c 0
 727 614 740 613 741 612 c 0
 742 611 743 605 744 600 c 0
 752 557 751 500 743 457 c 0
 741 446 741 441 743 431 c 0
 752 391 751 290 741 275 c 0
 740 274 752 273 768 273 c 0
 784 273 797 272 798 271 c 0
 799 270 800 264 801 259 c 0
 809 217 808 156 800 115 c 0
 798 104 798 100 800 90 c 0
 809 49 807 -56 797 -66 c 0
 796 -67 757 -68 710 -68 c 2
 625 -67 l 1
 623 -59 l 2
 614 -25 614 67 623 94 c 0
 624 98 624 107 623 112 c 0
 614 148 614 237 623 265 c 2
 625 273 l 1
 455 273 l 2
 361 273 285 272 286 271 c 0
 295 256 296 154 288 115 c 0
 286 104 286 101 288 90 c 0
 297 49 295 -56 285 -66 c 0
 284 -67 245 -68 198 -68 c 2
 113 -67 l 1xb9
 111 -59 l 2
 102 -25 102 67 111 94 c 0
 112 98 112 107 111 112 c 0
 104 138 102 194 106 234 c 0
 110 274 109 273 142 273 c 2
 170 273 l 1
 168 282 l 2
 159 318 159 408 168 436 c 0
 169 440 169 448 168 453 c 0
 161 479 159 536 163 576 c 0xb4
 167 616 166 614 199 614 c 2
 227 614 l 1
 225 624 l 2
 218 650 216 706 220 746 c 0xb2
 224 786 223 785 256 785 c 2
 284 785 l 1
 281 794 l 2
 274 820 273 877 277 917 c 0
 281 957 280 956 313 956 c 2
 341 956 l 1
 338 965 l 2
 329 1001 329 1095 339 1120 c 2xb1
509 777 m 2
 512 785 l 1
 455 785 l 2
 424 785 398 784 399 783 c 0
 403 776 408 733 408 701 c 0x32
 408 668 403 624 399 617 c 0
 398 616 385 614 369 614 c 0
 353 614 341 613 342 612 c 0
 346 605 351 562 351 530 c 0x34
 351 497 346 453 342 446 c 0
 341 445 392 444 455 444 c 2
 568 444 l 1
 566 453 l 2
 557 489 557 578 566 606 c 2
 569 614 l 1
 540 615 l 1
 511 616 l 1
 509 624 l 2
 500 658 500 749 509 777 c 2
EndSplineSet
EndChar

StartChar: underscore
Encoding: 95 95 85
Width: 851
VWidth: 0
Flags: W
HStem: -67 169<114 804.443>
LayerCount: 2
Back
Fore
SplineSet
111 96 m 2
 114 102 l 1
 455 102 l 2
 643 102 797 101 798 100 c 0
 805 88 809 0 804 -33 c 0
 803 -38 802 -47 801 -53 c 0
 800 -59 798 -65 797 -66 c 0
 796 -67 641 -68 454 -68 c 2
 113 -67 l 1
 111 -59 l 2
 102 -25 102 72 111 96 c 2
EndSplineSet
EndChar

StartChar: Ntilde
Encoding: 209 209 86
Width: 851
VWidth: 0
Flags: W
HStem: -68 21G<113 221.5 625 733.5> -68 21G<113 221.5 625 733.5> 1106 20G<111 222.5 623 734.5> 1298 170<171 284 512.98 683> 1468 170<284 455 513 519.472 683 805.186>
VStem: 111 176<-67 614 958.096 1120> 167 118<1306 1461> 282 231<1469.12 1632> 623 176<-67 102 444.141 1120> 679 125<1477 1632>
LayerCount: 2
Back
Fore
SplineSet
111 1120 m 2xbc
 114 1126 l 1
 199 1126 l 2
 246 1126 285 1125 286 1124 c 0
 294 1111 297 1025 291 988 c 0
 287 965 287 960 286 958 c 0
 285 957 297 956 313 956 c 0
 329 956 341 954 342 953 c 0
 350 940 354 855 348 818 c 0
 344 795 343 789 342 787 c 0
 341 786 367 785 398 785 c 0
 429 785 455 784 456 783 c 0
 464 770 468 684 462 647 c 0
 458 624 457 619 456 617 c 0
 455 616 467 614 483 614 c 0
 499 614 512 613 513 612 c 0
 521 599 525 513 519 476 c 0
 515 453 514 448 513 446 c 0xb9
 512 445 537 444 568 444 c 2
 625 444 l 1
 623 453 l 2
 614 489 614 578 623 606 c 0
 624 610 624 619 623 624 c 0
 614 660 614 749 623 777 c 0
 624 781 624 789 623 794 c 0
 614 830 614 920 623 948 c 0
 624 952 624 960 623 965 c 0
 614 1001 613 1095 623 1120 c 2
 626 1126 l 1
 711 1126 l 2
 758 1126 797 1125 798 1124 c 0
 799 1123 800 1117 801 1112 c 0
 809 1069 808 1012 800 969 c 0
 798 958 798 953 800 943 c 0
 807 908 807 832 800 798 c 0
 798 787 798 783 800 772 c 0
 807 737 807 661 800 627 c 0
 798 616 798 613 800 602 c 0
 808 563 807 462 798 447 c 0
 797 446 797 440 799 435 c 0
 808 403 808 292 798 276 c 0
 797 275 797 269 799 264 c 0
 808 232 808 121 798 105 c 0
 797 104 797 99 799 94 c 0
 809 60 807 -55 797 -66 c 0
 796 -67 757 -68 710 -68 c 2
 625 -67 l 1
 623 -59 l 2
 614 -25 614 68 623 95 c 2
 625 102 l 1
 568 103 l 1
 511 104 l 1
 509 112 l 2
 500 146 500 238 509 265 c 2
 512 273 l 1
 483 274 l 1
 454 274 l 1
 452 282 l 2
 443 316 443 408 452 436 c 2
 455 444 l 1
 398 444 l 1
 340 445 l 1
 338 453 l 2
 329 487 329 579 338 606 c 2
 341 614 l 1
 313 614 l 1
 285 614 l 1xba80
 287 605 l 2
 296 573 296 463 286 447 c 0
 285 446 285 440 287 435 c 0
 296 403 296 292 286 276 c 0
 285 275 285 269 287 264 c 0
 296 232 296 121 286 105 c 0
 285 104 285 99 287 94 c 0xbc
 297 60 295 -55 285 -66 c 0xba
 284 -67 245 -68 198 -68 c 2
 113 -67 l 1
 111 -59 l 2
 102 -25 102 67 111 94 c 0
 112 98 112 107 111 112 c 0
 102 148 102 237 111 265 c 0
 112 269 112 277 111 282 c 0
 102 318 102 408 111 436 c 0
 112 440 112 448 111 453 c 0
 102 489 102 578 111 606 c 0
 112 610 112 619 111 624 c 0
 102 660 102 749 111 777 c 0
 112 781 112 789 111 794 c 0
 102 830 102 920 111 948 c 0
 112 952 112 960 111 965 c 0
 102 1001 101 1095 111 1120 c 2xbc
168 1461 m 2
 171 1468 l 1
 228 1468 l 1
 284 1468 l 1
 287 1461 l 2x3c
 297 1434 296 1310 285 1299 c 0
 284 1298 257 1298 226 1298 c 2
 170 1298 l 1
 167 1306 l 2x3a
 158 1340 159 1437 168 1461 c 2
680 1632 m 2
 683 1638 l 1
 739 1638 l 2
 770 1638 797 1637 798 1636 c 0
 806 1623 810 1537 804 1500 c 0
 800 1476 799 1472 797 1470 c 0
 796 1469 769 1468 738 1468 c 2
 682 1469 l 1
 679 1477 l 2x3840
 670 1511 671 1608 680 1632 c 2
282 1632 m 2x39
 284 1638 l 1
 398 1638 l 2
 461 1638 512 1637 513 1636 c 0
 520 1624 524 1536 519 1503 c 0
 518 1499 517 1490 516 1484 c 0
 515 1478 514 1471 513 1470 c 0
 512 1469 548 1468 597 1468 c 2
 683 1468 l 1
 685 1461 l 2
 695 1434 694 1310 683 1299 c 0
 682 1298 629 1298 567 1298 c 2
 454 1298 l 1
 452 1306 l 2
 443 1340 443 1433 452 1460 c 2
 455 1468 l 1
 369 1468 l 1
 283 1469 l 1
 281 1477 l 2
 272 1511 273 1608 282 1632 c 2x39
EndSplineSet
EndChar

StartChar: Atilde
Encoding: 195 195 87
Width: 851
VWidth: 0
Flags: W
HStem: -68 21G<113 221.5 625 733.5> -68 21G<113 221.5 625 733.5> 273 171<341.991 568> 1106 20G<339 486.5> 1298 170<171 284 512.98 683> 1468 170<284 455 513 519.472 683 805.186>
VStem: 113 172<-67 271> 163 188<446 611.646> 167 118<1306 1461> 220 188<614.156 782.646> 282 231<1469.12 1632> 339 231<956.141 1120> 679 125<1477 1632>
LayerCount: 2
Back
Fore
SplineSet
339 1120 m 2xbc18
 341 1126 l 1
 455 1126 l 2
 518 1126 569 1125 570 1124 c 0
 578 1111 582 1025 576 988 c 0
 572 965 571 960 570 958 c 0
 569 957 581 956 597 956 c 0
 613 956 626 954 627 953 c 0
 635 940 639 855 633 818 c 0
 629 795 628 789 627 787 c 0
 626 786 638 785 654 785 c 0
 670 785 683 784 684 783 c 0
 692 770 696 684 690 647 c 0
 686 624 685 619 684 617 c 0
 683 616 695 614 711 614 c 0
 727 614 740 613 741 612 c 0
 742 611 743 605 744 600 c 0
 752 557 751 500 743 457 c 0
 741 446 741 441 743 431 c 0
 752 391 751 290 741 275 c 0
 740 274 752 273 768 273 c 0
 784 273 797 272 798 271 c 0
 799 270 800 264 801 259 c 0
 809 217 808 156 800 115 c 0
 798 104 798 100 800 90 c 0
 809 49 807 -56 797 -66 c 0
 796 -67 757 -68 710 -68 c 2
 625 -67 l 1
 623 -59 l 2
 614 -25 614 67 623 94 c 0
 624 98 624 107 623 112 c 0
 614 148 614 237 623 265 c 2
 625 273 l 1
 455 273 l 2
 361 273 285 272 286 271 c 0
 295 256 296 154 288 115 c 0
 286 104 286 101 288 90 c 0
 297 49 295 -56 285 -66 c 0
 284 -67 245 -68 198 -68 c 2
 113 -67 l 1xbe18
 111 -59 l 2
 102 -25 102 67 111 94 c 0
 112 98 112 107 111 112 c 0
 104 138 102 194 106 234 c 0
 110 274 109 273 142 273 c 2
 170 273 l 1
 168 282 l 2
 159 318 159 408 168 436 c 0
 169 440 169 448 168 453 c 0
 161 479 159 536 163 576 c 0xbd08
 167 616 166 614 199 614 c 2
 227 614 l 1
 225 624 l 2
 218 650 216 706 220 746 c 0xbc48
 224 786 223 785 256 785 c 2
 284 785 l 1
 281 794 l 2
 274 820 273 877 277 917 c 0
 281 957 280 956 313 956 c 2
 341 956 l 1
 338 965 l 2
 329 1001 329 1095 339 1120 c 2xbc18
509 777 m 2
 512 785 l 1
 455 785 l 2
 424 785 398 784 399 783 c 0
 403 776 408 733 408 701 c 0x3c48
 408 668 403 624 399 617 c 0
 398 616 385 614 369 614 c 0
 353 614 341 613 342 612 c 0
 346 605 351 562 351 530 c 0x3d08
 351 497 346 453 342 446 c 0
 341 445 392 444 455 444 c 2
 568 444 l 1
 566 453 l 2
 557 489 557 578 566 606 c 2
 569 614 l 1
 540 615 l 1
 511 616 l 1
 509 624 l 2
 500 658 500 749 509 777 c 2
168 1461 m 2
 171 1468 l 1
 228 1468 l 1
 284 1468 l 1
 287 1461 l 2
 297 1434 296 1310 285 1299 c 0
 284 1298 257 1298 226 1298 c 2
 170 1298 l 1
 167 1306 l 2x3c88
 158 1340 159 1437 168 1461 c 2
680 1632 m 2
 683 1638 l 1
 739 1638 l 2
 770 1638 797 1637 798 1636 c 0
 806 1623 810 1537 804 1500 c 0
 800 1476 799 1472 797 1470 c 0
 796 1469 769 1468 738 1468 c 2
 682 1469 l 1
 679 1477 l 2
 670 1511 671 1608 680 1632 c 2
282 1632 m 2x3c28
 284 1638 l 1
 398 1638 l 2
 461 1638 512 1637 513 1636 c 0
 520 1624 524 1536 519 1503 c 0
 518 1499 517 1490 516 1484 c 0
 515 1478 514 1471 513 1470 c 0
 512 1469 548 1468 597 1468 c 2
 683 1468 l 1
 685 1461 l 2
 695 1434 694 1310 683 1299 c 0
 682 1298 629 1298 567 1298 c 2
 454 1298 l 1
 452 1306 l 2
 443 1340 443 1433 452 1460 c 2
 455 1468 l 1
 369 1468 l 1
 283 1469 l 1
 281 1477 l 2
 272 1511 273 1608 282 1632 c 2x3c28
EndSplineSet
EndChar

StartChar: threequarters
Encoding: 190 190 88
Width: 851
VWidth: 0
Flags: W
HStem: -68 170<170 227 397 455 512.972 625 740.963 804.315> 274 170<509.094 576.644> 444 170<114 284 569 625> 786 170<114 284> 956 170<341.963 406.186 569.963 633.443> 1128 169<114 284 342 349.186>
VStem: 111 231<873.507 955.891 1160.77 1291> 167 118<-59 101.996> 220 131<105.355 272.998> 447 132<785.141 952.646> 447 66<102.469 273> 509 121<958.051 1120> 509 60<274.045 443.994> 566 177<445 608> 679 61<-237.955 -71.9293>
LayerCount: 2
Back
Fore
SplineSet
509 437 m 0xfc08
 511 443 513 444 540 444 c 0
 573 444 572 445 576 408 c 0
 581 360 577 283 569 275 c 0
 568 274 554 274 539 274 c 0
 511 275 511 274 509 282 c 0
 500 316 500 413 509 437 c 0xfc08
566 608 m 2xfc24
 569 614 l 1xfc08
 654 614 l 2
 701 614 740 613 741 612 c 0
 742 611 743 605 744 600 c 0
 752 557 751 500 743 457 c 0
 741 446 741 441 743 431 c 0
 750 396 750 320 743 286 c 0
 741 275 741 271 743 260 c 0xfc04
 752 220 751 120 741 105 c 0
 740 104 752 102 768 102 c 0
 784 102 797 101 798 100 c 0
 806 87 809 4 803 -35 c 0
 800 -55 800 -63 798 -66 c 0
 797 -67 784 -68 768 -68 c 0
 752 -68 740 -70 741 -71 c 0
 752 -89 751 -225 740 -237 c 0
 739 -238 725 -238 710 -238 c 0
 682 -237 681 -238 679 -230 c 0xfc02
 670 -196 671 -104 680 -76 c 2
 682 -68 l 1
 540 -68 l 1
 397 -67 l 1
 395 -59 l 2
 388 -34 386 25 390 64 c 0
 394 104 393 102 426 102 c 2
 455 102 l 1
 452 112 l 2
 445 138 443 194 447 234 c 0
 451 274 451 273 484 273 c 0
 517 273 516 274 520 237 c 0
 525 192 520 117 513 105 c 0
 512 104 537 102 568 102 c 2
 625 102 l 1
 623 112 l 2
 614 148 614 237 623 265 c 0
 624 269 624 277 623 282 c 0
 614 318 614 408 623 436 c 2
 625 443 l 1
 597 444 l 1
 568 445 l 1
 566 453 l 2
 557 487 557 584 566 608 c 2xfc24
111 1291 m 2xfe
 114 1297 l 1
 227 1297 l 2
 290 1297 341 1296 342 1295 c 0
 350 1282 354 1196 348 1159 c 0
 344 1136 343 1131 342 1129 c 0
 341 1128 353 1126 369 1126 c 0
 385 1126 398 1125 399 1124 c 0
 407 1111 411 1025 405 988 c 0
 401 965 400 960 399 958 c 0
 398 957 385 956 369 956 c 0
 353 956 341 954 342 953 c 0xfe
 346 946 351 904 351 872 c 0xfc80
 351 839 346 794 342 787 c 0
 341 786 367 785 398 785 c 2
 455 785 l 1
 452 794 l 2
 445 820 443 877 447 917 c 0xfe40
 451 957 450 956 483 956 c 2
 511 956 l 1
 509 965 l 2
 500 1001 499 1095 509 1120 c 2xfc10
 512 1126 l 1
 569 1126 l 2xfc08
 600 1126 626 1125 627 1124 c 0
 634 1112 638 1024 633 991 c 0
 632 987 631 978 630 972 c 0xfc10
 629 966 628 959 627 958 c 0
 626 957 613 956 597 956 c 0
 581 956 569 954 570 953 c 0
 574 946 579 904 579 872 c 0xfc40
 579 839 574 794 570 787 c 0
 569 786 556 785 540 785 c 0
 524 785 512 784 513 783 c 0
 517 776 522 733 522 701 c 0
 522 668 517 624 513 617 c 0
 512 616 499 614 483 614 c 0
 467 614 455 613 456 612 c 0
 460 605 465 562 465 530 c 0
 465 497 460 453 456 446 c 0
 455 445 442 444 426 444 c 0
 410 444 398 442 399 441 c 0
 403 434 408 392 408 360 c 0
 408 327 403 282 399 275 c 0
 398 274 385 273 369 273 c 0
 353 273 341 272 342 271 c 0xfe20
 346 264 351 221 351 189 c 0xfc80
 351 156 346 112 342 105 c 0xfe
 341 104 329 102 313 102 c 0
 297 102 285 101 286 100 c 0
 297 82 296 -55 285 -66 c 0
 284 -67 257 -68 226 -68 c 2
 170 -67 l 1
 167 -59 l 2xfd
 160 -34 159 25 163 64 c 0
 167 104 166 102 199 102 c 2
 227 102 l 1
 225 112 l 2
 218 138 216 194 220 234 c 0xfc80
 224 274 223 273 256 273 c 2
 284 273 l 1
 281 282 l 2
 272 318 273 408 282 436 c 2
 284 444 l 1
 198 444 l 1
 113 445 l 1
 111 453 l 2
 102 487 102 584 111 608 c 2
 114 614 l 1
 199 614 l 1
 284 614 l 1
 281 624 l 2
 272 660 273 749 282 777 c 2
 284 785 l 1
 198 786 l 1
 113 786 l 1
 111 794 l 2
 102 828 102 925 111 949 c 2
 114 956 l 1
 199 956 l 1
 284 956 l 1
 281 965 l 2
 272 1001 273 1091 282 1119 c 2
 284 1126 l 1
 198 1127 l 1
 113 1128 l 1
 111 1136 l 2
 102 1170 102 1267 111 1291 c 2xfe
EndSplineSet
EndChar

StartChar: braceleft
Encoding: 123 123 89
Width: 851
VWidth: 0
Flags: W
HStem: -238 170<626.971 747.443> 445 169<228 398> 1126 171<626.972 747.443>
VStem: 226 173<445 608> 395 121<105.765 443.809 616 955.943> 566 175<1129.05 1291>
LayerCount: 2
Back
Fore
SplineSet
396 437 m 2xec
 398 444 l 1
 455 444 l 2
 486 444 512 442 513 441 c 0
 520 429 524 341 519 308 c 0
 518 303 517 295 516 289 c 0
 514 275 514 271 516 260 c 0
 525 220 523 120 513 105 c 0
 512 104 538 102 569 102 c 0
 600 102 626 101 627 100 c 0
 634 88 638 0 633 -33 c 0
 632 -37 631 -46 630 -52 c 0
 629 -58 628 -65 627 -66 c 0
 626 -67 650 -68 682 -68 c 0
 713 -68 740 -70 741 -71 c 0
 748 -83 752 -171 747 -204 c 0
 746 -209 745 -217 744 -223 c 0
 743 -229 741 -236 740 -237 c 0
 739 -238 700 -238 653 -238 c 2
 568 -238 l 1
 566 -230 l 2
 557 -196 557 -103 566 -76 c 2
 569 -68 l 1
 511 -68 l 1
 454 -67 l 1
 452 -59 l 2
 443 -25 443 67 452 94 c 2
 455 102 l 1
 426 103 l 1
 397 104 l 1
 395 112 l 2
 386 146 386 238 395 265 c 0
 396 269 396 277 395 282 c 0
 386 318 386 412 396 437 c 2xec
225 608 m 2
 228 614 l 1
 313 614 l 1
 398 614 l 1
 401 608 l 2
 411 581 410 457 399 446 c 0
 398 445 358 444 311 444 c 2
 226 445 l 1xf4
 224 453 l 2
 215 487 216 584 225 608 c 2
566 1291 m 2
 569 1297 l 1
 654 1297 l 2
 701 1297 740 1296 741 1295 c 0
 748 1283 752 1195 747 1162 c 0
 746 1158 745 1148 744 1142 c 0
 743 1136 742 1130 741 1129 c 0
 740 1128 713 1126 682 1126 c 0
 651 1126 626 1125 627 1124 c 0
 631 1117 635 1074 635 1042 c 0
 635 1009 631 965 627 958 c 0
 626 957 600 956 569 956 c 0
 538 956 512 954 513 953 c 0
 522 938 524 837 516 798 c 0
 514 787 514 783 516 772 c 0
 525 731 523 627 513 617 c 0
 512 616 485 615 454 615 c 2
 397 616 l 1
 395 624 l 2
 386 658 386 750 395 777 c 0
 396 781 396 789 395 794 c 0xec
 388 820 386 877 390 917 c 0
 394 957 393 956 426 956 c 2
 455 956 l 1
 452 965 l 2
 443 1001 443 1095 453 1120 c 2
 455 1126 l 1
 512 1126 l 1
 568 1126 l 1
 566 1136 l 2
 557 1172 556 1266 566 1291 c 2
EndSplineSet
EndChar

StartChar: SF110000
Encoding: 9474 9474 90
Width: 851
VWidth: 0
Flags: W
VStem: 395 121<-408 1632>
LayerCount: 2
Back
Fore
SplineSet
396 1632 m 2
 398 1638 l 1
 455 1638 l 2
 486 1638 512 1637 513 1636 c 0
 514 1635 515 1629 516 1624 c 0
 524 1581 524 1524 516 1481 c 0
 514 1470 514 1465 516 1455 c 0
 523 1420 523 1344 516 1310 c 0
 514 1299 514 1295 516 1284 c 0
 523 1249 523 1173 516 1139 c 0
 514 1128 514 1125 516 1114 c 0
 523 1079 523 1003 516 969 c 0
 514 958 514 954 516 943 c 0
 523 908 523 832 516 798 c 0
 514 787 514 783 516 772 c 0
 523 737 523 661 516 627 c 0
 514 616 514 613 516 602 c 0
 523 567 523 491 516 457 c 0
 514 446 514 442 516 431 c 0
 523 396 523 320 516 286 c 0
 514 275 514 271 516 260 c 0
 523 225 523 149 516 115 c 0
 514 104 514 101 516 90 c 0
 523 55 523 -21 516 -55 c 0
 514 -66 514 -70 516 -81 c 0
 523 -116 523 -192 516 -226 c 0
 514 -237 514 -241 516 -252 c 0
 525 -293 523 -397 513 -407 c 0
 512 -408 485 -409 454 -409 c 2
 397 -408 l 1
 395 -400 l 2
 386 -366 386 -274 395 -247 c 0
 396 -243 396 -235 395 -230 c 0
 386 -194 386 -104 395 -76 c 0
 396 -72 396 -64 395 -59 c 0
 386 -23 386 66 395 94 c 0
 396 98 396 107 395 112 c 0
 386 148 386 237 395 265 c 0
 396 269 396 277 395 282 c 0
 386 318 386 408 395 436 c 0
 396 440 396 448 395 453 c 0
 386 489 386 578 395 606 c 0
 396 610 396 619 395 624 c 0
 386 660 386 749 395 777 c 0
 396 781 396 789 395 794 c 0
 386 830 386 920 395 948 c 0
 396 952 396 960 395 965 c 0
 386 1001 386 1090 395 1118 c 0
 396 1122 396 1131 395 1136 c 0
 386 1172 386 1261 395 1289 c 0
 396 1293 396 1301 395 1306 c 0
 386 1342 386 1432 395 1460 c 0
 396 1464 396 1472 395 1477 c 0
 386 1513 386 1607 396 1632 c 2
EndSplineSet
EndChar

StartChar: quotesingle
Encoding: 39 39 91
Width: 851
VWidth: 0
Flags: W
HStem: 957 169<284 397.504> 1126 171<455.973 576.443>
VStem: 395 175<1129.05 1291>
LayerCount: 2
Back
Fore
SplineSet
396 1291 m 2
 398 1297 l 1
 483 1297 l 2
 530 1297 569 1296 570 1295 c 0
 577 1283 581 1195 576 1162 c 0
 575 1158 574 1148 573 1142 c 0
 572 1136 571 1130 570 1129 c 0
 569 1128 543 1126 512 1126 c 0
 481 1126 455 1125 456 1124 c 0
 467 1106 467 969 456 958 c 0
 455 957 415 956 368 956 c 2
 283 957 l 1
 281 965 l 2
 272 999 273 1096 282 1120 c 2
 284 1126 l 1
 341 1126 l 1
 398 1126 l 1
 395 1136 l 2
 386 1172 386 1266 396 1291 c 2
EndSplineSet
EndChar

StartChar: shade
Encoding: 9618 9618 92
Width: 851
VWidth: 0
Flags: W
HStem: -239 341<0 112.399 284 398 456 457.353 569 682> 102 342<171.972 284 455.973 569 740.972 853> 444 341<0 113 284 398 569 682> 785 341<171.972 284 455.973 569 740.972 853> 1126 342<0 112.399 284 397.292 569 681.399>
VStem: 0 180<-238.572 99.1818 446.355 782.181 1129.35 1464.95> 282 177<1129.76 1464.95> 566 177<-237 96 445 779 1128 1461>
LayerCount: 2
Back
Fore
SplineSet
566 1461 m 2
 569 1468 l 1
 654 1468 l 2
 701 1468 740 1466 741 1465 c 0
 742 1464 743 1458 744 1453 c 0
 752 1410 751 1353 743 1310 c 0
 741 1299 741 1294 743 1284 c 0
 752 1244 751 1144 741 1129 c 0
 740 1128 765 1126 796 1126 c 2
 853 1126 l 1
 853 956 l 1
 853 785 l 1
 796 785 l 2
 765 785 740 784 741 783 c 0
 750 768 751 666 743 627 c 0
 741 616 741 613 743 602 c 0
 752 562 751 461 741 446 c 0
 740 445 765 444 796 444 c 2
 853 444 l 1
 853 273 l 1
 853 102 l 1
 796 102 l 2
 765 102 740 101 741 100 c 0
 750 85 751 -16 743 -55 c 0
 741 -66 741 -70 743 -81 c 0
 752 -122 750 -227 740 -237 c 0
 739 -238 700 -238 653 -238 c 2
 568 -238 l 1
 566 -230 l 2
 557 -196 557 -103 566 -76 c 0
 567 -72 567 -64 566 -59 c 0
 557 -23 556 71 566 96 c 2
 569 102 l 1
 625 102 l 1
 682 102 l 1
 680 112 l 2
 671 148 671 237 680 265 c 0
 681 269 681 277 680 282 c 0
 671 318 671 408 680 436 c 2
 682 444 l 1
 625 444 l 1
 568 445 l 1
 566 453 l 2
 557 487 557 579 566 606 c 0
 567 610 567 619 566 624 c 0
 557 660 556 754 566 779 c 2
 569 785 l 1
 625 785 l 1
 682 785 l 1
 680 794 l 2
 671 830 671 920 680 948 c 0
 681 952 681 960 680 965 c 0
 671 1001 671 1091 680 1119 c 2
 682 1126 l 1
 625 1127 l 1
 568 1128 l 1
 566 1136 l 2
 557 1170 557 1262 566 1289 c 0
 567 1293 567 1301 566 1306 c 0
 557 1342 556 1436 566 1461 c 2
282 1461 m 2
 284 1468 l 1
 370 1468 l 2
 417 1468 455 1466 456 1465 c 0
 457 1464 458 1458 459 1453 c 0
 467 1410 467 1353 459 1310 c 0
 457 1299 457 1294 459 1284 c 0
 468 1244 466 1144 456 1129 c 0
 455 1128 481 1126 512 1126 c 2
 569 1126 l 1
 571 1120 l 2
 580 1098 581 1006 573 969 c 0
 571 958 571 954 573 943 c 0
 582 903 580 802 570 787 c 0
 569 786 543 785 512 785 c 0
 481 785 455 784 456 783 c 0
 465 768 467 666 459 627 c 0
 457 616 457 613 459 602 c 0
 468 562 466 461 456 446 c 0
 455 445 481 444 512 444 c 2
 569 444 l 1
 571 437 l 2
 580 415 581 323 573 286 c 0
 571 275 571 271 573 260 c 0
 582 220 580 120 570 105 c 0
 569 104 543 102 512 102 c 0
 481 102 455 101 456 100 c 0
 465 85 467 -16 459 -55 c 0
 457 -66 457 -70 459 -81 c 0
 468 -122 466 -227 456 -237 c 0
 455 -238 415 -238 368 -238 c 2
 283 -238 l 1
 281 -230 l 2
 272 -196 273 -103 282 -76 c 0
 283 -72 283 -64 282 -59 c 0
 273 -23 272 71 282 96 c 2
 284 102 l 1
 341 102 l 1
 398 102 l 1
 395 112 l 2
 386 148 386 237 395 265 c 0
 396 269 396 277 395 282 c 0
 386 318 386 408 395 436 c 2
 398 444 l 1
 341 444 l 1
 283 445 l 1
 281 453 l 2
 272 487 273 579 282 606 c 0
 283 610 283 619 282 624 c 0
 273 660 272 754 282 779 c 2
 284 785 l 1
 341 785 l 1
 398 785 l 1
 395 794 l 2
 386 830 386 920 395 948 c 0
 396 952 396 960 395 965 c 0
 386 1001 386 1091 395 1119 c 2
 398 1126 l 1
 341 1127 l 1
 283 1128 l 1
 281 1136 l 2
 272 1170 273 1262 282 1289 c 0
 283 1293 283 1301 282 1306 c 0
 273 1342 272 1436 282 1461 c 2
0 1297 m 1
 0 1468 l 1
 85 1468 l 2
 132 1468 171 1466 172 1465 c 0
 173 1464 174 1458 175 1453 c 0
 183 1409 182 1340 173 1306 c 0
 172 1301 171 1295 172 1294 c 0
 176 1288 180 1243 180 1213 c 0
 180 1180 176 1136 172 1129 c 0
 171 1128 196 1126 227 1126 c 2
 284 1126 l 1
 287 1120 l 2
 296 1098 296 1006 288 969 c 0
 286 958 286 954 288 943 c 0
 297 903 296 802 286 787 c 0
 285 786 258 785 227 785 c 0
 196 785 171 784 172 783 c 0
 182 767 183 656 174 623 c 0
 172 618 171 613 172 612 c 0
 176 606 180 561 180 530 c 0
 180 497 176 453 172 446 c 0
 171 445 196 444 227 444 c 2
 284 444 l 1
 287 437 l 2
 296 415 296 323 288 286 c 0
 286 275 286 271 288 260 c 0
 297 220 296 120 286 105 c 0
 285 104 258 102 227 102 c 0
 196 102 171 101 172 100 c 0
 182 84 183 -26 174 -59 c 0
 172 -64 171 -70 172 -71 c 0
 176 -77 180 -121 180 -152 c 0
 180 -185 176 -230 172 -237 c 0
 171 -238 132 -239 85 -239 c 2
 0 -239 l 1
 0 -68 l 1
 0 102 l 1
 57 102 l 1
 113 102 l 1
 111 112 l 2
 102 148 102 237 111 265 c 0
 112 269 112 277 111 282 c 0
 102 318 102 408 111 436 c 2
 113 444 l 1
 57 444 l 1
 0 444 l 1
 0 614 l 1
 0 785 l 1
 57 785 l 1
 113 785 l 1
 111 794 l 2
 102 830 102 920 111 948 c 0
 112 952 112 960 111 965 c 0
 102 1001 102 1090 111 1118 c 2
 113 1126 l 1
 57 1126 l 1
 0 1126 l 1
 0 1297 l 1
EndSplineSet
EndChar

StartChar: cent
Encoding: 162 162 93
Width: 851
VWidth: 0
Flags: W
HStem: 102 171<342 398 512.982 624.399> 273 171<342 349.186 683.972 804.315> 445 169<113 170> 615 170<342 348.927 683.972 805.186> 785 171<342.001 398 512.982 624.399>
VStem: 106 188<445.125 611.646> 395 121<-237.992 95 965 1291> 623 180<275.097 437 617.095 624>
LayerCount: 2
Back
Fore
SplineSet
396 1291 m 2
 398 1297 l 1
 455 1297 l 2
 486 1297 512 1296 513 1295 c 0
 514 1294 515 1288 516 1283 c 0
 524 1240 524 1182 516 1139 c 0
 514 1128 514 1124 516 1114 c 0
 525 1074 523 973 513 958 c 0
 512 957 550 956 597 956 c 0
 644 956 683 954 684 953 c 0
 692 940 696 855 690 818 c 0
 686 795 685 789 684 787 c 0
 683 786 708 785 739 785 c 0
 770 785 797 784 798 783 c 0
 806 770 810 684 804 647 c 0
 800 623 799 619 797 617 c 0
 796 616 757 615 710 615 c 2
 625 616 l 1
 623 624 l 2
 614 658 614 750 623 777 c 2
 625 785 l 1
 483 785 l 2
 405 785 341 784 342 783 c 0
 346 776 351 733 351 701 c 0
 351 668 346 624 342 617 c 0
 341 616 329 614 313 614 c 0
 297 614 285 613 286 612 c 0
 290 605 294 562 294 530 c 0
 294 497 290 453 286 446 c 0
 285 445 297 444 313 444 c 0
 329 444 341 442 342 441 c 0
 350 428 354 343 348 306 c 0
 344 283 343 277 342 275 c 0
 341 274 405 273 483 273 c 2
 625 273 l 1
 623 282 l 2
 614 318 613 412 623 437 c 2
 626 444 l 1
 711 444 l 2
 758 444 797 442 798 441 c 0
 806 428 809 343 803 306 c 0
 799 283 799 277 798 275 c 0
 797 274 770 273 739 273 c 0
 708 273 683 272 684 271 c 0
 688 264 692 221 692 189 c 0
 692 156 688 112 684 105 c 0
 683 104 644 102 597 102 c 0
 550 102 512 101 513 100 c 0
 522 85 524 -16 516 -55 c 0
 514 -66 514 -70 516 -81 c 0
 525 -122 523 -227 513 -237 c 0
 512 -238 485 -238 454 -238 c 2
 397 -238 l 1
 395 -230 l 2
 386 -196 386 -103 395 -76 c 0
 396 -72 396 -64 395 -59 c 0
 386 -23 386 67 395 95 c 2
 398 102 l 1
 341 103 l 1
 283 104 l 1
 281 112 l 2
 272 146 273 238 282 265 c 2
 284 273 l 1
 227 274 l 1
 170 274 l 1
 167 282 l 2
 158 316 159 409 168 436 c 2
 170 443 l 1
 142 444 l 1
 113 445 l 1
 111 453 l 2
 104 478 102 537 106 576 c 0
 110 616 109 614 142 614 c 2
 170 614 l 1
 168 624 l 2
 159 660 158 754 168 779 c 2
 171 785 l 1
 227 785 l 1
 284 785 l 1
 281 794 l 2
 272 830 272 924 282 949 c 2
 284 956 l 1
 341 956 l 1
 398 956 l 1
 395 965 l 2
 386 1001 386 1090 395 1118 c 0
 396 1122 396 1131 395 1136 c 0
 386 1172 386 1266 396 1291 c 2
EndSplineSet
EndChar

StartChar: notequal
Encoding: 8800 8800 94
Width: 851
VWidth: 0
Flags: W
HStem: -67 169<226 284> 274 170<171 284 512.99 748.186> 446 166<513 622.057> 614 171<171 398 626.972 748.186> 956 170<626.963 691.186>
VStem: 226 116<-67 101.996> 511 116<785.045 955.998> 566 118<989.77 1120>
LayerCount: 2
Back
Fore
SplineSet
566 1120 m 2xfd
 569 1126 l 1
 626 1126 l 2
 657 1126 683 1125 684 1124 c 0
 692 1111 696 1025 690 988 c 0
 686 965 685 960 684 958 c 0xfd
 683 957 670 956 654 956 c 0
 638 956 626 954 627 953 c 0
 631 946 635 904 635 872 c 0
 635 839 631 794 627 787 c 0
 626 786 651 785 682 785 c 0
 713 785 740 784 741 783 c 0
 749 770 753 684 747 647 c 0
 743 624 742 619 741 617 c 0
 740 616 688 614 625 614 c 0
 562 614 512 613 513 612 c 0
 517 605 522 562 522 530 c 0
 522 497 517 453 513 446 c 0
 512 445 562 444 625 444 c 0
 688 444 740 442 741 441 c 0
 749 428 753 343 747 306 c 0
 743 283 742 277 741 275 c 0
 740 274 663 273 569 273 c 0
 475 273 398 272 399 271 c 0
 403 264 408 221 408 189 c 0
 408 156 403 112 399 105 c 0
 398 104 385 102 369 102 c 0
 353 102 341 101 342 100 c 0
 353 82 353 -55 342 -66 c 0
 341 -67 314 -68 283 -68 c 2
 226 -67 l 1
 224 -59 l 2
 217 -34 216 25 220 64 c 0
 224 104 223 102 256 102 c 2
 284 102 l 1
 281 112 l 2
 272 148 273 237 282 265 c 2
 284 273 l 1
 227 274 l 1
 170 274 l 1
 167 282 l 2
 158 316 159 413 168 437 c 2
 171 444 l 1
 284 444 l 1
 398 444 l 1
 395 453 l 2
 386 489 386 579 395 607 c 2
 398 614 l 1
 284 615 l 1
 170 616 l 1
 167 624 l 2
 158 658 159 755 168 779 c 2
 171 785 l 1
 341 785 l 1
 511 785 l 1xfe
 509 794 l 2
 502 820 500 877 504 917 c 0
 508 957 507 956 540 956 c 2
 568 956 l 1
 566 965 l 2
 557 1001 556 1095 566 1120 c 2xfd
EndSplineSet
EndChar

StartChar: greaterequal
Encoding: 8805 8805 95
Width: 851
VWidth: 0
Flags: W
HStem: -67 169<171 747.443> 274 343<626.972 741.353> 274 170<171 511> 956 170<171 284 399 406.186>
VStem: 168 575<-65.9495 96 282 437> 168 231<989.77 1120>
LayerCount: 2
Back
Fore
SplineSet
168 96 m 2x98
 171 102 l 1
 455 102 l 2
 611 102 740 101 741 100 c 0
 748 88 752 0 747 -33 c 0
 746 -38 745 -47 744 -53 c 0
 743 -59 741 -65 740 -66 c 0
 739 -67 610 -68 454 -68 c 2
 170 -67 l 1
 167 -59 l 2
 158 -25 159 72 168 96 c 2x98
168 1120 m 2xb4
 171 1126 l 1
 284 1126 l 2
 347 1126 398 1125 399 1124 c 0
 407 1111 411 1025 405 988 c 0
 401 965 400 960 399 958 c 0
 398 957 424 956 455 956 c 0
 486 956 512 954 513 953 c 0
 521 940 525 855 519 818 c 0
 515 795 514 789 513 787 c 0
 512 786 538 785 569 785 c 0
 600 785 626 784 627 783 c 0
 635 770 639 684 633 647 c 0
 629 624 628 619 627 617 c 0xd4
 626 616 651 614 682 614 c 0
 713 614 740 613 741 612 c 0
 742 611 743 605 744 600 c 0
 752 557 751 500 743 457 c 0
 741 446 741 441 743 431 c 0
 752 390 750 285 740 275 c 0
 739 274 610 274 454 274 c 2
 170 274 l 1
 167 282 l 2
 158 316 159 413 168 437 c 2xb8
 171 444 l 1
 341 444 l 1
 511 444 l 1
 509 453 l 2
 500 489 500 579 509 607 c 2
 512 614 l 1
 454 615 l 1
 397 616 l 1
 395 624 l 2
 386 658 386 750 395 777 c 2
 398 785 l 1
 341 786 l 1
 283 786 l 1
 281 794 l 2
 272 828 273 921 282 948 c 2
 284 956 l 1
 227 956 l 1
 170 957 l 1
 167 965 l 2
 158 999 159 1096 168 1120 c 2xb4
EndSplineSet
EndChar

StartChar: Igrave
Encoding: 204 204 96
Width: 851
VWidth: 0
Flags: W
HStem: -67 169<284 398 569.972 691.186> 956 170<284 398 569.972 691.186> 1298 170<455.972 576.443> 1468 170<284 397.292>
VStem: 282 402<-65.9047 -59 957.125 1120> 282 178<1470.05 1632>
LayerCount: 2
Back
Fore
SplineSet
282 1120 m 2xf8
 284 1126 l 1
 483 1126 l 2
 593 1126 683 1125 684 1124 c 0
 692 1111 696 1025 690 988 c 0
 686 965 685 960 684 958 c 0
 683 957 656 956 625 956 c 0
 594 956 569 954 570 953 c 0
 579 938 581 837 573 798 c 0
 571 787 571 783 573 772 c 0
 581 733 579 632 570 617 c 0
 569 616 570 611 572 606 c 0
 581 574 580 463 570 447 c 0
 569 446 570 440 572 435 c 0
 581 403 580 292 570 276 c 0
 569 275 570 269 572 264 c 0
 581 231 580 121 570 105 c 0
 569 104 594 102 625 102 c 0
 656 102 683 101 684 100 c 0xf8
 692 87 696 1 690 -36 c 0
 686 -60 685 -64 683 -66 c 0
 682 -67 591 -68 482 -68 c 2
 283 -67 l 1
 281 -59 l 2
 272 -25 273 72 282 96 c 2xf4
 284 102 l 1
 341 102 l 1
 398 102 l 1
 395 112 l 2
 386 148 386 237 395 265 c 0
 396 269 396 277 395 282 c 0
 386 318 386 408 395 436 c 0
 396 440 396 448 395 453 c 0
 386 489 386 578 395 606 c 0
 396 610 396 619 395 624 c 0
 386 660 386 749 395 777 c 0
 396 781 396 789 395 794 c 0
 386 830 386 920 395 948 c 2
 398 956 l 1
 341 956 l 1
 283 957 l 1
 281 965 l 2
 272 999 273 1096 282 1120 c 2xf8
282 1632 m 2xf4
 284 1638 l 1
 370 1638 l 2
 417 1638 455 1637 456 1636 c 0
 463 1624 467 1536 462 1503 c 0
 461 1499 461 1490 460 1484 c 0
 459 1478 457 1471 456 1470 c 0
 455 1469 480 1468 512 1468 c 0
 543 1468 569 1466 570 1465 c 0
 577 1453 581 1365 576 1332 c 0
 575 1327 574 1319 573 1313 c 0
 572 1307 570 1300 569 1299 c 0
 568 1298 529 1298 482 1298 c 2
 397 1298 l 1
 395 1306 l 2
 386 1340 386 1433 395 1460 c 2
 398 1468 l 1
 341 1468 l 1
 283 1469 l 1
 281 1477 l 2
 272 1511 273 1608 282 1632 c 2xf4
EndSplineSet
EndChar

StartChar: ugrave
Encoding: 249 249 97
Width: 851
VWidth: 0
Flags: W
HStem: -68 170<341.991 569> 104 169<568 625> 765 20G<111 222.5 623 734.5> 956 170<455.972 576.443> 1128 169<284 397.292>
VStem: 111 177<272.41 779> 282 178<1129.05 1291> 623 177<-67 102 273 779>
LayerCount: 2
Back
Fore
SplineSet
623 779 m 2xf9
 626 785 l 1
 711 785 l 2
 758 785 797 784 798 783 c 0
 799 782 800 776 801 771 c 0
 809 728 808 670 800 627 c 0
 798 616 798 612 800 602 c 0
 807 567 807 491 800 457 c 0
 798 446 798 442 800 431 c 0
 807 396 807 320 800 286 c 0
 798 275 798 271 800 260 c 0
 808 221 807 120 798 105 c 0
 797 104 797 99 799 94 c 0
 809 60 808 -55 797 -66 c 0
 796 -67 757 -68 710 -68 c 2
 625 -67 l 1
 623 -59 l 2
 614 -25 614 67 623 94 c 2
 625 102 l 1
 597 103 l 1
 568 104 l 1
 566 112 l 2
 559 137 557 195 561 234 c 0
 565 274 564 273 597 273 c 2
 625 273 l 1
 623 282 l 2
 614 318 614 408 623 436 c 0
 624 440 624 448 623 453 c 0
 614 489 614 578 623 606 c 0
 624 610 624 619 623 624 c 0
 614 660 613 754 623 779 c 2xf9
111 779 m 2xfd
 114 785 l 1
 199 785 l 2
 246 785 285 784 286 783 c 0
 287 782 288 776 289 771 c 0
 297 728 296 670 288 627 c 0
 286 616 286 612 288 602 c 0
 295 567 295 491 288 457 c 0
 286 446 286 442 288 431 c 0
 297 391 296 290 286 275 c 0
 285 274 297 273 313 273 c 0
 329 273 341 272 342 271 c 0
 350 258 354 174 348 135 c 0
 345 115 344 108 342 105 c 0
 341 104 392 102 455 102 c 2
 569 102 l 1
 571 96 l 2
 581 69 580 -55 569 -66 c 0
 568 -67 491 -68 397 -68 c 2
 226 -67 l 1
 224 -59 l 2
 215 -25 216 68 225 95 c 2
 227 102 l 1
 170 103 l 1
 113 104 l 1
 111 112 l 2
 102 146 102 238 111 265 c 0
 112 269 112 277 111 282 c 0
 102 318 102 408 111 436 c 0
 112 440 112 448 111 453 c 0
 102 489 102 578 111 606 c 0
 112 610 112 619 111 624 c 0
 102 660 101 754 111 779 c 2xfd
282 1291 m 2xfb
 284 1297 l 1
 370 1297 l 2
 417 1297 455 1296 456 1295 c 0
 463 1283 467 1195 462 1162 c 0
 461 1158 461 1148 460 1142 c 0
 459 1136 457 1130 456 1129 c 0
 455 1128 480 1126 512 1126 c 0
 543 1126 569 1125 570 1124 c 0
 577 1112 581 1024 576 991 c 0
 575 986 574 977 573 971 c 0
 572 965 570 959 569 958 c 0
 568 957 529 956 482 956 c 2
 397 957 l 1
 395 965 l 2
 386 999 386 1092 395 1119 c 2
 398 1126 l 1
 341 1127 l 1
 283 1128 l 1
 281 1136 l 2
 272 1170 273 1267 282 1291 c 2xfb
EndSplineSet
EndChar

StartChar: F
Encoding: 70 70 98
Width: 851
VWidth: 0
Flags: W
HStem: -68 21G<226 334.5> -68 21G<226 334.5> 444 173<399 747.996> 956 170<399.01 748.186>
VStem: 226 173<-67 443.832>
LayerCount: 2
Back
Fore
SplineSet
225 1120 m 2xb8
 228 1126 l 1
 483 1126 l 2
 624 1126 740 1125 741 1124 c 0
 749 1111 753 1025 747 988 c 0
 743 965 742 960 741 958 c 0
 740 957 663 956 569 956 c 0
 475 956 398 954 399 953 c 0
 408 938 410 837 402 798 c 0
 400 787 400 783 402 772 c 0
 411 732 409 632 399 617 c 0
 398 616 475 614 569 614 c 0
 663 614 740 613 741 612 c 0
 749 599 753 513 747 476 c 0
 743 453 742 448 741 446 c 0
 740 445 663 444 569 444 c 2
 399 444 l 1
 401 435 l 2
 410 403 410 292 400 276 c 0
 399 275 399 269 401 264 c 0
 410 232 410 121 400 105 c 0
 399 104 399 99 401 94 c 0
 411 60 409 -55 399 -66 c 0
 398 -67 358 -68 311 -68 c 2
 226 -67 l 1
 224 -59 l 2
 215 -25 216 67 225 94 c 0
 226 98 226 107 225 112 c 0
 216 148 216 237 225 265 c 0
 226 269 226 277 225 282 c 0
 216 318 216 408 225 436 c 0
 226 440 226 448 225 453 c 0
 216 489 216 578 225 606 c 0
 226 610 226 619 225 624 c 0
 216 660 216 749 225 777 c 0
 226 781 226 789 225 794 c 0
 216 830 216 920 225 948 c 0
 226 952 226 960 225 965 c 0
 216 1001 215 1095 225 1120 c 2xb8
EndSplineSet
EndChar

StartChar: w
Encoding: 119 119 99
Width: 851
VWidth: 0
Flags: W
HStem: -68 21G<226 298.5 568 639.5> -68 21G<226 298.5 568 639.5> 765 20G<111 222.5 396 470.5 623 734.5>
VStem: 111 177<445 779> 333 240<276.051 440.38> 396 120<446.766 779> 623 175<444.001 779>
LayerCount: 2
Back
Fore
SplineSet
111 779 m 2xba
 114 785 l 1
 199 785 l 2
 246 785 285 784 286 783 c 0
 287 782 288 776 289 771 c 0
 297 728 296 670 288 627 c 0
 286 616 286 612 288 602 c 0
 295 567 295 491 288 457 c 0
 286 446 286 442 288 431 c 0
 297 391 296 290 286 275 c 0
 285 274 296 273 312 273 c 2
 341 273 l 1
 338 282 l 2
 331 308 329 365 333 405 c 0xba
 337 445 336 444 369 444 c 2
 398 444 l 1
 395 453 l 2
 386 489 386 578 395 606 c 0
 396 610 396 619 395 624 c 0
 386 660 386 754 396 779 c 2
 398 785 l 1
 455 785 l 2
 486 785 512 784 513 783 c 0
 514 782 515 776 516 771 c 0
 524 728 524 670 516 627 c 0
 514 616 514 612 516 602 c 0xb6
 525 562 523 461 513 446 c 0
 512 445 524 444 540 444 c 0
 556 444 569 442 570 441 c 0
 578 429 582 338 576 307 c 0
 575 303 574 295 573 289 c 0
 572 283 571 277 570 276 c 0
 569 275 581 273 597 273 c 2
 625 273 l 1
 623 282 l 2
 614 318 614 408 623 436 c 0
 624 440 624 448 623 453 c 0
 614 489 614 578 623 606 c 0
 624 610 624 619 623 624 c 0
 614 660 613 754 623 779 c 2
 626 785 l 1
 711 785 l 2
 758 785 797 784 798 783 c 0
 799 782 800 776 801 771 c 0
 809 728 808 670 800 627 c 0
 798 616 798 612 800 602 c 0
 809 562 808 461 798 446 c 0
 797 445 784 444 768 444 c 0
 752 444 740 442 741 441 c 0
 750 426 751 325 743 286 c 0
 741 275 741 271 743 260 c 0
 752 220 751 120 741 105 c 0
 740 104 727 102 711 102 c 0
 695 102 683 101 684 100 c 0
 695 82 694 -55 683 -66 c 0
 682 -67 655 -68 624 -68 c 2
 568 -67 l 1
 566 -59 l 2
 557 -25 557 67 566 94 c 2
 569 102 l 1
 540 103 l 1
 511 104 l 1
 509 112 l 2
 500 146 500 237 509 265 c 2
 512 273 l 1
 455 273 l 2
 424 273 398 272 399 271 c 0
 410 253 410 123 399 105 c 0
 398 104 385 102 369 102 c 0
 353 102 341 101 342 100 c 0
 353 82 353 -55 342 -66 c 0
 341 -67 314 -68 283 -68 c 2
 226 -67 l 1
 224 -59 l 2
 215 -25 216 67 225 94 c 2
 227 102 l 1
 198 103 l 1
 170 104 l 1
 167 112 l 2
 158 146 159 238 168 265 c 0
 169 269 169 277 168 282 c 0
 159 318 159 408 168 436 c 2
 170 443 l 1
 142 444 l 1
 113 445 l 1
 111 453 l 2
 102 487 102 579 111 606 c 0
 112 610 112 619 111 624 c 0
 102 660 101 754 111 779 c 2xba
EndSplineSet
EndChar

StartChar: M
Encoding: 77 77 100
Width: 851
VWidth: 0
Flags: W
HStem: -68 21G<113 221.5 625 733.5> -68 21G<113 221.5 625 733.5> 1106 20G<111 258.5 566 714.5>
VStem: 111 231<989.77 1120> 111 176<-67 699.49> 566 234<956.141 1120> 623 176<-67 785>
LayerCount: 2
Back
Fore
SplineSet
111 1120 m 2xb0
 114 1126 l 1
 227 1126 l 2
 290 1126 341 1125 342 1124 c 0
 350 1111 354 1025 348 988 c 0
 344 965 343 960 342 958 c 0
 341 957 353 956 369 956 c 0
 385 956 398 954 399 953 c 0
 400 952 402 946 403 941 c 0
 411 898 410 841 402 798 c 0
 400 787 400 782 402 772 c 0
 411 732 409 632 399 617 c 0
 398 616 424 614 455 614 c 2
 511 614 l 1
 509 624 l 2
 500 660 500 749 509 777 c 0
 510 781 510 789 509 794 c 0
 502 820 500 877 504 917 c 0
 508 957 507 956 540 956 c 2
 568 956 l 1
 566 965 l 2
 557 1001 556 1095 566 1120 c 2
 569 1126 l 1
 683 1126 l 2
 746 1126 797 1125 798 1124 c 0
 799 1123 800 1117 801 1112 c 0
 809 1069 808 1012 800 969 c 0
 798 958 798 953 800 943 c 0
 807 908 807 832 800 798 c 0
 798 787 798 783 800 772 c 0xb4
 808 733 807 632 798 617 c 0
 797 616 797 611 799 606 c 0
 808 574 808 463 798 447 c 0
 797 446 797 440 799 435 c 0
 808 403 808 292 798 276 c 0
 797 275 797 269 799 264 c 0
 808 232 808 121 798 105 c 0
 797 104 797 99 799 94 c 0
 809 60 807 -55 797 -66 c 0
 796 -67 757 -68 710 -68 c 2
 625 -67 l 1
 623 -59 l 2
 614 -25 614 67 623 94 c 0
 624 98 624 107 623 112 c 0
 614 148 614 237 623 265 c 0
 624 269 624 277 623 282 c 0
 614 318 614 408 623 436 c 0
 624 440 624 448 623 453 c 0
 614 489 614 578 623 606 c 0
 624 610 624 619 623 624 c 0
 614 660 614 749 623 777 c 2
 625 785 l 1
 597 785 l 2
 581 785 569 784 570 783 c 0
 579 768 581 666 573 627 c 0
 571 616 571 613 573 602 c 0
 582 562 580 461 570 446 c 0
 569 445 556 444 540 444 c 0
 524 444 512 442 513 441 c 0
 522 426 524 325 516 286 c 0
 514 275 514 271 516 260 c 0
 525 219 523 115 513 105 c 0
 512 104 485 103 454 103 c 2
 397 104 l 1
 395 112 l 2
 386 146 386 238 395 265 c 0
 396 269 396 277 395 282 c 0
 386 318 386 408 395 436 c 2
 398 443 l 1
 369 444 l 1
 340 445 l 1
 338 453 l 2
 329 487 329 579 338 606 c 0
 339 610 340 619 339 624 c 0
 330 660 329 749 338 777 c 2
 341 785 l 1
 313 785 l 2
 297 785 285 784 286 783 c 0
 290 776 294 733 294 701 c 0
 294 669 290 623 286 617 c 0
 285 616 285 611 287 606 c 0
 296 574 296 463 286 447 c 0
 285 446 285 440 287 435 c 0
 296 403 296 292 286 276 c 0
 285 275 285 269 287 264 c 0
 296 232 296 121 286 105 c 0
 285 104 285 99 287 94 c 0
 297 60 295 -55 285 -66 c 0
 284 -67 245 -68 198 -68 c 2
 113 -67 l 1
 111 -59 l 2
 102 -25 102 67 111 94 c 0
 112 98 112 107 111 112 c 0
 102 148 102 237 111 265 c 0
 112 269 112 277 111 282 c 0
 102 318 102 408 111 436 c 0
 112 440 112 448 111 453 c 0
 102 489 102 578 111 606 c 0
 112 610 112 619 111 624 c 0
 102 660 102 749 111 777 c 0
 112 781 112 789 111 794 c 0
 102 830 102 920 111 948 c 0
 112 952 112 960 111 965 c 0xaa
 102 1001 101 1095 111 1120 c 2xb0
EndSplineSet
EndChar

StartChar: uni00B3
Encoding: 179 179 101
Width: 851
VWidth: 0
Flags: W
HStem: 445 169<284 511> 614 171<569.963 633.644> 786 170<341 511> 956 170<569.963 634.186> 1128 169<284 512 570 577.186>
VStem: 282 288<446 608 1128.12 1291>
LayerCount: 2
Back
Fore
SplineSet
282 1291 m 2
 284 1297 l 1
 427 1297 l 2
 505 1297 569 1296 570 1295 c 0
 578 1282 582 1196 576 1159 c 0
 572 1136 571 1131 570 1129 c 0
 569 1128 581 1126 597 1126 c 0
 613 1126 626 1125 627 1124 c 0
 635 1111 639 1025 633 988 c 0
 629 965 628 960 627 958 c 0
 626 957 613 956 597 956 c 0
 581 956 569 954 570 953 c 0
 574 946 579 904 579 872 c 0
 579 839 574 794 570 787 c 0
 569 786 581 785 597 785 c 0
 630 785 629 786 633 749 c 0
 638 704 634 629 627 617 c 0
 626 616 613 614 597 614 c 0
 581 614 569 613 570 612 c 0
 581 594 580 457 569 446 c 0
 568 445 503 444 425 444 c 2
 283 445 l 1
 281 453 l 2
 272 487 273 584 282 608 c 2
 284 614 l 1
 398 614 l 1
 511 614 l 1
 509 624 l 2
 500 660 500 749 509 777 c 2
 512 785 l 1
 426 786 l 1
 340 786 l 1
 338 794 l 2
 329 828 330 925 339 949 c 2
 341 956 l 1
 426 956 l 1
 511 956 l 1
 509 965 l 2
 500 1001 500 1091 509 1119 c 2
 512 1126 l 1
 398 1127 l 1
 283 1128 l 1
 281 1136 l 2
 272 1170 273 1267 282 1291 c 2
EndSplineSet
EndChar

StartChar: bracketleft
Encoding: 91 91 102
Width: 851
VWidth: 0
Flags: W
HStem: -238 172<512.973 633.996> 1126 171<512.973 634.186>
VStem: 339 294<-236.904 -71.6617 1126.26 1291> 339 174<-67.9551 1123.23>
LayerCount: 2
Back
Fore
SplineSet
339 1291 m 2xe0
 341 1297 l 1
 483 1297 l 2
 561 1297 626 1296 627 1295 c 0
 635 1282 639 1196 633 1159 c 0xe0
 629 1136 628 1131 627 1129 c 0
 626 1128 600 1126 569 1126 c 0
 538 1126 512 1125 513 1124 c 0
 522 1109 524 1008 516 969 c 0
 514 958 514 954 516 943 c 0
 524 904 523 803 514 788 c 0
 513 787 513 781 515 776 c 0
 524 744 524 633 514 617 c 0
 513 616 513 611 515 606 c 0
 524 574 524 463 514 447 c 0
 513 446 513 440 515 435 c 0
 524 403 524 292 514 276 c 0
 513 275 513 269 515 264 c 0
 524 232 524 121 514 105 c 0
 513 104 513 99 515 94 c 0
 524 61 523 -50 513 -66 c 0xd0
 512 -67 538 -68 569 -68 c 0
 600 -68 626 -70 627 -71 c 0
 635 -84 639 -169 633 -206 c 0xe0
 629 -230 628 -235 626 -237 c 0
 625 -238 560 -238 482 -238 c 2
 340 -238 l 1
 338 -230 l 2
 329 -196 329 -103 338 -76 c 0
 339 -72 340 -64 339 -59 c 0
 330 -23 329 66 338 94 c 0
 339 98 340 107 339 112 c 0
 330 148 329 237 338 265 c 0
 339 269 340 277 339 282 c 0
 330 318 329 408 338 436 c 0
 339 440 340 448 339 453 c 0
 330 489 329 578 338 606 c 0
 339 610 340 619 339 624 c 0
 330 660 329 749 338 777 c 0
 339 781 340 789 339 794 c 0
 330 830 329 920 338 948 c 0
 339 952 340 960 339 965 c 0xd0
 330 1001 329 1090 338 1118 c 0
 339 1122 340 1131 339 1136 c 0
 330 1172 329 1266 339 1291 c 2xe0
EndSplineSet
EndChar

